<mxfile host="app.diagrams.net" agent="Mozilla/5.0 (Windows NT 10.0; Win64; x64) AppleWebKit/537.36 (KHTML, like Gecko) Chrome/137.0.0.0 Safari/537.36" version="27.1.4">
  <diagram name="Página-1" id="MmwrZXqq5R3Ojskw8vrE">
    <mxGraphModel dx="2216" dy="841" grid="1" gridSize="10" guides="1" tooltips="1" connect="1" arrows="1" fold="1" page="1" pageScale="1" pageWidth="827" pageHeight="1169" math="0" shadow="0">
      <root>
        <mxCell id="0" />
        <mxCell id="1" parent="0" />
        <mxCell id="lZjgi-s0DHtiW6chuKvV-14" style="edgeStyle=orthogonalEdgeStyle;rounded=0;orthogonalLoop=1;jettySize=auto;html=1;exitX=1;exitY=0.5;exitDx=0;exitDy=0;entryX=0;entryY=0.5;entryDx=0;entryDy=0;" parent="1" source="lZjgi-s0DHtiW6chuKvV-1" target="lZjgi-s0DHtiW6chuKvV-12" edge="1">
          <mxGeometry relative="1" as="geometry" />
        </mxCell>
        <UserObject label="https://sw-jaas-prd-fkhwf8h5epfze3bu.a02.azurefd.net/" link="https://sw-jaas-prd-fkhwf8h5epfze3bu.a02.azurefd.net/orders" id="lZjgi-s0DHtiW6chuKvV-1">
          <mxCell style="text;whiteSpace=wrap;fontSize=13;fontStyle=1" parent="1" vertex="1">
            <mxGeometry x="60" y="430" width="390" height="30" as="geometry" />
          </mxCell>
        </UserObject>
        <mxCell id="lZjgi-s0DHtiW6chuKvV-3" value="Todos los usuarios deben acessar Cockpit desde una ÚNICA liga&lt;br&gt;cockpit.juntosplus.com" style="rounded=1;whiteSpace=wrap;html=1;align=left;" parent="1" vertex="1">
          <mxGeometry x="860" y="435" width="230" height="60" as="geometry" />
        </mxCell>
        <mxCell id="lZjgi-s0DHtiW6chuKvV-6" style="edgeStyle=orthogonalEdgeStyle;rounded=0;orthogonalLoop=1;jettySize=auto;html=1;entryX=0;entryY=0.5;entryDx=0;entryDy=0;" parent="1" source="lZjgi-s0DHtiW6chuKvV-4" target="lZjgi-s0DHtiW6chuKvV-5" edge="1">
          <mxGeometry relative="1" as="geometry" />
        </mxCell>
        <mxCell id="lZjgi-s0DHtiW6chuKvV-4" value="" style="shape=image;verticalLabelPosition=bottom;labelBackgroundColor=default;verticalAlign=top;aspect=fixed;imageAspect=0;image=data:image/png,iVBORw0KGgoAAAANSUhEUgAAB3oAAAPnCAYAAADJck1nAAAAAXNSR0IArs4c6QAAAARnQU1BAACxjwv8YQUAAAAJcEhZcwAADsMAAA7DAcdvqGQAAP+lSURBVHhe7N0JfBTl4cbxZ5NAIodSQUWgakBFqCJow6EQFIGKgAWDClEqiH9BsSAIeIAol8ohCBUlVkqUS9RoKpcCRoQolxVEBdFiPABFwXIJLCTZ/87sm2Q32SSbCzLw+/YzzPu+M7s7O/smUp5939d15MgRjwAAAADA4aKiokwJQCgyMjJMCQAAAADgRGFmDwAAAAAAAAAAAABwCIJeAAAAAAAAAAAAAHAYgl4AAAAAAAAAAAAAcBiCXgAAAAAAAAAAAABwGIJeAAAAAAAAAAAAAHAYgl4AAAAAAAAAAAAAcBiCXgAAAAAAAAAAAABwGIJeAAAAAAAAAAAAAHAYgl4AAAAAAAAAAAAAcBiCXgAAAAAAAAAAAABwGIJeAAAAAAAAAAAAAHAYgl4AAAAAAAAAAAAAcBiCXgAAAAAAAAAAAABwGIJeAAAAAAAAAAAAAHAYgl4AAAAAAAAAAAAAcBiCXgAAAAAAAAAAAABwGIJeAAAAAAAAAAAAAHAYgl4AAAAAAAAAAAAAcBiCXgAAAAAAAAAAAABwGIJeAAAAAAAAAAAAAHAYgl4AAAAAAAAAAAAAcBiCXgAAAAAAAAAAAABwGNeRI0c8pgwAAIBT0IZPNuqTTz/T1q++1vc/7NDevb/pyJGj5ihQsDPOiFL16mfrwgvqqMFll+rPV12pmD83MUfLl6ioKFMCEIqMjAxTAgAAAAA4EUEvAADAKWjnrp+V9NZCLV66XLVq1VTzplfrissb6qKLLtA5NaqrUqUzzJlAwQ4fPqJf9+zVd9/9oM+/2KK16/+jXd7+1bFDO8Xd0lm1vf2rvCDoBYqGoBcAAAAAnI2gFwAA4BRy9OhRvZCQqDeS/q347nHqcnMH1Y2+yBwFSse3ad8p+Z2lmvdakm6N+6vu79urXISsBL1A0RD0AgAAAICzEfQCAACcIlanrtWEZ59Xq5bN1e//7rKn2wXKkjUN+Ix/vmL3vWEPPWD3vZOJoBcoGoJeAAAAAHA2gl4AAIBTwKtzX9fc+W/qieFD1Tr2GtMKnBgfrvpYo8ZN1B09uulvd9xmWk88gl6gaAh6AQAAAMDZCHoBAAAc7sWXEvXxmg2a9MyTqlOnlmkFTqwdO3ZpyCNP6poWMbrv3l6m9cQi6AWKhqAXAAAAAJwtzOwBAADgQNZIXivknfH8REJenFRW/7P6odUfrX4JAAAAAACAskXQCwAA4FDWuqjWdM3WSN5q1c4yrcDJY/VDqz9a/dLqnwAAAAAAACg7BL0AAAAOdPToUU149nl7TV5G8qI8sfqj1S+t/mn1UwAAAAAAAJQN1ugFAABwoMlTZyg9PV3DHxlkWgp28OBBLV26VIsXL9YHH3ygY8eOqVKlSqpTp46io6PVokULdezYUX/84x/NI4CSGffMFEVERGjwwH6mpeyxRi9QNKzRCwAAAADORtALAADgMDt3/axu3XvrvUWvq3r1s01rcFag+9xzz2n69Olyu92mNbjw8HDFx8frscce0x/+8AfTChTP3r2/6S+dbtObr81S7Vo1TWvZIugFioagFwAAAACcrVxP3fz6669r5syZ8niKn0W7U8erSaOr1H76ZtOSv60JndWwUQtNWG8aQrErWb29z987aadpAAAAKFtJby1UfPe4QkPenTt36sYbb9TkyZPtkPfyyy9XTEyMfezSSy9V27Zt7bI1ove6666z/8F/9uzZuummm/Tjjz/ax4Disvqn1U+t/goAAAAAAIDSV26D3kmTJumhhx7Sk08+qbVr15rWoouMuVZxlaQdC1drU0FfVs7YrGVv75Rq3an2V5s2AACAcmjx0uXqcnMHUwvuf//7n7p166YtW7bYAe+CBQs0depUbdq0SWeddZbmzJmjF198UXXr1lVaWpq6d++uFStWKDY21q536tRJv/zyi3k2oHisfmr1VwAAAAAAAJS+chn0Pv/88/Y/RFrOOOMMe5RJsUW2VKeetaVdc7TsP6YtmC9Xa/EuqU7XtmocbtoAAADKmQ2fbFStWjVVN/oi05KXNRvKvffeawe2rVu31qJFi9SqVSv1799fx48ft0f4XnDBBapatapmzZqlsLAwDR061F6v1wqErdB39+7duvvuu+11gIHisvqp1V+tfgsAAAAAAIDSVe6CXusfG8ePH2+XK1eurPnz56tmzZKt6dW41Y2qI7fmp24wLXltWv2udqiRerWvb1oAAADKn08+/UzNmxY8/cgrr7yi1atX21+Ws8rWuqXvvPOOvvrqK7Vs2VIdO3Y0Z0r169e3A92DBw9qxowZcrlcmjJliq655hp98skneumll8yZ5cPPc25VREREvttTH5kTT4SPnvK9bvf5+tn7v/ndi/b6a8d6Hzu2+DPXOIXVX61+CwAAAAAAgNJVroLeefPmaeTIkXbZCnmtESVXX10K8yg3uknx9SX366laF2z65owNWjZ7p9Sii2L9Bg/v2bxAY+/prGaNrrLX7o29a7gSU/eao8Ftn93De25nJWwxDf7SFijeWi84YZtp8MrYq1WJwxXfroX3cd7Xie2sAROXavthczzL+ine432V9M1mJd7fzl53uFn3KVq1xxwHAACnha1ffa0rLm9oanlZ6+xas6NYrBDXKltLYjz99NN22znnnGPX/TcrrLRYoa5Vf/bZZ7NnVLFG//722292udzoNls70tPt0ca5t8euNeeUuZ81/x8jNfpD7+v+PU11Iuqop2br7hP2+qXH+qLl+eefb3+5sribtdxKfqz+avVbAAAAAAAAlK5yE/QmJSXpkUcescvWNIJWyHvllVfa9ZKLVquujaTDr+vDINM3u9ekaP5hqW2XVqpj2nYkDVC7O8drYXiMBo5P0KznHlanqNWacH8nxSdsltucl1u9ll3UWDuVtNovzDW2pyZrk+orPmvU8OENmtq9k/pNXq3I9g9rWkKCJt5dXzuThqtzjylalzvs1S4lDnlAC2vco4kJ43Rfuxg1rGEOAQCA08L3P+zQRRddYGp5ffzxx9qxY4ddfvfdd7PD3O+//95ue/vtt7PbsjZrJK/l8OHD2W1z58612w4dOqTly1ljNa+a6vGaCZavfcwXNL/Ww9vqPB988IE93XdJFNRHrP5q9VsAAAAAAACUrnIR9KakpGjQoEHZ/8A0ePBg+x8a16xZE9K2fv36Qv9xqt51XdQs6PTNbq37MNn7Zwfd3KK6ryltgYaNSpWuG6mkF0YqvkOMmrXpomEvLNG0OGnT9FFKDDZi1xLdVJ0aSTveTtVW0+STptXvbJMadVErM2p46+xnlLCthnolLNesoV3UtkWMOvaapKS3RqpZ2mz1m5KaK1Deqe2XPKqE0bd7z+2gXn1aipwXAIDTy969v+mcGubvLEFYf6+yPProo3rrrbfs7a9//avdZq3Dm9WWe8saBdy4cePstqwA+MMPP7T3zrJWT/lN6RwR8ZS3xdgxX7dG3Kr5c8zUy/bmrQdkkb6pmHOOW1vOc9hTSHefr7UBU0n7vYZhT8+cfTz3a5QPVl8588wzTa3orPc2ZswYU8vL6q9WvwUAAAAAAEDpKhdB74svvhgQ1I4aNUq33XZbyFtcXJzeeOMN8+h81Gqlbu2t6ZtTtMo/PXVv0PIFbkXe3kGtqvmati6bY4+8HTioi+qE+9ps4VXU9m/3q4HSNGP5ZtOYW7Riu8ZIu5K1yj8MTkvVwm1S45uaqp5Vz9ighbPSpBZ9FN8i0j4lW60O6h3nvbQFKVqXa+hwsxaNCHcBADiNHTlyVJUqnWFqeW3d6vuqWffu3e11dq1t//79dtvtt9+e3ZZ769atm710xi+//JLd1qVLFzsA/Pzzz+3HO4cV0rbUxsQd2VM6pz45Ui0D1sN9Wz17Sanm+I5EqedFOUHt2rF11PPy1OzHp6enarRyPcebPfWs/mGO79Dsbv7HfUFxyy9yppn2vUb5C3sbNGighQsX6uyzzzYtoatYsaLmz5+vNm3amJa8rP5q9VsAAAAAAACUrnIR9IaFlfwyXC6XKeWnumLbd5AOJ2vVhpz01Jq2OUmRimsd4/3Tsldbvtzp3TdVg2CzIkZfpmbenXvLt8rv3+jqtO6ittb0zR/khMHbU5doq2IUd50Zzrt7p7ZaUzNXPaidazZoXcC2WTsyrJE6W/XtLvvsbHWqE/MCAID8WUGt9feic88917RIv/76q72vXbu2vc+PtX7vzz//bGo+VlvWVNDlxps9VSd7lKzf1n2+fFf/ndLetAvZmo9IV/qI5qbmM/rDx5TVUvPOf9hB7bNzfM+Q9/zmapNnGdrReujOrMmaa+r6Tl2lL9J817DjA731ZlfNnpQznbPvNd7WWysD73F5YK3nvGjRItWoEfrfNaOiouwvW7Zq1cq0AAAAAAAA4EQqF0Hvvffea0o+I0eO1Ouvvx7yZk0taI1CKUzV1h0UX8mtpA83mCmRD2n10mSp1p3qlD2q9qiy50v2H81bFDWa6i/tpR0LV2tThtVgpm1u30Wta9lneA+maZ21XzZFvfv2zbONTd7rPbhNv/j+XTZb1Uq5Rv8CAAD4yczMtINe/9lSrBDUcvz4cXufH+vLd1nn+svIsP9CU350yxklG7Blr5HbXHcndtXbveqYEDjvlMpSV0VfaIq2moq+XHr7u+9M3ceeotkEyS1zB73donWRKebxfZreVhNF1zF1my8Mzv0a5UXdunW1ZMkS1axZ+ErDlSpVUlJSkpo1s74CCQAAAAAAgJOhXAS9N9xwg6ZPn549KnfKlCn2Px61aNEipC0mJiaEEb1ekTGK7Rwp98KPfFMi71mtd5ZKdbq2VePsUDfKe54pFvvfNKurbacu0q539eGX3qqZtrntDU1zpl2uE22PDK7Tf762bP40321YU9/pAAAAobBCOivs/e23nDVRs6bktUb75sd6zE8//RQwEtiye/dunXfeeabmHDXvfMMEwGbK5XwD3+Cy1tat06tJ9vTOqXlG9Bbdd9+9bUrl0wUXXGCP7K1TJyChDlC1alUlJyfr6quvNi0AAAAAAAA4GcpF0Gu5+eab9fzzzys8PFwHDx6015D77LPPzNHSEqnYzneqjpm+ec+G97VCjdSrfX1z3FJdDf9kTWuYok3bfC0B0r6yR+JGNqyr/P/5y3u8RRvFV9qpxWu2mWmbO+jmFtZ0zEb1Gvbjd3y6NcgU0G6tGtVCsXGjtWKPaQIAAPA644woHT58xNTystZbtcydO1cff/yxvVnr7FreeOON7Lbc25tvvqkjR47YUzVntVlh3qFDh/SnP/3JfrwzNddjfoFvykemWW8r7XtTtP2stC+krhdZY3TXKuVJa2pn63FZ0zv7jofswmh11UalBfxFz/81yi8r5LXCXiv0zc360sA777yjRo0amZbCWf3V6rcAAAAAAAAoXeUm6LVYYe+MGTPssPf333+3w97//Oc/5mgp+VMrdazlVtL6j7RuZYrUqIOamWVzszRof6caa6f3WpK1w39Ub8YhrXj1BW1VbfW6vpB/3DKjh3es+KemWtM2x3VQq2rmmMV7vFOv2tKamZqXesg0Gptf1sQkt/ZEx6gxS/ICAAA/1aufrV/3WEs8BHf99dfb+6efflq33HKLvf373/+228aPH5/dlnsbMGCAfc7GjRuz2/r162e3OW8N1rV6KiJCt5r1dm0fpWikRqvNtabuNbJ1zgjfn+f8XT3f9F9z13sv0nIev3ZsHe9xUwlFnet1S7e31XNI1rrBWa/RVbdcV/jUyCebNTLcmsbZWrs3i7V+rxUAZ32ZIFRWf7X6LQAAAAAAAEpXuQp6LTfeeKNeeOGF7LC3R48e+vlnv3+kK6nwRup0R325l03R1KVS2zvaqp45lC36dk14oqW0crTi7h+teUs3aF1Ksibcf5MGJEkN+oxUv0IHMUQqtt1tityWohXbIhV/Q0z2jNA+kWrWb6R6Re9Uovd5e09M1oo1G7Q4cYji7p2p7ZVaaszgDjlTPQMAAHhdeEEdfffdD6aWV8uWLbOn3f3LX/6iIUOG2NtFZhSpFeBmtWVtWYFu5cqVs9vuvPNOu61ixYrq2rWrXS433uypOmbd3NybL9xtrse+my1lr9Hr3Vpv1OzvskbnWrpqdqL3fpnjvimas47nfXxLpWpHovc+PJkS4vTPNdXjtXSlXp5zrXV6yXsNb6hHQdPClCNWsGuN3r3ssstUvXp1u2yt41tUVn+1+i0AAAAAAABKl+vIkSMeUy5X3n33XfsfHTMyMrRgwQJdc8015kgpSFug+L+O1yZ10LRV49TWf6Stnz1rZmv8zNe1av1OHVQV1WnaSvG9BqtXS78pmHclq/eNo6UnFmpWnDXls5+MzZrasZcS9t2uGR8+rNjApNcnY69WzZ6sGXNTtGm3W6pUXY1b/00Dh/ZUM/+Ud/0UNbxntnq9zLq9AACczl58KVFhLpceuP8e05LXrFmz9Oijj9rhbkpKiipVqmSP6u3bt6+uvfZaJSUlmTN9Hn/8cf3zn//Ugw8+qEceecRuu/XWW7V69Wo9/PDDGjRokN12ytgxX7de9JZucVDo6mTPv/CyMj0e3XdvL9NSdqKimCIaKArr/28DAAAAAJyr3Aa9lhUrVui3337TbbfdZloAAABObxs+2agXEmZpTuKLpiWv9PR0ewrnb775xh7hO2fOHEVGRtptX331lWbOnKmOHTva51r1Nm3a2KN5P/nkE3s9XyvcffXVV9W8eXM7FLZmWjmlEPSeUHf2uk/39+2tmD83MS1lh6AXKBqCXgAAAABwtnId9JaGXn3u1foNn5jaqaVudLQW/TtwRA4AADj1/aXjbXo5YYr37wK+6ZiD2bNnj7p162YHuVdeeaU9avess86yl8moUqWKli9frj/84Q/29M7ffvutEhISVK9ePY0dO1YrV65UtPfvGYsXL9bZZ5+Ca6sS9J4w36Z9p3v6DtJ7i183LWWLoBcoGoJeAAAAAHA2gl4HI+gFAOD0NO35f8oV5tLggfeZluC8f89T//79tWTJErveqFEje81da+Ru/fr17bV833//fV188cX2NM/WbCoWKxi2Rv1mrfULFNfkqS/Kk+nRgAf+z7SULYJeoGgIegEAAADA2U75oBcAAOBUs3PXz+rWvbfeW/S6qlcvfMSttf7upEmTtH//ftMSnDV98+jRoxUfHy+Xy2VageLZu/c3/aXTbXrztVmqXaumaS1bBL1A0RD0AgAAAICzEfQCAAA40OSpM+y1eIc/Msi0FOz48eNKTU3VO++8o9WrV2vHjh3miFSrVi3dcsst6tWrF6N4UWrGPTNFERERGjywn2kpewS9QNEQ9AIAAACAsxH0AgAAONDRo0d1a4979OiwgWode41pBcqHD1d9rKcnTNUb818+oeErQS9QNAS9AAAAAOBsYWYPAAAAB7ECrWEPPaBR4yZqx45dphU4+az+aPVLq38SvAIAAAAAAJQdgl4AAACHatWyue7o0U1DHnlS+/YVvP4ucCJY/dDqj1a/tPonAAAAAAAAyg5BLwAAgIP97Y7bdE2LGPV7YCgje3FSWf3P6odWf7T6JQAAAAAAAMoWQS8AAIDD3XdvL7Vr21p/69PfXhsVONGsfmf1P6sfWv0RAAAAAAAAZc915MgRjykDAADAwVanrtWEZ5+3p8zt9393qXr1s80RoGzs3fubZvzzFbvvWWvynuzpmlkTGCiajIwMUwIAAAAAOBEjegEAAE4RVsj2xvyXFRERob90uk2Tp76ob9O+M0eB0mP1K6t/Wf3M6m9Wv2NNXgAAAAAAgBOLEb0AAACnoJ27flbSWwu1eOly1apVU82bXq0rLm+oiy66QOfUqK5Klc4wZwIFO3z4iH7ds1ffffeDPv9ii9au/492eftXxw7tFHdLZ9X29q/yghG9QNEwohcAAAAAnI2gFwAA4BS34ZON+uTTz7T1q6/1/Q877Ol2jxw5ao4CBTvjjCh7GvALL6ijBpddqj9fdaVi/tzEHC1fCHqBoiHoBQAAAABnI+gFAAAAcEog6AWKhqAXAAAAAJyNNXoBAAAAAAAAAAAAwGEIegEAAAAAAAAAAADAYQh6AQAAAAAAAAAAAMBhCHoBAAAAAAAAAAAAwGEIegEAAAAAAAAAAADAYQh6AQAAAAAAAAAAAMBhCHoBAAAAAAAAAAAAwGEIegEAAAAAAAAAAADAYQh6AQAAAAAAAAAAAMBhCHoBAAAAAAAAAAAAwGEIegEAAAAAAAAAAADAYQh6AQAAAAAAAAAAAMBhCHoBAAAAAAAAAAAAwGEIegEAAAAAAAAAAADAYQh6AQAAAAAAAAAAAMBhCHoBAAAAAAAAAAAAwGEIegEAAAAAAAAAAADAYQh6AQAAAAAAAAAAAMBhCHoBAAAAAAAAAAAAwGEIegEAAAAAAAAAAADAYQh6AQAAAAAAAAAAAMBhCHoBAAAAAAAAAAAAwGEIegEAAAAAAAAAAADAYQh6AQAAAAAAAAAAAMBhCHoBAAAAAAAAAAAAwGEIegEAAAAAAAAAAADAYQh6AQAAAAAAAAAAAMBhCHoBAAAAAAAAAAAAwGEIegEAAAAAAAAAAADAYQh6AQAAAAAAAAAAAMBhCHoBAAAAAAAAAAAAwGEIegEAAAAAAAAAAADAYQh6AQAAAAAAAAAAAMBhCHoBAAAAAAAAAAAAwGEIegEAAAAAAAAAAADAYQh6AQAAAAAAAAAAAMBhCHoBAAAAAAAAAAAAwGEIegEAAAAAAAAAAADAYQh6AQAAAAAAAAAAAMBhCHoBAAAAAAAAAAAAwGEIegEAAAAAAAAAAADAYQh6AQAAAAAAAAAAAMBhCHoBAAAAAAAAAAAAwGEIegEAAAAAAAAAAADAYQh6AQAAAAAAAAAAAMBhCHoBAAAAAAAAAAAAwGEIegEAAAAAAAAAAADAYQh6AQAAAAAAAAAAAMBhCHoBAAAAAAAAAAAAwGEIegEAAAAAAAAAAADAYQh6AQAAAAAAAAAAAMBhCHoBAAAAAAAAAAAAwGEIegEAAAAAAAAAAADAYQh6AQAAAAAAAAAAAMBhCHoBAAAAAAAAAAAAwGEIegEAAAAAAAAAAADAYQh6AQAAAAAAAAAAAMBhCHoBAAAAAAAAAAAAwGEIegEAAAAAAAAAAADAYQh6AQAAAAAAAAAAAMBhCHoBAAAAAAAAAAAAwGEIegEAAAAAAAAAAADAYQh6AQAAAAAAAAAAAMBhCHoBAAAAAAAAAAAAwGEIegEAAAAAAAAAAADAYQh6AQAAAAAAAAAAAMBhCHoBAAAAAAAAAAAAwGEIegEAAAAAAAAAAADAYQh6AQAAAAAAAAAAAMBhCHoBAAAAAAAAAAAAwGEIegEAAAAAAAAAAADAYQh6AQAAAAAAAAAAAMBhCHoBAAAAAAAAAAAAwGEIegEAAAAAAAAAAADAYQh6AQAAAAAAAAAAAMBhCHoBAAAAAAAAAAAAwGEIegEAAAAAAAAAAADAYQh6AQAAAAAAAAAAAMBhCHoBAAAAAAAAAAAAwGEIegEAAAAAAAAAAADAYQh6AQAAAAAAAAAAAMBhCHoBAAAAAAAAAAAAwGEIegEAAAAAAAAAAADAYQh6AQAAAAAAAAAAAMBhCHoBAAAAAAAAAAAAwGEIegEAAAAAAAAAAADAYQh6AQAAAAAAAAAAAMBhCHoBAAAAAAAAAAAAwGEIegEAAAAAAAAAAADAYQh6AQAAAAAAAAAAAMBhCHoBAAAAAAAAAAAAwGEIegEAAAAAAAAAAADAYQh6AQAAAAAAAAAAAMBhCHoBAAAAAAAAAAAAwGEIegEAAAAAAAAAAADAYQh6AQAAAAAAAAAAAMBhCHoBAAAAAAAAAAAAwGEIegEAAAAAAAAAAADAYQh6AQAAAAAAAAAAAMBhCHoBAAAAAAAAAAAAwGEIegEAAAAAAAAAAADAYQh6AQAAAAAAAAAAAMBhCHoBAAAAAAAAAAAAwGEIegEAAAAAAAAAAADAYQh6AQAAAAAAAAAAAMBhCHoBAAAAAAAAAAAAwGEIegEAAAAAAAAAAADAYQh6AQAAAAAAAAAAAMBhCHoBAAAAAAAAAAAAwGEIegEAAAAAAAAAAADAYQh6AQAAAAAAAAAAAMBhCHoBAAAAAAAAAAAAwGEIegEAAAAAAAAAAADAYQh6AQAAAAAAAAAAAMBhCHoBAAAAAAAAAAAAwGEIegEAAAAAAAAAAADAYQh6AQAAAAAAAAAAAMBhCHoBAAAAAAAAAAAAwGEIegEAAAAAAAAAAADAYQh6AQAAAAAAAAAAAMBhCHoBAAAAAAAAAAAAwGEIegEAAAAAAAAAAADAYQh6AQAAAAAAAAAAAMBhCHoBAAAAAAAAAAAAwGEIegEAAAAAAAAAAADAYQh6AQAAAAAAAAAAAMBhCHoBAAAAAAAAAAAAwGEIegEAAAAAAAAAAADAYQh6AQAAAAAAAAAAAMBhCHoBAAAAAAAAAAAAwGEIegEAAAAAAAAAAADAYQh6AQAAAAAAAAAAAMBhCHoBAAAAAAAAAAAAwGEIegEAAAAAAAAAAADAYQh6AQAAAAAAAAAAAMBhCHoBAAAAAAAAAAAAwGEIegEAAAAAAAAAAADAYQh6AQAAAAAAAAAAAMBhCHoBAAAAAAAAAAAAwGEIegEAAAAAAAAAAADAYQh6AQAAAAAAAAAAAMBhCHoBAAAAAAAAAAAAwGEIegEAAAAAAAAAAADAYQh6AQAAAAAAAAAAAMBhCHoBAAAAAAAAAAAAwGEIegEAAAAAAAAAAADAYQh6AQAAAAAAAAAAAMBhCHoBAAAAAAAAAAAAwGEIegEAAAAAAAAAAADAYQh6AQAAAAAAAAAAAMBhCHoBAAAAAAAAAAAAwGEIegHkSM+Q638H5NqzT/r9iGkEAAAAAAAAAABAeeM6cuSIx5QBnKbCvtyu8H/MV/i7H5sWn4ybWyv9yX7ynH2WaQEAACi/oqKiTAlAKDIyMkwJAAAAAOBEBL3AaS5sxTpVvGeUqUmeBtHyRFZU2KZtvnrN6jo29yl56v3RrgMAAJRXBL1A0RD0AgAAAICzEfQCpzHXz3sU2eZe6fBRZTZvpOPPDZGnZg37WNgX/1XEI9PsveeiWnKvfNluBwAAKK8IeoGiIegFAAAAAGdjjV7gNBY+b6kd8nouvVDHEkdlh7yWzMsv1vFXx8hzzh/k+m6XXP/90RwBAAAAAAAAAADAyUbQC5zGwpettffHH+ktRUXaZX/W2rwZPTvZZdfOX+w9AAAAAAAAAAAATj6CXuB0dcQt11dpdtHz54b2PpjMBtH23nX4qL0HAAAAAAAAAADAyUfQC5ymwr7cbu89F9SU58wqdjkY165f7b0nqqK9BwAAAAAAAAAAwMlH0Aucplyff2PvM6+4xN7nJ/yjTb7CuWf79gAAAAAAAAAAADjpCHqB01TYZl/Q67niYnsfjOt/BxS2Yq33ZJcyo2ubVgAAAAAAAAAAAJxsBL3AaSrs8//a+8zL8w96w99Y7j3Bo8zYq6VKUaYVAAAAAAAAAAAAJxtBL+BQYZ99rYiEN1Xh7+NV8faHVeHeMQr/90pztBCHj8r13x/sYmajS+19MHbQ65Vxe3t7DwAAAAAAAAAAgPLBdeTIEY8pA3AA1979ipiQqPAF75mWQBntW+j45IekKpVMS15hG75UxVuHynPh+XJ/ONO0BgrbtE0VuwyS56wqcn/2umkFAAAov6KimIEEKIqMjAxTAgAAAAA4ESN6AQcJW7NZFdv1s0Nez5mVlXHHTTo+aZCOzX9G6Q90l6IiFb5sjSr2fsI8IjjX5771eUMZzZsZ19beAwAAAAAAAAAAoPwg6AWc4PcjqvD4dFXs8Yhcv+1XZsO6OvbOVB0f94AyurVTZotGSh/yNx1bMF6KrGiP2A1Pet88OK+wL3zr83quuMTe53HUrfB3fNNApzNtMwAAAAAAAAAAQLlD0AuUc2GrPlVk234Kn71YOrOyjj8zQMeWPC/PRbXMGTkyr7xU6X/vbpfDF6+298GEfWZG9F5xsb3PLXzJR9LBw8q8/GJ56l9kWgEAAAAAAAAAAFBesEYvUF4d+F0VRr+k8DfNFMrX/VnHJw6S55w/2PX8uP53QJFNukuVz9DRL5NMq5/fjyjqT3F28egXbwZdy7di/KMK+/gzHR99nzL+1tm0lg8Rz7+msNUbTS2v4+MHBg3BUbjwdz9W+Kx/m1oOT8O6Ov5EX1NDWQqfvUjhi4J/SeP4S4/ba2YDAPLHGr1A0bBGLwAAAAA4GyN6gXIoLGW9Iq+/xxfyVoqyp2g+lji60JDX4vnDmfLUPtcOdF3bfzStObKnbbbC0CAhr2vHbjvkVYUIZXRpY1rLD9c3Pyhs3ef5bq7DR82ZKLJdvwS/p6bPoOy50nYG/QysTceOm7MAAAAAAAAAACDoBcqdCg89q4p3PynX3v3KvOoyud99QRl33GSOhiZrSuawzb4pmv2FfbHd3mc2Cr4+b/gbvhHEGTdea08VDQAAAAAAAAAAgPKHoBcoRyr0HaPwpPft0bTpD/fWsTefleeCmuZo6DxX+ELcYEGv67Nt9t5zeZCg1+NR+Gvv2sWMW9vZe5w+XL/nMxq68hmmAAAAAAAAAAAAyguCXqCcsKZrDn9vjT1V87H5zyj9vlu9jS5ztGgyL/eN6M0Kdf1lTd2c2ch3jj9r7VvX7t/kOe9sZbZqYlrLGVfx7gkK5/rhJ1MKFMqU4Sgl9G8AAAAAAAAAQIgIeoFyImLWv+19+pC7lPnnhna5MK7f9qvi30bY0zz78zSpb+/DtqbZ+2wHD8v17U67mGlG/fqz1wT2yuh+I4HTaSjs/fWmFMhz8R9NCWWOnzsAAAAAAAAAQIgIeoFywvXZ1/Y+46Zr7X1hwj7Zoood+its1acKW7LatPp4zqwizx9rSkfccvmFvWFbfOvzeurWzjMdr+vA7wp/50O7nNGtrb0vlzweU0BpCp+9yP7iQDAZN7c2JZS5zExTAAAAAAAAAACgYAS9QDlhBa22sMJ/LMP/layK3YbY0yzb9YWr7L2/zMvr2fusqZotWWv2BhvNG/bvlfY+85orfSExThuubd+pwvhEUwuUed2f5Tn/HFMDAAAAAAAAAADlBUEvUE546l9k78NWfmLvgzrqVoUHnlGF0S/Z1YweN0qRFRW2/gu5ft5rt2XxmDA3zG+dXpcJej2NLrX3/sIXvGfvM25rb+/LLaa2LVVhX25Xxe6PSIcOm5ZA6UPvMiWcECF80QMAAAAAAAAAAAv/ogyUExnXx9j7iOkL5PrFN1LXn+v7nxTZZbDCF62SzojU8X88rONPD1BGu+b28fAlqfY+S+blF9t712e+cNcS9nnWiF7fsSzWiE575G/VSsroENrU0ThxXAcO2V8AsPpGxHNzA7dp8xW2Yp1c+w+Zs0NjTfld4e/jVbHj3+X63wHTGij94d7K/JNvZHhZc339vcKWr1X468sUMeMNRSS8qfA3lvvem1lXuiy4dv6i8MWrFTHxFVV46Fl7zesK/caqwpMzfNfwzof2tZ0wfJEBAAAAAAAAABAi15EjR1jwEigHXPsOqmLbvnLt2SfPeWcr/ZG7ldG1jVxpOxX+3seKeOF16cDv9sjfYy8+Jk/dOvbjwpetUYV7xyizcX0dS55it1ms4C/yytvs8tHvltiPjWp0q6++5S2pUpRdtkSMeUkRM5OVccdNOj7uAdNaPlV4cKLCkz8wtbyOLXlemQ3rmlqOsE+/UsT4WaaWV/oTfYM+riAVhkyR68efTS2QFaanj/g/Uwtkh7YvvmFqeR2fNMiePtvqCxHPzFL4m8vNkYKl3/1XpQ+5K+CzzS3i2VcV8fLb9vrNhclsdoUphSa9b5wy2zQ1tcLZwe6/Vyrs48/yXR84i6f2ucqMvcoecZ7Z5DLTWkyHDiti3rv2fQ01xLUC74x745Tx1+tMS9FEPP+awlZvNLX8WV/ocP28x9QCZV7lfd8VKpha/rL6T2n5/fff9dlnn+nHH3/UgQMHdOjQIVWqVElnn322atWqpYsvvljnnXeeObtgBw8e1K5du0wtUP369U2p6NLS0nTs2DFTy1GtWrWQru27776zr2vPnj3au3ev9u/fr8qVK6t69er2+zz33HPVsGFDczaA8iwqKv//BgLIKyMjw5QAAAAAAE5E0AuUI9YUzBV7PyH9fsS0BLKmaj7+RF8pKtK0+ERd0U06eFjujxLtQCxLZKu77SDSDsYyMuw1ej0XXyD3ihnmDJ/IxrfbQfOxhVODrt9bnhQ76F2xThXvGWVqeR2b/4wyWzQytdBEtr8v36DQWuv42LynTS2QNVK1wtCcUD4397vTFZa2SxWGec/xfq5FYX3+x/71ZPZU4LlVGDjBDlfLgj3C3JpOvBDhCz+0RyK7vvnBtBSN9TmlD+3lCz6LyBrVXuH+p/MN6AuT8ZcWSp84SJ4zq5iW0JTlfc/N6j+ey6JNrfg2btyo5cuX65tvcmYFyM/555+v2NhYtW3b1rQEt2HDBr30km/q+dzuvfdexcT4ZjYoCiuYfeSRR0wt0PXXX6/4+HhTy2vLli1666239P33hQf+Vmjcvn17tWvXzrQAKI8IeoGiIegFAAAAAGdj6magHMlserncC6cpo2Mrec6sbLd5qp9lB1vH3phoB2m5Q15LRvtr7L09rbOfzMt90+6GbfzKDnktuadtDn/3Yzvk9VxyQbkPeU8XEdNfV4X7xhU55LVYUxFHdhtif2mgPKrw6DR7yujihryWsDWbVfGWwQp/ZaFpCY39RYpuQ4sd8lrC31ujip0HyvXtDtNy6rFGto4cOVIvvPBCSCGv5aefftKCBQs0evRoe1RscaxaFfj7K1SrV682paKZM2eOpkyZElLIa9m3b59ef/11DRs2TLt37zatAAAAAAAAAHDyEPQC5Yynbm0dn/6o3JvfsKdcdv9nvm+0acyfzBl5ZXSOtfdh73xo77Nk/uUapfftpvQH77D3mdc2VqZZCziLtSaqJeP2v9h7nHzWiNcSOXhYFXuNtKcBLjd+P6KKPR5R+Px3TUPJVXjiRVV4/AVTK5gVLNuj5d15p/ctKuu+2oHx7rxraTvdF198oaeeesoObovDmt55zJgx+vbbb01L6L766iv9+uuvpha64gS948eP14cfFu/n7H//+58dEFtTWgMAAAAAAADAyUTQC5wCMltdZU8lG/bldrm2/2hapYwu1yv90bt9Qa93f2zuU8q4ubU5Krn+d0BhKzd4fxO4lBF3g2k9RXkKmaW+sONFVdDzlfZrBXP4qCr2HWsqfsrytQt47or/N9oeiVvawmcvsteYLow1dXJ+U6IXh7WmcIX7gtzf/JyIzzxLMV/ql19+0YwZM+R2F75+c0EOHz6sZ599tlih7cqVRZveetOmTfa6wUWxbNky/fe//zW1vM466yzVrVvXXp83P9Z00daIYAAAAAAAAAA4mQh6gVNBeJg89S/0FZd+ZO9DEf72B1KmR5mXXyzPH840racol8sU8lHY8aIq6PlK+7Xy4foqzfsZp5iaUZavnc9zW+sqh338mamVvoiZyQVO42xNTx62pYARppEV7RHtx5/6u469OlbHn31I6QN6yFMz/6DPEvbpVwpPWmFqhThBn7mtmC9VUMjbuHFj9e7dW48//rimT59uB7nDhw+318AN5tixY5o9e7aphe6jj0L//WUpznTPS5YsMaVAzZs3t0f6Tpo0SY8++qieeeYZTZs2TR07djRnBPrkk0+KPU01AAAAAAAAAJQGgl7gFGCtFxq24Us7TMr4i2+93lBkxjS092Gf/7dE65Y6QmHhV2nncAUFe0V8LWu67fT+t+v4s4PtabyPzRqljBtD+5wjXnzDlHzS/95dx17zPkeuLaNrG3NGcMcSRwd9nP+WeUNTc3aO8H+vVHjyB6aWv8zr/qzjYx+w16J2f/a6b8ryBeN1fOS9yvyTb63pgljTOOe37m9YrrWrc7NfZ/xAZcR3UGbsVfbo9vTBPeVeO9seDV+Q8H/925QKcUKD3qK/1saNG+1pl4O544471L9/f11zzTW64IILVLFiRZ155pm66KKLFB8fryeeeEKVKlUyZ+fYunVryGv8ZrGmQ96wYYOpFcwaVfv555+bWmi+/PLLoFMut27dWn369NHZZ59tWnzOOOMMdenSRQMHDjQtgawRxQAAAAAAAABwshD0AqeArDAvs11zeS65wC6HIvOKS+x1e61pZSNeSjKtKDcqn2GHutaWPvQuZcS1VWaLRnbwe3zGCB1bNE2ecwODqdxcX38v1897Tc37UV98gTKbe58j1+apfa45Izhrjehgj/Pf8lzLUbcinv6XqQRnjSQ/NnucHSRn3HmT/Tqes6rIU/0sZTa7Qhl3d9Gxxf/Q8TH3m0fkr8K4l00pUJjfdOa52fezcX1Ty8sKeq0p0PPj+mmPdKDwtVqPPzfUXnO7sC39/24xj8jLvWFu0Mfk3jz1LzKPCN3y5ctNKVBsbKyuu+46UwuuTp06uu+++0wtUEpKrhHlIQh17dzijOa1wuFgCnuPl19+uT2qObfvv//elAAAAAAAAADgxCPoBRzO9ctvCn/DF9Kk97vV3hdF+v232fvwN1bIte+gXUY5EBVpB6BWqJsfa8rtY/OeMrX8ha0t/bVxQxHxykK5fs5/altramQrxM1s1cS05C+jZycde2uyPc1yfsJWfuIb2Z7b3v2mEEQI69laI31tVSsps2UTe3T1sZefkHvtq3J/Ol86s7LvuENZa/MGG3lbrVo13XpraL9TLrvsMjVo0MDUclijeotq27Zt2r17t6nlrzhBrzWldDCeENZQ7tGjh4YMGRKwtW/f3hwFAAAAAAAAgBOPoBdwuPBZvqljreltM6+6zC4XhTWi11Pvj/boy/DZi03rKaiwHCeEwK9ICgqOQngta+rgUD5Pa4RuRo8bTS041/c/mVIJhBCE5Rb2TsEjM4/9a5Q8tc4xtcJZ9+P4MwNMLbjwhUHCv6gCwuG1mxX+2rumFlxm08vl/uCfOvr5mzo2Z5w9ujqzbTN5atYwZ5SiYtznkrKmMw7mhhtuUFRUlKkV7tprrzWlHNY0yfmNos1St25dU8pRWIhrTTV96NAhU/O55JJLTCl/VapUMaVAb7/9tinlz5rWuX79+gHbH//o/d0JAAAAAAAAACcJQS/gZIePKmLuEruY0ftme18c6ff7Ru2F/yvZ3uMkq3yG0u/Nfwrf3DI6xZpScK7fChjRWkZcu35V2JfbTS0va5Ssp2HegK8w1lrCBa3ZG7bsY1PK4YmubUrBVXhkmiJvekAR//q3wjZ+ZVoDFfYcTpbfqNuYmPxHkwfTrFkz/fOf/8yzVa9e3ZwR3IUXXqiLL77Y1HxWr15tSsHlnt7ZCqStNYQLk/t1slhr/Y4dOzbf0BsAAAAAAAAAyiOCXsDBIl57z14f1HP2Wcr4a/7riBbGeqy1JqrrfwcU/voy03qKcZl9fgo7XlSuAp6wkNfKaNPUlEJT0BqzthDWkC1UQe8niLC1n5tScOk9O5lS0WXccZMp5WWtR+z68WdT88m4qaUp5c+15VtFjE5Qxa6DFXXRTap4y2BFjHlJ4UtS7dD6hCnifS4Nv/32mynlqFq1aqEBbWlq3bq1KfkcOXJE69atM7VAe/bsyRPIWiFvxYr5j9zOUqNGjaBr7Vqs9Xafe+453X///Zo4caJee+01paam6scf81/jGQAAAAAAAABOJoJewKkyPQp/6U27mHFPV6lChF3OLeyL/9rT01qbFWYFFRGujLt8I4IjZvie85RT2Iy4pT1jbgmmbvbUq2NKIap8hjxnBp+S1paZaQolUMQphV0/5D9dtOfcs+VpEG1qRZfZ+mpTCi73VNUZt/9FngvPN7XQhH36lSJmJqvC/U8p8pq77K3CqAS5vttlzigjJ2Hq5qNHj5pSjnPOCX1K7dJw9dVXq1KlSqbmk9/0zcHacwfFBbnrrrsKDLGPHz+ur7/+Wu+//75eeeUVjR49WgMHDtSLL76oTz75xJwFAAAAAAAAACcfQS/gUOGLVtmjF+1pfu/saFoDRSS8qYqdBqhi90fszZqeNjxphTkaKKOn7zlc3+5Q2ErCjJAccZtC6fLUv9CUiqBCuCmUD659B00pL0/Nko0U9dQ+15SCC/bax//xiCkVjzWq11oPO/K6e1Rh2HP26PdThTV6NrczzjjDlE6MChUq5Jl62Qpbf/45cHS25aOPPjIln3r16qlWrVqmVjhrnd5hw4bpvPPOMy2FO3z4sD799FMlJCTokUce0ebNm80RAAAAAAAAADh5CHoBhwp/5R17b4e8Z1a2y3lkBBnJGazNy/OHM7PD3ohXFtp7FOJgKUyJHESBo3Odwn3MFIKomk9/LYpKUaYQxNG8AXxmo0t0bOYTBT8uRNb05pGt+yh82RrT4myRkZGmlOPYsQI+vzISbFRu7rV4rbD1wIHAkL0oo3mznH322Xr88cfVsWPHPCOJC7N371794x//0Dvv+H4HAwAAAAAAAMDJQtALOFTYf7ba+4yu+a/Nm97v1oBpbjM6xSrjtvam5n2Oz742JZ+MrjfYe9fGr+x9qTvqVtgnWxT+xnLTUAxBQjx/nlII8kJyxF3gqNUSOcv5Qa/nrKqmFERp3LfDeacbzpZPUJ55QzO530/w9vM2pqUEDvyuCveOUdga54/srFw5b/AebJRvWatZs6YuvfRSU/PJPXo3d/BrhbR//vOfTa1orIC7S5cumjp1qj3C1wp9L7nkkqDBdzALFy7U1q2+38MAAAAAAAAAcDIQ9AJO5D9a0i/UClu+VlEXd1b4m8ul4+neBpfSH7zDHJXSh/zNVzjiVvi/klXxrw8qbMOXvjYvz1m+wKe0AkxrnVNrutsKD01WZIf+irqsqyp2G6IKQ6cUHNQVwPXTHlMKznPOH0wpF5fZ56eQADm3sG9+MKV8uAp4wUKuxZPPessFKvD1CnvzISjqc5x7tink5dr5iykVj2v7j6YUXL59wMtz/jk6PmWI3Kv+pfS/d1fGTS1LtF5whdEJplRKSuOzKqKqVfOG8rt37zalEys2NtaUfKzAed26dXZ5z5492rJli13OYk33bE37bHGV4N5ZAa8V+lqB7/PPP6+nn35a999/v9q2basaNWqYs/J67733TAkAAAAAAAAATjyCXsCJIivKY0Z9+o/K9TS9XJkN66rCkCmKuuRmRV10kyp2HWyOeh923T12W1SDrqow+iVlXttYmVdcbI56n+vLb+19YWughiJixhuqeMtgVRiVYK8L7NqaZo74hK/eaEpFcMSdZxRyAO99sdYsDiqs4F93rt/2m1JowtYWMpLT4zGFIAo4ZCvosfkp8PWK8Xy5uDIyTCk0nupnmVJe1hcJXFt8fa04wj7aZErBeapXM6X8eS6oqfSH/qbjLzwm99LpOrr1bR2b/4zSH71bme2ay3N2/tfvz+rXrq8C+3ZJpA+/R0e/WxJ0KyjALok6deqYUo7jx4/ru+++M7XQWOvYbtu2Lc/mdof+JYpmzZrlGWG8atWqgL2/Vq1amZLVzUvez7NY4W6TJk10++2326HvbbfdZo4E+vLLL4v0/gAAAAAAAACgNBH0Ag6VeYtvmmVrZG4WK/w9lvycHV5l3P4XZbZopIxb2ujYW5N17JUxyuhwrR3uZtx5k47NGqVjc5+SonKmKY2YNt/eZ3Qu+pqXuWX++U+mFFx44r9NKXTh//7AlILL/FNdUwqioKmEvcI++8aUQhO2KG/oFKDAEbZmn5/ijEws8PVCeL7CRhH/+j9TCE1msytMKbiIN1eYUtFFvLLIlPKyRuxaIW6RnRFp/7yk9+2mY/8cKfen8+V+7wVl9LrZnJA/a+S6k118cc6XPfytWVO0NYhXrFihSZMm5dkyM4OvC56fa6+91pR8vv76a+3cuVOpqammxccahVurVi1TK92gN7d27drpuuuuM7VAv/xSshHqAAAAAAAAAFBcBL2AQ6UPjJfnzCr21Mvh85aaVq8wlz0d7fHxA+0RiscnD1HmVZfZa/Uef3G4He4eH/uAMq+PMQ/wiXhmllz//UE6s7LS7w8+eq0oMv/c0JSCs9Y2DXvfNyVrSA4eVsRz80wluMzrm5pSXp5qBQe94ckp9rqroQhfmqqwzUULhss7j/dzL4jrx6JN5eupWV2ZV1xianlZX1AozqjeiLH/LHDq5sz2zU2pAIcOK2zd574pzgvgqX+Rjj/Zz/45Kojr54KnEy/v8gt6rWD1t99+M7XCBRtxe9555+mMM/IZZZ+P3NM3WxISEnTwYOCU8q1bB34hJayQUfuWd955J88W6nts3LixKQX6/ffQfm8AAAAAAAAAQGkj6AUcygou08f1t8sVHvuHHZwWV3jiO/ZUy5b0B3rYYW9pyOh+oykFV/GBZwqfAtmo8PBzhQZqmdf/2ZTy8tStHTB6OY8Dv6vCo9NMJX/W+rIRDxd+XsFTKZt9foozMrHA1wvh+Qr5zCP8v0wQosxOOdPqBhN561CFffgfUytcxL/+rYiX3za14DI65QoJvZ9rWOpGRSS8qQr9n/ZNX355N1W8/WF7inPX7sJDPmukb1lNm1weVKpUKeho1WPHjmnGjBk6erTw9bTnzJmj/fvzTn/evHkIwXsuVjh82WWXmZrPTz/9ZEo+1vTO1jTP/kIZ0bt69WotXLgwYLPaQmGNKg7mrLNCm+YbAAAAAAAAAEobQS/gYNYUy1lTy1boNzbkEan+XAcOqcL4WXY5M/Yqpd97i10uDYU+1xG3KnZ/RBFP/8s05OXa9p0q9hml8CWB07bmZk0VnHl58JGJWTKbFjKd9OLVqnDfOLl+3utryMUaPV0x/lH7nhXKYVM3e+rmXafVX9iyNYqYMsf+zAJ46+Hz31XFmx6Q69sdptEn/a7O8px3tqkF8fsRVbzrcUVMfEU6nH+Y6Pr1f6rw9/GKGJ1gWoLLvO7PyowJ/Iwr9n9KFe8cbvcx6/N1fbfLHPGJmFbwKHGLFQZb15Afz7nVTcm5brwx+Jcy0tLS7OmXd+0KvG9Zjhw5YoelH374oWnJUbFixXynOy5M7tG6ueWe3tniCqGfX3jhhaaU44MPPtCPP+Y/Stxy4MABLV+edwS4NVr5/PPPNzUAAAAAAAAAOLHCR4wY8aQpA3AgK9gKT1oh19793p/ocGVec6U5EhprlGTYyk/soM9es7diBXOkFPzhTHsEbFghU/SG/WeLIp6bq7BV/1HYJ1vs88M+2qSI8bNUYdKrcqUFH0nn7/i0h+WpdY6p5cMKJd9fbyrBhf33R3vUqOvHnxW2NU1haz9X2OqNipiQqIh/vCbX/hBCXi9rndiMON86yrlZ7y982VpTyyujZ0epRjVTC03ES0ly5ROWei6LVuaNeYMxf57za9ijXpWeYVrysqY7jvhXssI2blPYZ1/bn1mFEdO993SdLwitXi1wbd6ICOnss7zvteC1Xu3px+e/6+3D+3yjrqtWkuvQEYV9utV+XxWGPaewL7ebs/Nnra2r6oGjK61gN2zdF6aWV9jn39jX7rniYqly3imGXb/8pgr3jpZrd/Dw35Jx363y1D7X1JzJGtUbFRWlLVu2mJYc1kjdlStXavv27fY0xdb22Wef6d1339WsWbO0bds2c2agbt265RmZawXG//lP4Cju6OhoXXFF4JrO1tq7VgBrjSoOpnfv3qpSpYqp+YTy3BUqVNCGDRtMzef48eP2esTW+8xaT9h6bivctZ5z3bp1mj9/vvbuzdsHmjZtqiZNmpgagPIgwvpvD4CQleUa9wAAAACAsuc6cuQI/88OcLiIl95SxFMv2yNyj7061rSGpqI1fe6GL3V8TH9fwFjKXP87oMjWfYo12jhUVqB6/NmHTK1gkc3uDGm63pKyAvdj8542tUDhbyxXhaFTTC0v97vT7XC2KCKv7uEL+4PI+Ot1Oj51mKnlzxoVHv7ux6ZWdJ5LL5R72YumlqPCgxMVnvyBqZWN/Pqv65sfFNmun6kVzJ6iuda59ihk15599ghl64sHBbECXvdHiabmfM8995y+/PJLUyu+Bg0aaPDgwaaWwwpZX3rpJVPzuf766xUfH29qOd5880299957ppajfv36GjJkiKnlWL9+vf75z3+amk+w53722Wf11VdfmVrxWeH4mDFjdOaZZ5oWAOWB9aUVAKHLyMj/S34AAAAAgPKPqZuBU4DnfDN17L6Dvn0RuMxjrBGdZcHzhzN1LMQQtjg8Devq+FN/N7XCpQ/rbUrILaPfraZUPK6vv5dre94pcI8/N1SZLctu1GP6PV3z/ZKC55ILlHHjNaZWMGuda2t0fMQLryv89WWFhryW9L93N6VTw4MPPlisdXX91a1bV/37+9YPL4n8pm8ubFrnwtx77732OsAlERkZqYEDBxLyAgAAAAAAADipCHqBU4DrvyZcq/EH374IPNWq2vuwXOurlqbMds117KXHTa30WNMjH5v5hBRZ0bQUzhr9G2rwVyIOW6PXktm4vjJuaWNqxRO+OPhayscSRijjLy1MrfSk3xun9BH/Z2rBHZ80WJmNLjG10mNNU53RPfjatk7Wp08f9ezZU5UrVzYtobFCT2v07KOPPmoHoSV1zjnnqGHDhqbmY02pHBMTY2qBQlmj11K1alUNGzZMf/pTwWt256dmzZoaOnSoHWgDAAAAAAAAwMlE0AucAsJfX27vM2KvsvdFkRl7tb0Pfy3vFKmlKbN9Cx17Z6o8dUo2ki5L5nV/lnvRP+Q5v5B1eYNInzCoxMFfet9u8lx8gakFUdB6Z4VNmF+ctdIKfL3Qn+/45CHKbO3rE8UR/s6HppRL5TN0POFxHR99n2koGXuk+Ktjlf5YH9NSgCqVdGzu0/Z61qUls20zHZs1ytROPbGxsXrqqafUoUOHQke/XnnllbrvvvvsKZGtqZJLk3Ud/q69Nv+1pouyxqAVSlujlx977DE1a9bMtBbs/PPPt4Nsa7rmCy+80LQCAAAAAAAAwMnDGr2Aw1nTzVbs8Yhddm98zQ7AisK161dFXnOXXT62cKoyryj9kY8BDh5WhUmv2FPj6ojbNIbOCorTH7i95CMpva9dYfCzCl8afARqfjx/rKn04ffYo4Ij299nT1ccTOa1jXVs7lOmFij8zeWqMKSANXrfe0Ge+heZWmgi/xxvrysbTEaX6+3pk4vCWvPZWvu5qKzw2/3Oc1Kl/NdIdP3wsyKenum99x+ZlqLJ6NlJ6Q/1zB6NXhQVRjyv8DlLTK3o7M9/6F3KuLlk0wc7ze7du/XTTz/pwIEDOnjwoD3at3r16qpXr569Vu2pwHqPv/32m73t37/ffl9nn322/vCHP9j7oo5wBnBysEYvUDSs0QsAAAAAzkbQC+DkOHRYEa8vV9jyNXZYXaDKZyizeSNldLhGGd3amcbSEbbuc0VMm6+wjzaZluCsEcQZt9wQEPBZYa3rx59NLVDm5fWU/vi9phYobOUninjxDVPL6/jEQfa01EVR4d4xcu0/ZGqBrPVxi7OWrOvbHQqfs1jhb6Vkr+UclPX5tPB+Pje1KtLUz2Hrv7CfP+zjz/INqbN4Ljzf9z7u/qs89f5oWovH9d0uRbyyUGFrN8u1Nc205s8aNW4F9xmdY0s02hkAUPYIeoGiIegFAAAAAGcj6AVw8v1+RGGffS3XL7/JtXe/dNTtG5l89lny1D6n7EcZe7l+3quwJavlOvC7ryGyojznVJPn3OrKvLqBHWaezsJSNyrsky2mZnjvkbVObeZVl5mG4nN984MdwLr+d0Cu37x9wOWSx/r8zz5TnksvtEfSlomDhxW28SuFffFf6dhxX1ulM+Sp4f3sa1aXp2HdYo0cBgCcHAS9QNEQ9AIAAACAsxH0AgAAADglEPQCRUPQCwAAAADOFmb2AAAAAAAAAAAAAACHIOgFAAAAAAAAAAAAAIch6AUAAAAAAAAAAAAAhyHoBQAAAAAAAAAAAACHIegFAAAAAAAAAAAAAIch6AUAAAAAAAAAAAAAhyHoBQAAAAAAAAAAAACHIegFAAAAAAAAAAAAAIch6AUAAAAAAAAAAAAAhyHoBQAAAAAAAAAAAACHIegFAAAAAAAAAAAAAIch6AUAAAAAAAAAAAAAhyHoBQAAAAAAAAAAAACHIegFAAAAAAAAAAAAAIch6AUAAAAAAAAAAAAAhyHoBQAAAAAAAAAAAACHIegFTitpmnfnVWrYyLd1nrxBbnMEAAAAAAAAAAAAzkHQC5xONi9R4mZfMfK6kXpxYIwifVUAAAAAAAAAAAA4CEEvcALtWTokezRt9jYq9QSNqnVr1cI52mEVo3tqxjNdVCfcPlAMO5XU1+89TN5g2nHa2ZWs3n79ecJ60+5nz5rZGnpXOzXJOi+2s+JGpmiP99i6yTmPbdg32dc/ne7gNiWNnK1Nplr2NmhC1j30br2Tdpr2UJTjn+X87mMIfS5/JblXxcXvSwAAAAAAAABlg6AXOGF26sPkFFP2k5SsFVbiVdb2pOjNBW6pUkuNeXGQmlUy7UAZ2rNsuNr1naLFG/fmfKFh3059W62qapjqKSPjkLYmjVZcux56PHkP06IXF/cRAAAAAAAAAEJC0AucKLs2aNEaUw6Qovc27DXlMlSjg6Zt/lRb1k5TXC3TBpRUrS6aZfUrsw1ratpte/XhoqU5QV2Lh7Vso++8tf1j7KZmg3MeuyWhi+rYrc60I/khxY1K1tbDpuGEidGwrHvo3WbF1TbtzlTofSywzwEAAAAAAADA6YOgFzhBtq9M1jpTVq2e6hVnyl4rklefGlPWAgGOWjOG56hfN3u68EgWhwYAAAAAAAAAoEQIeoETIk3rlmw2ZalO15s08IbblZ11rUnWqjRTzrJnqQZkryXZQmNTg09guiOpb87ajzdO16aMIO2N+ippl689WyjrXB7cpsUTh6h9rO+cJu16aWzSNh00r1Eg89i4TrHZr9GweTt1vme4ElODjWD2XzvTXO/uVCU+3EuxzX3tzToN0YSlhbz+wTStSByu3tmv20KxcUP0+LxU7QnlcXF+a8naj+2rodOXautBc15RZOzVqjzPGav23UN4H/7WT/F7fJDP0uJO1ePZ51ylocsOmQM59qTO1tB7OquZOadZJ+97S0zR9qDvLffn4X0vk7M+C+97eHCKVlnXUWA/2qXtQUex5yh0jd6MQ9qeEnjd9hq/3tdP2pj/SPiD25ZqwoM9svuutTVpF6feD8/Wqt3mJH/eexxwHXtSNSFrXWHv6w2YmFrAlzF896r9KP+1V2dn35fsdWD9X8O75f2ZK+76sSE8riQ/y15F6zuBn6t9PeZnIb5dC1+7fU9z/1yFeB9D+d0V5HfH1KC/d/Iqct/JUsJ7DAAAAAAAAABFRdALnAhp67UoO+etrY4t6isy5lrFZa+Tu1lJqbmS3hqtdHMHU5ZbSR9uCLJW5U6tW5YTitTp2laNzYjJEtuVrH7temjo7BTt2Odrcu/erHmjeih20Bxt+s3XFpTfY7f+4Bc4Ht6r7euXasL97dR5crD3k2P7wuHq3G6AJizdrD1mCteDP6Qo8eEeip8a/LF7Vo5XXLs4DZi8VOuyX9etPd+kKOmZAYq9fojmfRPkkfb1msd947eWrP3YDVqcMNz7vL2UsLmgK87l8AZNuKWd+uV5zkPascX3PmIHJWtHKCHQ1TeoV/Z029YU4HmDPPca73s0ZamLOreuYspeGTu1YnicYu+fosXrdyorWzv4g/e9TR6izh3zuS/ZDmj5M/eqX2LWZ+F9D2uPSdXtg0H5gr6+SjR1W2JfE5zlE1bndnizEu729pUHA6/bWuN3a8psPX5XJ8UF6Qs7kryf9a3DlZiyLbvvWty707Ru6RT7s56wvoD3+1uKxvYZoMSsdYW9r7fa+3bPsQ86UEl+lkvcd7y+fVdDzc/Cpt3mXO89XTHb+3N15xStK+Wprt3rpwT93ZFg/d4Z570Hvqagit13SnKPAQAAAAAAAKCYCHqBE2D7mqXaZMqqdaNa/8m7j4xRbOec+Wu3zk3RVlP2qaJWHbqYsuRe+JHW5c4XAtb9ra/49vVNuYTcmzX1vtFalU8A4165QEnbTCWPNM0blvXYSHUct9y3lubGVZrRK9o+w7I98WUtyjfs26DE6Uu13dRy2544XUm5cnH3xunqPWBBweuj7kvR2J5Dc4WM/tdbW3GTFmqjWUd23RuDFJsVxh/23pPH52hrSKPz3Fo1ZYASzTU27p+oddZzblyjhU+0zB7J7V45XvP+YyoFCW+k9l1z1l21wv3AsMqtdR8mm7L3rt/eRs2yu5Zbm54foAELcw8Z92Pfl/H5ft7SNq1a6f/4KmrQv4tiy3T65Z1KeqSvpm4sKER0a+vMARqxzG+kZtoCDRuV6gtoK3XQxOVmLddV05TT/dKUOHNp/oHfttTAEfbV6mtg15zPzVFK9LNcGn3H219nT9fi/J4ibbamJhfw/EW1K1kDB8zO/3fHggVaYcp5FLfvlOgeAwAAAAAAAEDxEfQCZS5Nq9/2m7a5cysz6jZSse1uywmPdiVrWc5ptsgWbRSfHTQma+1npmzsWLM0Z93fRl3UKidHLZE9Ka8qwS97qdd5pJJW+UKPje9OUnxBr2ONVs16H40eVL/OZthneBXFdu+pZr6a1wZtL2honffONO4zTavsgDQwJLZGQK/6zH8a1jQlPTszJ9yp1Eh9XzCB7cY1Wvbc7apnDulwqsZOTdEeU9Wuz7Q8+763Uaf2tRVpRkVXrd9TI4a2UZ02XTRifKIWzrxTDUIZMb3vIy1cYALKSrerX69Gqmo9LjxS9br0VA/fES+3tv4Y2vS8DdrfpgamLOtz9w+r3Ru0aqkpe+9bXOuYnH6VlqwJM3M+zHqdx2nhBt9nue7l/mrs179mFBi4efvrE0kmBF+lpJ4Ff6mg2WDrvAT1MnVbrwRfcOZtj8seoRycO3WOxq7MCnl9fWFZ1nW/5hfAe+/h4ldXZH/2W5fNyf5SReMB96jjeaZSraXi/xZjKl5r0lTgna/UUmP+vcZ3vavmq1dD0x5UjIZ5z1v2hN/zq6dm2e/1U82KywnpT7QS/SyXWt/xfoJN+miGCU7XvdAz5+fRa5P3F5vv57Hk93HT2zP9AteC+k1exe07JbrHAAAAAAAAAFACBL1AWUtL1cLs0VyRahvTyJS9Aqbk3anEFf5rU3oFjPp1a36q//HAaZsb39Q0IDwpvkPatDLFlL1q9dGY0V3UoJqvGlmrjUY8N0iNfdW8GvbRMhPMbJnjF7AGUWDI2ehBjRnYUjXsgLSKYu/ur46+IzZ3xlFT8vIPl733OO6ZBA1saQLb8EjVafOwXvQLj9xLX9WyoLlUit7MtaZmnbhJWvbcSMV3aKR6NUIc01mtjSZm3YO1DweOfM0VFK/7PpQ5jL2iWyouu+sETt/s3vCRkrLCrUq3qV2LnBfcnprsN5rc+iw7qJ45XLWptz4gpz9uejs135GQqn+/hsZFZ4fgZcutde8v8I2stJi+UCfruhv21NABMapnB/DzteylnH7WoO9C3333bvMKTNi+0o4Cbn2D/oMUFx3i511ulexnudT6jhpp6JP9FWuC06ot/08Ds6el9/J+0H4/zSWwTesW+v1OaT9S03L1m6nPdPH+hgiueH2nhL8vAQAAAAAAAKAECHqBMrY9dUnOlMyVblPrq03ZEt5IrTvnjFJzv56iVdnpliVw1K/79VStywoh92zWh9nTNrfRHe1La9jYTm33GzkcdN3f6JYKeZZo9yHt+WazFs8brQH3Ts4ZgVyIyJgGgSFxtar5rpG6Y+t6v6lUb1OnVnmjnDqdeirOlANGBJ9XWw2yR/nt1OJRPdTs2naKf3i6kqx1OguYkjZkGW4d/GGbViRN19C7HtN801w00YrtmhNW50zf7Ju2Oavb1Ol5g5plf15u7fzWb87YFlfmGZFcr3Er1TFlbdugTbtNObcWl5XSFwlCsUvffmGKXnVaNc7z2vXiE7TQDuDrq04BozTdB/dq+8almjdqiO6emuuLFAVoVv9UGIZZkp/lUuw7lWLUMOB2VlHVrNGypWnfTv3XL7zv2L6VaphyFmuWhE6mXJjQ+k4p/74EAAAAAAAAgCIg6AXK1DatmJsTlkTe1tIvhPNp3OrGnLDkcLJWbQhIegNH/R5+XR+aNV33bHg/Z63J9jeoWe5Eo9gOaL9fWFK7RhVT8ldRVc82xWAy9mpT0hQN6BSrhjGxio3rpaHPJGvFD4fMCYVrXMdM+RyCnd/7hTAtolU7d9BiiYxUVVO0ZI8IDo9R/CO51l897L3+pTP1+IM91L75VWrWfbgSU/2nig5BxiFtT5mtoXe1U5MmLdSsUw8NGDVTizfuzQ5li6pO6y5qa8rZ0zdb0zYvzHrG2urYym/EuPboV/9Rq0kD1KTRVWrov3Wf7heSe58nnzWIm11YyFzLpWqPfvHLGIP3wQLs3qykiUPUPvYqNbm2nTrfNVxjk1K0Y585XqgY1cv+oXSykvwsl17f0ZW18wSuZeLwgZwp2b3OqRbk/eb6PZBHkftOKfy+BAAAAAAAAIBiIugFytKWVCX5hQDuxL6BQYm13TkzICyZt/AjHTQ1W8CoX7dWbLDmKN6rde/nTBcabOTaSXN4g6Z276T4UbNNsBupGk06qO8TCVr42sN+a/SWH3W6TNOqN0YqvmHwQPHglqWacH87NXswWTvyC7P8ZexU0kM3qfODU7KD3aoXtFHcI+OU9O60wHVri6JGU/2lvSlrg9Z+cShw2uZaXdTeP+ctssLWTS7/3OunK+6vvfT4bBPOVaquxh36aExCkpIe8V/7FaWLvgMAAAAAAAAAJxpBL1CGtq5O9gtxQ7R0iVb5D0vz8h/1u2Pham3a85lWLjMN6qLOrfMGlGdVLST63b0zZ/3NADV0rt80o5t2BBvJekwHfzPFXLYnT1fCNjPCtFJLjVm0RqteGaeBcTGqVy1wSuUGf8yZtrokal/oF8KsSdPOYGHsvoP61RQtNaqeZUo+Vet30YjXVmljSpJmPdFHHZvWzjPy72DKeCWuyRo9mz/3mjkam5I1ejlavRJWad2iSRoT30ENagXeg6KNlK2u2PY5i5sufn+1Vq/Pmba5wR1t1MCUfc7SWWatUFvPhOw1SPPbhjU1555UofTBYNKUNG2mtprgO/K6kVr20XLNG99fcS2iVTXg1l+mOidykLKlypk5o/eD8f5MfmuKpaMkP8sO7DvVawTc3293BXm/bnfgF2myFbfvlOz3JQAAAAAAAACUBEEvUFYyNmvZ2ztNpShS9N6GXGFBo7aKywoWdr2rpOlLtNhUI29vo2aB2aGtajX/oPeADubKJ7dv3ZAdEAaqpbqXm6KXe+n7Wpf7xLRULfObWjfHTm360BpxbMT1VNwFplyG6vzxMr+pl1/XotV539mO9xdk3zPvDVWTS4KP3o2sEa1mcf018eWFWrdxjZY9d7vf+rBubd+dK4UPYtP6BTn3tmlPxbcI/lrFUbV1B8VnrUm79AVNWJb1So0U1zL3urJVFH25Xwr1/nptCmVE8kmXuw+uznvd66er/V3DNTUpRVt/MPdg12da7tf9evToojrBpvE+UXJfc7Xq8v9qw8HDgf3U/c22kNewDk1JfpbLUd8J9XUja6ue3yWv8vab3F+0ca9J0SJTDlDsvlOSewwAAAAAAAAAJUPQC5SVL1drsd+0zXHT1gQdBWdvGxPV12904Yq5K7TdlH3qq+0dWQnGTiUlZU3bHKke7XKtL5slYPTgNk2dkqztVgCR4daOlPEaNs0v1QgQqWY33J7znLtma+zoZG01a1S605Zq6INT8hkNnMthd0CYvOez1IAgK3fQVWxX36R+2RmnW0mP9NXU1J1yWwGReb/3jcpZxzeyw9/UPut86/iWpZo3cbjiu88MDLPCI1WnTRu1MlVLZHiUKYVo/8HAQH3z+py1lb0OHD5mSiGKjFFs56xPZ6d2ZPWxRh3ULHfO61WvZRc1NmXtmqnHR+Z8ltq3TYkPdlb8w1M0b+k27ciaAvqky90Hvdf9TIp2mBvp3pWiseNmasfGpUoYNURxnQYETJGe5aDb/87v1Wdr/NZylvdzKaXul+Wc6v4x7npt+q935+1f2a9T6cyAKdaTprygVeazOLhlgYY+5vcFgVJRsp/lk9V3Cr2P+YpWq65+c5ev8f6em5qa3W8Orp+p3o/kjIAvSOh9pxR/XwIAAAAAAABAERH0AmVk0+p3/UaTdVDrxtlRQF4B6/B6bV6qdWmmbASELllq3an2V5tybvXqKzZr5KeXe+VodY65Sg2btFD7BxdkT1EaTGSLOzWihal4bV84WnGx3sc2ukpN/jpci3NdW47aaniV3/tImqKpa3xTGFshy4BROesKW3bsLXx0bEjC66vX8J45I28Pb1bC/Z3VpEnO+80Oziu11IiBbbIDtz3ve+9L9+EaO3upNm2Z7gsUs+5NxiFtTUrOCWYrdVC3ltVNJX8NL8+ZXlnbXtDEJN/Ibjv0edx/TWZp669FvQeRim13W06wZDTr2tJv5LGf6C7qF5dztv9n2TC2hyak7NSmpbM19uEe6uz9fErpEymxyJbePnid33UvGKL2Vv+1+uCNQzTPrw/W6XWPOllflKjVQM39vjBhBanrrHl6vZ/juoSHNCJ7unPLTv0a6ozQIYo8q7rf57JNU2/19b/mM8yXKqpFq4n/Gspps9XPfBbNuo/XiqwQtRQV/2fZ6yT1nULvYwHqdemvXtl9wK1NMwdk95tm90zXpvx+75Wg75ToHgMAAAAAAABACRD0AmUhY7M+XOg3bXOHG9TMf73LIPzX4ZU2Kyk1VzoQ3VSd/EMirzqdW6lxftOLRrZUr6H5jPb1qtqmj3rlt6ZmeG3FjZum+CAjRG2VvM/d029dXD8Neo5Ur+zHpSmxb6xfyFJFVf3uw6bvgwzDLKbIpoM0a9rtauAXbudRrY3GvD4tZxpsrxrtR2pW/0bZ98kOFJubMKtJrOJGLfUFs5Xqq++0kWpbyNLHlqo33K8x2SGlW6tGdfYLfSK998DvU9m2s+jrOF99g1+YZWmjbq39R0H6i1Ts0Hka5heaBhPZpL9mPZETgJ983j74TIIGNin4uqu2eVgv9osxn1999RrtF/inzVbva32fY+/pm+Wu5u1/5pD1M7a9yDe+EA2bqkfA5+LjPpY1/DNacQP8ri+XyPren8kuplJaSvCzfNL6TqH3sQCVYjTwH4MCvuQSILpnPve4BH2nRPcYAAAAAAAAAIqPoBcoC/95X4l+GWbb6670Cwny4b8Or9fWuUtyrYkZrdiu/mFBbcVdnyv5zaVO3DQtTxikjk2yRshVUZ2mHTTsuSSteLaL6hW0BmWNlhrx1nLN6NtG9c7zPTryvGi17TlOScunKb6u3ZRXpRgNmzNfY26PUR0T6voeN1Lzlq/SqtE5KYv79RStCmUe1RDVuO5h77UladojXdT2kqz3HKkal7RRrycSteqDSUHWDI5U476JWvtuosb07aBm2Y+zWI+NUce+1nuer4FNCw68slnBz5RFAfdO1WqrWYdBmvbv5Vr3yv1q4GuV1iRrVVFH/IU3UvuufsFu+xvUrKCUrVK0ek1ZroXPeftC09o5fbFSddUz/WHVv/qocUEh+clQqZH6/ivIdXvvZYM2XTTihYVa9eztqud33VbgP++NkYrPPt//81+uiXF2o5db85enlu5UyZHevv/KNPVtk3OtVS/w9p8Lzsx+Hev63kwap17Z5+Rc3/LX+qt1IV8IKZbi/ixbTkbfCeE+FiTykp6a4f159f8dZD9+8DStemtQvve4RH2nJPcYAAAAAAAAAIrJdeTIEY8pAyjnts/rpc7PmOlL6w/SwjfyHx0IAABwuomKKuJa+sBpLiMj4JulAAAAAACHYUQvUJ75/bvLwS2zNXFazhqVjfNbkxUAAAAAAAAAAACnPEb0AuXZ7mT1azdaq0w1RxtNTJmkjuVnQVUAAICTjhG9QNEwohcAAAAAnI0RvUB5dl5t5V3aMVKxTwwi5AUAAAAAAAAAADiNEfQC5VqkzrqgSna5RpMOGvbCIs2Iq23aAAAAAAAAAAAAcDpi6mYAAAAApwSmbgaKhqmbAQAAAMDZGNELAAAAAAAAAAAAAA5D0AsAAAAAAAAAAAAADkPQCwAAAAAAAAAAAAAOQ9ALAAAAAAAAAAAAAA5D0AsAAAAAAAAAAAAADkPQCwAAAAAAAAAAAAAOQ9ALAAAAAAAAAAAAAA5D0AsAAAAAAAAAAAAADkPQCwAAAAAAAAAAAAAOQ9ALAAAAAAAAAAAAAA5D0AsAAAAAAAAAAAAADkPQCwAAAAAAAAAAAAAOQ9ALAAAAAAAAAAAAAA5D0AsAAAAAAAAAAAAADkPQCwAAAAAAAAAAAAAOQ9ALAAAAAAAAAAAAAA5D0AugdO1KVu9GV6lhCNuE9eYx2qmkvt62vsnaYVrWTbbO6aukXaahPDPvuXfSTtNQ/vnu7xStM/WytUETrM988gZTLw2mz4T4Hk7o+804pK1Js7XCv++un2L3+dx9ZMfS8Ypv18I+1jB2ujblc97JEcI9dqdqbHPvOc0HOONnFQAAAAAAAABOIQS9AMpGrZaK79tHfQvYrjrHnAucQnYkP6S4Uanab+r52jZb9z28QFtr3amJCQma9XwXNTCHnGJPSrLmHY5U3DMTFVfLNAIAAAAAAAAATgiCXgBl48I26tW/vwYWsLWNNucG0Wzwp9qyOYHwCPmorbgEq48MUjPTUq41HeS91k81K662aZAOfv+Vtnv3Pfr1V8cWMWrWqLYig5x38hR2j9O0bG6K6vWaphHXRZo2AAAAAAAAAMCJQtALAMBJsP/gHl8h3LdznmjFz/lUCwfHiJgXAAAAAAAAAE48gl4A5VJ+a/TuSJmiAZ1i7XVMm7TrpbFJ23RwjW9d05w1f42D27R44hC1j7Wey3f+0MQN2pNhjodgT+psDb2rnZpYa6g2ilX7B6do8Tduc7SIzFq+E9a7tX1p7veRJutZD25ckPN6sT00dN5muz2Q23sfpmtAXK7r2nbIHPeTsVfrEoebdWBbKPb+6Vpn8sVg9mxeoLH3dFYz+3m95981XImpe83REOzZoMSHeynWXre1nfpNL/h+F//+5rN+bBHf78FtSzXhwVzvd02u95v9uVnX673v5nNrGNtZA6an+r0/3zW1H2WtRbxBj9/od30Ba+/61iz2nScl3mOdZ/pvfmv05urLzToN0YSlvj7jz76f98T57r/3POsz6JzfPS30OfNbozfE/me/F+tn2FqzOGct4uyf2yL8HAIAAAAAAAAA8iLoBeAQbm2a3kOdH5ytdbW7asxzCZrYr4G2TOyh+GdSzTl+diVrQMceGpq0U5fdPU6zEiZpRPtIrZrcV+0GJWtHoSGTW+um9lC7+6doVdRNGuF9vVnj/0+X7XxdQ+Pi7bC2uLbOGapuT3+lOr2f1KznHlanats0b1S8RjwzXvH3LdVZNz+qGc+NVHz0d1r8TF+NWOYfPHqva3K82j84RzujuwRe1613aegy/4Bwp5IGdVLvySnSDQ9rWsI0PfynzRrQabQW7TOn+NmRNEDt7hyvheExGjje+7zWtUWt1oT7Oyk+IVjgnIv3nvfr1FcTPpTaD52kWVMGq8Hmh9Ru7FIdNKfkKIv7W8T3mzxEbW8drvk76+s+//fbt5P65Q5avbbO8d6fxzb7PreEcRrWtIpWJ1htKfJlyTXUrL+3X/as7y3XV69x3udM6KKG9jF/DRSXkHWe1HawdV6C4i61q3lZ97Wdf18ep/suTlPiw/GKT9xmTvJeX6Lvfn5VpY0GPmU95ySN6XmlKq6draE9R2uFf+Ad4nPmVZT+Zzmg5c/cpfjXflX7wdO893iketT91tvfvT+3Lxf0OgAAAAAAAACAwhD0Aigba0arvT3aL59tsm80Y8jSkjUhYZvO6ZmgVQmDFNcmRm3jHta8t0aq9u40c1KWvVoxdbxW7IvRmLfma1qvDmrWoo3ihlqP7alzVo7WsAW5H5PLljkaOzPw9Zp16Klpr72pMS3SlDjgOa0qZta7bn1VjX0rQcPi2qhZm9s1ZsL9aiC3Fs/bqrj5iRpht3fRiJcmKs5qf/+z7KDUnfqc+iWm2euizpvU3++65mlYozQtHvlCdqDnTvW+h5VuNXviTc17pIvatohRx/7e9zOlqtYl+87JlrZAw0alSteNVNILIxXfwfu83msY9sISTYuTNk0fpcQt5tyg3Fo1a7xWHbbuuXkPLTpoYMJyzai0QUnmrGxlcH+L9H73pGjqMyk62GKkFr42Sb2y3q/3emf1rKFVo4ZrXq4usm69NOI187l531uvSc9rbHvv6y59X5vsIDlSdRrF6Mq6Z3rLZ6re1d7nbBGtqtahAFVUz3ttvvOkOg2t82JUr5pdzWWvFk8ebe5rVl/2vvZz8zTD+7lsnfxPLbY+b/cGLVvoLbQfp1nPmX5h9fn+kzTvqS7S4aV6M3tkdojPGURR+p/PNq36vqVmvOJ3j194Xn1rSdvfTtVWcxYAAAAAAAAAoOgIegGUjVotFd+3j/rmt11ew5wYmq3L5miT6iu+W671QGt1Ub+etU3F2LVac5e6FdnrHsXVMm1GZIsuiq8vbXo7VdtNWzDr3n3ZezxGfe/I9XrhtdWphxWcLdDyNcVMejt0UFv/tx99mZpZ+6Zd1DbabvGJjFbjpt79vgPabzcc0uqFC+RWFw3tn/u6otXjHv9Az6117/vO7d0p8P5k3QN/Wfd34KAuquO/Zmx4FbX9mxVEp2nG8s2mMQj3Bi1f4L0fcT3VKeCeR6pZt9u8jw9U+ve3aO93x4cLtPhwpHr1yfV+s693s5JScyW9HW7L9d6q68oWMd79Hu0/7GspdbtXa+Ey71Xl6cuRivVeT9Xz0vTlV4e81RgNTFqujZM6KPdPVuRljez+5c446msI9TnzKEr/y9GgWxc1q2QqlvBGan6Dd7/rgA74WgAAAAAAAAAAxUDQC6BsXNhGvfr318D8tvb+iWZh9mrLl9aUsE3VIMjD6l3SyJSMHWn2mqJ1M/Zo3ZoNubY07T/Le3BbmnbmmyPu1I5t1sGqOvh97sdv0Kbd1iS90pYfcy0gHKqqkYEhWZb6tVXHFLMFhJDf6ssPvbumjVQ3yBNEXuoL9FZ9+633z++0dY13F/TcaDVoYYo2v/t7ga8lgAmi3Vu+1Q5fS17bt9n3vNnl0XnfW1aQna0s7m9R3q/3CryvK10k7c77+uvSDsgaa7v1253y7yJ1ap4T/HPTLu0JMjV0qfg+Tau8u8YX5vrGgqXpIK1bnqRhLauYBh/3vp3ee7FBK5JmauqoIep81/jANXaL8Zw+Rel/Oeqed44p+bH79R4dLKv7BgAAAAAAAACnAYJeAA5w1Bqwma+q1QLHMO748St7v3X2cPXu2zfXNkQJ662jO/Vr4MBDP7u03QoNlaIJeR7v3cYl22uybv01n/ltC9EsWMBmCQh1g3HLbY0cLfQ8ywHtt3LSkM71u78hnR/EoQP5h8B5lMX9Lcr7tYJma79NicODvP6DM33B6K49+tXaG7VrBAs/LTu1P9gA2BPM/U2yHr+1hZrEdlac930MGPWKFv8YqbbdOuQZUV08Rel/Oc6plt99K8OR0AAAAAAAAABwGiDoBeAAUdassvlyH85awdanTq3L7H3HSau0ZfOn+WwJeaZ1zlFL9awpk2v1V1LQx5ptsDVt74kUqUhrCtwMX61gZ+os6/2FdK7f/Q3p/CCqnJl3NHK+yuL+FuX91ladi619B01bFeR1s7aELkV4TyfZnhSN6DlaST/GaOArC7VurfUeVmnZy+OKOHq+IEXpfwAAAAAAAACAskbQC8ABqqvhn6x1V9dra65lUy1bv7Sm4fVTs4Y9gnHFF1t99QBpSrw1Vu3vnK1gR31q6Jw/ene71mtLkNmD3StHq0m7OD2+LN8hwWWkrv7U2rtbv0FfBZny1v31Znskamzdut4/L/JNVxz03KwRrVmy7m+KNgW0G2lf2c8b2bBu/sFnvfr2tL3r1m9TYOzutWtnrntdFve3KO/XewU1rUV7U/Tp1756gLTZiovtrPjEYDfjBKsTbd/XTd8HuVG7ktXbe539FqTp4Kfva/FhqdnQh9W3SW1V9VsT1/19WuD9D/E58ypK/wMAAAAAAAAAlDWCXgCO0KD9nWqsbZr35obAWZx3JWvGbGt9WT/RbRTfQnInvqx5P5g2Y8/SlzV12yGpxZUFTGcbqWYdeqqONihhbqoO+o9gzNisGVOS5d4dreZXVTeNJ0oVtep8u/fqlmrqv3Ldh4w0zX852Vtoo84trevKeg95z3Wvf12J9tTJOXz3d6dmzEjWjoD3e0grXn1BW1Vbva7PtRayv8gYdepVW1o6XS+uD3g1rXttduAasWVyf4v2fuvdcLuaec9KnLkg1/vdq8UzvO93n9TsKisMPslqtVK39t738PpsJeXKZbe/n6x13uts0CBaFSv6hmQfOHjM3mc7vE2Jdr/wHjtsjoX4nHkVpf8BAAAAAAAAAMoaQS+AsvF9ihKnT9fUgrZlwUYN5iO6i4b1idaO2X0V23eKklI2aEXSFPXuPlrrlHte59qKe2KkYitt0NjbemhA4lKtW5OipIl91fHhpXJH99SY3gWEll6RTe/XmF7W6w1Q2/t9r7du6WwN6N5XCWmRin1ikDoGLg18QkS2fFAzvNe1PXGA4odM97uueE3YXEVtR+dcV9Z78J07W4vXbNDixCGKH/C6dviN+LRF364JT7SUVo5W3P2jNW+p93lTkjXh/ps0IElq0Gek+hV4yyLVrN9I9YpOU+KAXuaeL1XikF7q9/quPJ9QWdzfIr3fWl00xvt+I9eMV+fuQ5SY/X67auhSt+r1Kuz95u+c6tbo6A1KnJXsvQdpeUc4F0l1dRzs7ctK1ePeezMhKcXc1x7qNnFz9nVGtuigXrWkrZOHmHvvfe/zRqv3jT30rxpt7BG8OWseh/acwRSl/wEAAAAAAAAAyhZBL4CysStV8xJmKqGg7Yus4CkUkWo8cJ4Wju+pZjvf1uMP9tXQGZ+p3sD5mjfUSqXq69xzfGfaanXRjOXzNTGutr7613D17jtEjy/cpWY9x2nh/EFqljv4yyNSzQYnadULgxR7dInGel+v98MvaFOlNhqWsEgzvM97cljXZd2H21Q7Ldl3XaNeVVrt2zTxjSWa1sX/unLOPeezFzS0b1+NmLtHTYbO08TbzCl+6sRN0/IE7/vN2KCpD3uf98HJWpHRSsNeWKSkgTF5wto8KsVo2Pwk7z0/R5tmWPd8tP71a2ONmD1OPcwpOcri/hb9/a56w3tttbfpRfv9jlbSzqbqNT5Jbw4O4f3mI7JVH027vb5+WTDaew+maNluc6C4TF8e8xdpxdQh3uccrhe/qq0e/tcZ6b33cxLUt80xrZts3fsBGv+eW62fWq51z/VXa2tw8qffart1riWU5wyqKP0PAAAAAAAAAFCWXEeOHPGYMgA40vbZPdR54jkas3ya4s4zjQAA4LQTFRVlSgBCkZHhv4YFAAAAAMBpGNELwBH2JA9Qs059lbjFNGTJ2KYVb26TGl2rxoS8AAAAAAAAAADgNMGIXgDOsCtZ/W4ZrVUVYxTXr4s6RdfQwV3r9c5rc7RiWy31enmehjUt7mS7AADgVMCIXqBoGNELAAAAAM5G0AvAOXanKnHybM1bs0E79nnrlaqrceu/qd/gnoplNC8AAKc9gl6gaAh6AQAAAMDZCHoBAAAAnBIIeoGiIegFAAAAAGdjjV4AAAAAAAAAAAAAcBiCXgAAAAAAAAAAAABwGIJeAAAAAAAAAAAAAHAYgl4AAAAAAAAAAAAAcBiCXgAAAAAAAAAAAABwGIJeAAAAAAAAAAAAAHAYgl4AAAAAAAAAAAAAcBiCXgAAAAAAAAAAAABwGIJeAAAAAAAAAAAAAHAYgl4AAAAAAAAAAAAAcBjXkSNHPKYM4CTJyMhQenq6MjMz5fF47A0AUL65XC57CwsLU0REhMLDw80RACdLVFSUKQEIhfX/QwAAAAAAzkXQC5xEx48f17Fjx0wNAOB0FStWVIUKFUwNwIlG0AsUDUEvAAAAADgbUzcDJ4E1YvfIkSOEvABwirF+r1u/35mZAQAAAAAAAEBZI+gFTjDrW/NWCGBN0wwAOPVYv9+t3/OMkgIAAAAAAABQlgh6gRPIGuHldrsZ6QUApzh+3wMAAAAAAAAoa6zRC5xAhY3kjYyMtNd3jIiIUFgY38NA+Wf15/T0dHu6WivUAhDI+l1+xhlnmBqAssYavUDRMPsEAAAAADgbQS9wghw/fjzfNXmtgLdSpUqEu3A0K/Q9fPgwgS+Qi/UFngoVKpgagLJE0AsUDUEvAAAAADgbqRJwguQX8lauXFlVqlQh5IXjWX3Y6stWnwaQI7/f/wAAAAAAAABQEiRLwAmQ3zflrUCMkSc41Vh9mrAXCMSIKQAAAAAAAACljaAXOAGsNUxzs6ZrJuTFqcrq21YfB+AT7L8DAAAAAAAAAFASBL3ACWCtXZqbtSYvcCqjjwM5gv13AAAAAAAAAABKgqAXOAE8Ho8p+VgjHVmTF6c6q48zqhfwyf3fAQAAAAAAAAAoKZIm4ATI/Q/8FStWNCXg1EZfB3wIegEAAAAAAACUNoJe4CSIiIgwJeDURl8HAAAAAAAAAKBsEPQCJwHTNuN0QV8HAAAAAAAAAKBs8C/wAAAAAAAAAAAAAOAwBL0AAAAAAAAAAAAA4DAEvQBOiDVjXHK5Ct/iZv9sHpG/n2fHec8dpzWm7m/f2w/ofNc1euDtNNPi59BGTb/7GjW0X+t8jfjgqDkAnHy/pM7RyAFddX2jGqpRo4YaXtdVDz6zSF/vNycAAAAAAAAAAODHdeTIEY8pAygjv//+uyn5VK9e3ZROH2kLx2neF6bideTzJI2bL8U/GqeGVU2jV83r+6tP82qmFpwV9J7/t6v0sWe4Wpg226EUjbj+DqUN+Fhze0abxhxps+JU9+6f1P+lEbrl4iidf0UbNahhDqLM7N2715QQVPr3ShrcQ33n7VOrnvfozo4xOjfKrV8+WaQ5/5qj1YpTwqIExV1gzodjVa5c2ZQAlJWoqChTAhCKjIwMUwIAAAAAOBFBL3ACEPTm5Qtrpbk/Jim+jmkMUb5BbyGsUcXXjBxb5MehZAh6C+LW6mduVNdJUXos+TUNbnmWaTd+WaGR8d31QtRofbDofl1hmuFMBL1A2SPoBYqGoBcAAAAAnI2pmwGUM/u0dfYQdWxyvj2V8/lNOuqBf6So0Amdd6To2expmRvqmrtH6K0vsqZmXqNx3vZrRlrlEbrGOue2ednP+fMH0/XAzVfpfKv9j1ep4/3TleL/gqnjvM8Zp3lfbNW8YR111R+zXuPZwPO89n3xlkbkex1ALmlvaPqkz3XFkxPyhryWc9vqob/30RURX+vrH0yb1/6ti/TUgA66poY1zfM16jDgKS3a6jZHLRs02Xus17zVShp0vRrWaKjr+8zR12sne8/vpTmpSXrwuoaq0eh67zlf+x6S/otWP/+gOrTwTR19zY0P6ql/fy3/Z7UU/toAAAAAAAAAgBOBoBdAOfKz3rJC0sc26vy7p+v9lPc1/e7ztXXCDWryt3kKsuqu7ejaZ3VDixs081AbjVjyvt5fMkJtDr2luCvaaFyqFbI20C3e53r+/6yz++h5b/n9YS1kTRCdNvsONWnzgD6t0UfTve2Ln7pJUR88oBti7tC876zzs6Tp+fviNHPfTRrx6vtKmnaNzlg+RDfcOzP7uo6mjtNNV3jP2WOu463+avjdTL/rAAJ9vTJJK9RKd/4l/7G6Z/11vD5Ifi576mb32snq3qqX5uxtpYdee1tvv9JH9X+Yo16tumjy2sDAdf0zffVyVB9NS56gPrc01aW+Vj11/8uK7DNNbz/dR91ivK3uDXqh23XqOnefWg16TW8nv6aHrtunRX2uUZdJG7LD3qK8NgAAAAAAAACgbDF1M3ACMHVzXsGmbj66fIii22/ViM8Xq//lvjbbV9PVscFYNViWpkntonJN3ZymmTfX1YiLF2vr5Jvs8NbnqFIGR+uG/47Vt+/0kbVib56pm/e8pXvOidOnj7+vj0e3UfZkj/uWaMgVHTW3x/tKm+Btt0b0thqhJrnOC3wPG/VszFUaEv2yvn3d93q29K2afktDPSBvu7mO0w1TN+dv9TM11HXSYL295zG1Mm0F+1wvtL1eIy98Tv+ZeacuNK1K/1oz77pGD8vbPtdqt0b0dtBT143Xx2/2MQGvlzWit9NTavX0x3r7/7Jb9f3s7rp64qV6bfVotfUbWOxeOVJNun2txza8pjujQ31t5Iepm4Gyx9TNQNEwdTMAAAAAOBsjegGUGx+vflY/Xx6tqF9TlPKB3/aTdL5+1rNrN5oz/XyXoiULpWvOkT71f8wHH2tflYbSwiVas8Ocm8u+1SmaqTbqE+8X8lqq3aQ7BjTRzxOX6GO/gbg3XR94Xs3oq7x/vqU0a+TvphTN/UR66P/uCAxzIxrojp59vNcxT0u+Mm2A7Rf98o21jwrsfwX5YrXe2CTd3/PWwEA14lJ1u+1O6b0krbCf02jeKCfk9dPqCv/W77V6xQopppr0+WqtTs3Z1u+PUn2t0IoNvxT9tQEAAAAAAAAAZYqgF0A58bN+toLQL6brnjY36IaA7QHNtE75Ji3vWr07ftZb3t1bj3XM9ZgbFDcmxXvkY6XlE/QePfST988manCRr+7v/JpWXOt9vT2+uuWMCqYQzKGj2qg2iv5j3siu2vnWc6Von99zAdK5uqCBtT/q/V+IvP3sc7XShbUjTUOOs86z5nZerf1FHkD9i35Z7N39+yl179JVXf23PpO9zyit3/V9Gb02AAAAAAAAAKC4CHoBlC+3ztVPHo88wbZX41XTnJbb2NVBzre3nzS8uTkJKGcuvKCT988N+rqgkbDfzFSvG3vpqRW/mIYy8shS7dmzJ+i25cEYcxIAAAAAAAAAoLwg6AVQTlRTTWut3jc+1ZaQhzd61aimNt5dyudbffUiiKpyvvfPjdpqTb2cy08/p3n/bOC7plBUiVITpSjtx7wXv+8n67luCf25cNo4N6at2mq15rz3uWnJ6+vU5Vr0yfeqVuNcu59d4T3/+51uczTH/t0/eP/spHNr+eqhO0tnXefdrd2sr30NwZXJawMAAAAAAAAAiougF0A5EaVrOjykmnpW0+dbwaif72YqztVQHWcFCXMvu0nxnaWUf81VyiHTZjuqlJFX6fwmI3K156jWqo36KEUz56UETp27b4nmTtuomn+/RtYqvCFp3EZ3/Fl69p9zFXD16Vs1d/ZMqWUbXRNkimic5qJvVf/7ztXnTw7T5NT9pjGHe+tMPTtlhc697QF1a+xtuLyVbvXuX5j9hr73neKT/rXefH2O1LyVmlqzKBfJpWr717bSyjl6MzUwxHWnPqXrG12vp1Z628vktQEAAAAAAAAAxUXQC6DciGrXX8/2rKm37r5GNwyeqSUfpOitfw5RXId79FbLOzTiVntB01yidcewsWrxyTjdEBOnZ99OUcrSeRp3b0fdMeYntRncR22qmFNzq3GLhr8ar5/G3KA2d0/XW97XWzJ7hOJadNSzitezg29SNXNq4Zqo/xTvdbxxj665eYTmLfVex9vTdU/7NnpgYQuNfbqPgl09TneRavXIAo3+y/d6qksLdR00WUkrVmt16iLNebKXrm/1sJIueEyvTIzTufb5V6jP2McU8+8H1eGOp3znLp6pB7t10cPvxeixEXfqUvu8ornwlof0WPPPNbnL9er1/CLv669Q0nMPqvv9k7W75QO64zprXd6yeW0AAAAAAAAAQPEQ9AIoR6IV/+pGvT8tTlEfjFDHNjcobvLHUue52rJwuFrkE9hGtRyulM+TNLzFT5p5yw264aaHlPTfaA1J2ai5PaPNWcFF95yrjSnP66o9M9Xf+3odH1uio51f1qcb5iq+iCNwretY4r2OPjVSNPYm73XcMl1bLhqixd+kaHjLKHMWkEvlK3T/3DX6eOaduvDH5Xq2e1d17dJLL6yVWj39trYkD1ZMZXOuV2TzwXptdaLurL7ad+5dM7Xtggf02oZkDW5uBbLFUDlGgxd8rMQhTbV7bi/v63fX48nf68J739ZK78/jhea0MnltAAAAAAD8pe2Ua81nQTf9+LM5CQAAWFxHjhzxmDKAMvL777+bkk/16tVNCTj17d2715SA01vlyn6JPYAyERXFF6uAosjIyDAlAABOkoO/y7Vpm7TxK3vv8u71y2/mYD7OqiLPJRdI9S8y+2h5YkNefAsAgFMKQS9wAhD04nRG0Av4EPQCZY+gFygagl4AwMniWvmJXEtT5VqSKv2237QWn6fJZfLcfJ29qSb/7gYAOH0Q9AInAEEvTmcEvYAPQS9Q9gh6gaIh6AUAnFDffC/X0o/scNf1+TemsZSdVVWem1v7Qt9rrjSNAACcugh6gROAoBenM4JewIegFyh7BL1A0RD0AgBOFNeUOQqb9IqpnRie7jcqc8hd0vk1TAsAAKeeMLMHAAAAAAAAAKDUWGvuhsU/csJDXovrtXcVfvtQud5ZaVoAADj1EPQCAAAAAAAAAEqVa8YbCrt1iFwf/se0nATbdyjsvnEKGzFd2n/QNAIAcOog6AVOgszMTFMCTm30dQAAAAAATj9hfccobMxL0hG3aTm5XLOSFXbrULm+3G5aAAA4NRD0AidBenq6KQGnNvo6AAAAAACnFyvkdS1aZWrlhxXyht0zSq5PtpgWAACcj6AXOAFcLpcp+Rw7dsyUgFMbfR3wyf3fAQAAAAA4FZXXkDfbDz8prM8TcqVuNA0AADgbQS9wAuT+B363282UtjjlWX3c6usACHoBAAAAnPrKfcibZc8+hfUeKdeyNaYBAADnIugFToCwsLw/aocPHzYl4NREHwdyBPvvAAAAAACcKsIGT3JGyJvl8FFf2LvmM9MAAIAzuY4cOeIxZQBlJCMjQ0ePHjW1HJUrV1ZUVJSpAacOq7///vvvpgbA+l0fHh5uagDKCn+vAorG+v8pAACUlOudlQq7b5yplUBEuDwdWsrT9HIpurY8F9Wy9wG+/0mu1Z+abaO0/6A5UDyeFlcq881JpgYAgPMQ9AInSH6hF2EvTjWEvEBe1u96AGWPv1MBRUPQCwAosQO/K+yWQXJtTTMNRee5vJ48N19nh7yqW8e0huCX3+R6/T2FvbFC+u8PprHoPIN7KvOhv5kaAADOQtALnCDHjx/XsWPHTC1QZGSkKlWqxNSecDRrTV5rumbW5QUCVaxYURUqVDA1AGWJoBcoGoJeAEBJhY39p1wvvm5qRXRWFWX27SZPv1ulyIqmsRjcx+Ra8J7Cnpxhl4vDGtVrje4FAMBpCHqBE8j782aHYfmxAl8rEIiIiCD0hSNY/Tk9Pd3+EgMBL5CX9bv8jDPOMDUAZY2gFygagl4AQEm4PtqksNuGmlrReP56vTIH3SFdcqFpKTlX6kaF/f0Ze6RvUTGFMwDAqQh6gRPI4/HYYa+1BwCc2lwulx3yWnsAJwZB7/+zdx/wUVVpH8efc0MJvQlIkyoLiIBItaKirihiw17wtdcFV8W1t7X3vlYsKHYRxYaAiCJgAQVBepAiKEgPLfe8OTdPJEjJvcm0TH7f/czyPCfDZBLJheQ/zzlANAS9AIDi8M6/TcyHY7QLz57ZW/w7L9cu9rwjLxUz6RftwvMf+4/YYw/WDgCAkoGRQSCB3A/73dQuP/QHgPTG9R4AAABAOnNn8hYl5PUfujquIa/jf/hYkbZhNu+O1AoAgJKDoBdIsIyMjGDCi62ZASA95W/X7K73AAAAAJCOzLAvtArPf/BKsX0P1S6+/Ff+GznsNZ+PFzNhinYAAJQMJE1AErgJLxcCuPN4AQDpw13X2a4ZAAAAQFrbuEnM+6O1Ccee1kvsiYdrlwCZ5cXefJFI+Wg/ezPvMdULAChZCHqBJCpbtqxUqlQpOE+uTJkywRQY4QAAlAzueu2u2+767a7j7nrurusAAAAAkM7M0NEicxdqF0KdmuJffqo2iWPbNhd7YV/twgm2b164VDsAAFKfyc7OtloDAAAAQInlXnQBILycnBytAAAIzzvz+mCb47DspaeI/5//0y7BVq6RjD79RWZm6ULh/IeuEtv3MO0AAEhtTPQCAAAAAAAAAAqXvUHM+J+0CaF8OfH79tQmCapVFr9fb23CMT/N0goAgNRH0AsAAAAAAAAAKJSZNF1kzTrtCmdPOlykxW7aJYc9Yr8g8A3t+2laAACQ+gh6AQAAAAAAAACFmzBFi3Ds/h21SqK6tcT22l+bwpkfpousWqsdAACpjaAXAAAAAAAAAFAo8+UPWoVQvpzYgzppk1y2135ahWN+nKEVAACpjaAXAAAAAAAAAFAoM3eBVoWzXduKVMjULrls80ZahRPpHGIAAJKIoBcAAAAAAAAAsHPubN7flmlTuJTYtjlf43oilSpoAwBA+iDoBQAAAAAAAADslJm7UKuQmjXUIjXYhnW1AgAgfRD0AgAAAAAAAAB2bnb4bZsdm2JBr1RMjW2kAQCIJYJeAAAAAAAAAMDOzf5Vi5BSLOg1K1ZrBQBA+iDoBQAAAAAAAADsVKStm92ZuGUytEkRf67SAgCA9EHQCwAAAAAAAADYuVnhJ3pt0xTbttmJMNFrK1bQCgCA1EbQCwAAAAAAAADYqUgTvS0aaZEazE8ztQqpVRMtAABIbQS9AAAAAAAAAIAdW7JMZM06bQpnmzXQKkVMnqFFOPYfBL0AgJKBoBcAAAAAAAAAsEORpnmdZqm1dbP55ketQqhWRaR+bW0AAEhtBL0AAAAAAAAAgB2bvUCLcGyqBb2fj9eqcPYfjbUqYTZuEjNu8g5vsmGj3hEAkE5Mdna21RoAAAAASqzMzEytAISRk5OjFQAAO+fd9rSYp97UrhDly0nOnA+1ST4zYYp4xw7QrnD2zN7i33m5dils3iIx3/0s5vvpIt9PE/Nj4dtT23YtRfZqJXavf4jt8A+R3UtoqA0A+AtBLwAAAIC0QNALREPQCwAIy+t3g5jPvtFu52zrpuKPeFq75PPufE7MY0O0K5z/2H/EHnuwdilmwRLxhnws8uGXYmZk6WLR2f07Bh9r8PGWK6urAICShKAXAAAAQFog6AWiIegFAISVccD/icz+Vbuds0ceIP7TN2iXfN4h54mZPk+7wuVMe0+kaiXtUsSs+UHAa177WGTFal2MoeYNxfY5SPxjDxFp1kAXAQAlAWf0AgAAAAAAAAB2bN5CLUJonkLn8y5cGinktV3aplTIa6bMFu+6xyTj8IvFPPlmfEJeZ/YCMQ+8LBk9zxfvxidEfv9T3wAASHUEvQAAAAAAAACA7ZuzUCTH16ZwNoUmQs2I8VqFYw/pqlXymZc/EO/wC8UMGiqyfoOuxtmGjWKee1cyjr9CzFuf6SIAIJUR9AIAAAAAAAAAtsvMCbdl81+apc5Er/k8WtArPVMj6PXue1G8ax7WLglmLxDvX/eId8kdMTkLGAAQPwS9AAAAAAAAAIDtm71Ai3Bs0xSa6I0S9DaoI7ZVU22SZHOOeKdfK+bBV3Qhucx7o8Q7doCYD8boCgAg1RD0AgAAAAAAAAC2y8yNcD5vjaoiNatpk1xm5AStwrHJnubN/TxnNP6nmFETdSFFrFgt3gW3EfYCQIoi6AUAAAAAAAAAbN/s8Fs3cz5v0Zif50jGfv20S02EvQCQmgh6AQAAAAAAAADbZeYt0iqE5rtpkXyRtm0uk5G8oHf5SvEOvUCb1EbYCwCph6AXAAAAAAAAALCttdkii37XpnCpMtFrfpknsmCJdoWzB3bSKvEyjv6XViVDEPZ+PVk7AECyEfQCAAAAAAAAALZh5kQ4n9dp3lCLJBvxjRbhJGua1zv92uBs3mLbtZbYvoeKf/sl4r92l+RMHCw58z6SnElvSM7oZ8V/7yHxbzhfbI/OwfRycZl7B4ls2qwdACCZTHZ2ttUaAAAAAEqszMxMrQCEkZOToxUAANtnho4S7+I7tCuc//kzYls10S55vOMGiBk/RbvC5UwYLNKgjnaJ4d3wuJjn39OuCFy4e2ovsQfsLbbzHroYwrIVYj4cK+aF98TMyNLF6OylJ4v/n3O0AwAkCxO9AAAAAAAAAIBtzV6gRTi28a5aJdG69ZFCXtuqacJDXvPWZ0UPeV3Ae8UZkjP8cfH/fWa0kNepVV3smUeJ/8GjeUFtvV30DdGYx4ZEOwcZABAXBL0AAAAAAAAAgG2YKNsKN6wrUiH5O6yYT8dpFVLPBG/bvPh38R58RZtobMfWkvP6PUHAK3Vr6WoRVaoQTOXmDLk7eNyiMPcMElm1VjsAQDIQ9AIAAAAAAAAAtjXrVy0KZ5s10Cq5ok6ZJvp83iDknbdIu/DsQZ3FH/aISIvddCVGch/PPa57/KjMlFliXhqmHQAgGQh6AQAAAAAAAADbMFmLtQqhWSMtkitS0FuzmtgubbWJP3fmsRk8XLvw7EV9xX8l/FnJReEe3152inbhmXdHagUASAaCXgAAAAAAAADA1pYuF1m5WpvCpcJEr5k4Nfc5r9GucPbAvbVKgGUrxHtosDbhuefoX3++dvHlX/N/Yk86XLtwzPS5hL0AkEQEvQAAAAAAAACArUQ6n9dp1lCL5EnlbZuDLZtnZGkXUu0a4t/dX5vE8O+8PPKUM0EvACQPQS8AAAAAAAAAYGuzF2gRjm2aAmf0jvhGi3ASFfSaj74S88JQ7cLzrz1HpNGu2iVI+XJi+5+uTTguYDcTpmgHAEgkgl4AAAAAAAAAwFbMnF+1CqFMhkiT+tokyW/LxEybq03hgqnVqpW0i6PV68Q8+LI24dkTeoo9Mdo2yrHitou2ZxylXTjmk6+1AgAkEkEvAAAAAAAAAGBrESZ6bSps2/xptKAxUdO83kOviJk6W7uQ6u0ifsSp2ljzzz9epFZ17UKYMksLAEAiEfQCAAAAAAAAALZi5i3SKoTmqXA+7wStQuoZ/6DXjJwg5qk3tQsvCHmTvRV2s4Zij9xfm8KZH6aLbNqsHQAgUQh6AQAAAAAAAABbm7tQixCaNdIiedw5saE1bSC2VVNt4mTDRjEPFGHL5qN7iD39SO2Sy+7bQasQ1maL+Tni5DIAoNgIegEAAAAAAAAAW7iQN8J0pm2W3OlTM2pi7pOw2hXOHtBRq/jxHhqcN+UaRc1qYgckd8vmguxRB4iUL6ddCJNnagEASBSCXiARvr5bKlSosJPbyfL6Tl8kOV7uzr3f3dscNbJEXj/N/f67c+/xNwtfl5P18U9+dYkuAgAAAAAAADtn5oQ/nzeQ5G2GzYgI07y54n0+rxn7g5hHXtUuPH/A6WJbNtYuNdgubbUqnPluqlYAgEQh6AUSYZ+Bkp2drbd5Mug4kT7PzSuwNkROKsq/h78eJP3euVlGZw+Uv//zdPxL/WTojaODxx9yal1dBQAAAAAAAAoxO1rQa5vU1yo5Im3bXLlifINea4u2ZfM/9xX7f8dol0JqVNUihIW/awEASBSCXqAkCwLkbUNeN+k7b4pIn8ZNtAcAAAAAAADCMVHO561WWaRuLW2SYGaWyK+/aVM423VPreLDhbxm/E/ahVSlYkpt2byVGlW0AACkIoJeIGXkb8Ocf9vOdswFFdiaObjdmX9vt81zE+n3jsjQc5ps9Tjj7yxw/79tFx28LfcxtrrPaa/nPquCIj5HAAAAAAAAlDwRtm62yd62+bNvtAonntO8ZsIU8Yowzev3P11s2xbapZjqESZ6AQAJR9ALpIS8cPbdI7ds5zzvuR+kx46CVHfmb4t35dhZBbaDntJDw96uMnCr7aHdxG9eQNtjyiCZ99fji/Rr8bezgW/tIaMPzH/M0XLzO/3kX3+d76sBctu87aDdbfSNN+/4OQIAAAAAAKBEMvMWaRVC84ZaJEfk83l7xjHofbAIWzYf3EXshX21S0HrN2gBAEhFBL1AKvh6tNx83CB5uMBZunVPfVgGHXezPPhX0LrF+C9ulj7PPVzgXN+6ctI9g6TPrQ9uHdzmWzha3n2njwy656Tce+bJe/yh8u4XBR4/9zn020dr6So9bhQZmjUvr3XPMfd/o/+z5R/DXf+ja1/rAgAAAAAAAEq2detFFmz786gdsU2TGPRu2hxpm2TbrqVIgzraxZZ5bIiYMd9rF1L5cmKvOEObFPXnai0AAKmIoBdIAUvm/SDyTj9p8teWyO6Wt/3ytvLO383blrnA/Vv0k6F6j21kzct9217SZKuddOpKjyP7bAlynbZN/gqC/y54jsc1ka1P/c0Lg3+YF/4f/wAAAAAAAEhdJsK2zYEkTvSa4V9qFdIBHbWILTN5hnh3PqddeP6A08Xu1Uq7FPXnSi0AAKmIoBdIAfOyhgbTtPnbKhe8DSkw5Ztnnsx7J39b5r/ff0iBKd/CBe+3WPJCZwAAAAAAAKSJqEFvEs/oNZ9P0CqceJ3Pa4pwLq/dv6PYy07RLoVlLdYihAa1tQAAJApBL5ACmjTuI/LOPCkwW7sTTaTJcQW2VA6jcRPpIz/IvK22dc4Lafvkvi2Muk322s5zzAud92qyozlgAAAAAAAAlCizowW9drd6WiVepPN569cR26WtNrFjnn4793l8o11IxqT+ls3OjCwxubew7N57aAUASBSCXiAF1D11QHDWbY87C/zjdOHrcnKFCnL3Nuff1pWTLrlZ5NYeW71tyasnS4UKd8t2/3nboIcce9xQ6Xf165K/yfKSV/8l/d7pI8ceGDKk3afHNs9x/J269te5vgAAAAAAACjJzNytJgV2rn5tkWqVtUks8/00kZXhz4+13fbUKnbMz3PEu+Up7cJzIW88QudYM59u84PJnWu/uxYAgEQh6AVSQlcZmD1abr61x1Zn7u71ebYM3F6Ius9Ayf78Zrn5kC1n9DY5Zy8ZnT0w95G2p66cNDhbRrfdcg5wk3NEBs2KstWze47zZNCULc+xx6037+R9AgAAAAAAoMSJEPTaZG7b/Fm0KVp7cBetYsc89IpW4bmA1y8JWzbnMt/8pFUIlSqIbdNcGwBAopjs7GyrNQAAAACUWJmZmVoBCCMnJ0crAAC2yGjXV2TZCu12zp7ZW/w7L9cusbxDLwgmakMpW0ZyfnxLpGolXSg+8+L74l37qHbh+UPuDs7nTXXmgzHiXXCbdoWz++0l/uv3aAcASBQmegEAAAAAAAAAIr//GTrkdZI20fvnqvAhby7brV1MQ16ZNV+86x7TJjx72SklIuR1zPPvaRVS2xZaAAASiaAXAAAAAAAAABDtfF6nWXKCXjdtGoWbNo0l78FXch802kaZdq9WJWfL5lc/EjM+wrbNuWyv/bQCACQSQS8AAAAAAAAAQGT2r1qEYxvX0yqxzOfjtQqpZ1ctis+89pGY90ZpF5694ozgHNtUZ6bNFe+eF7QLxx51gNi922gHAEgkgl4AAAAAAAAAgJjZC7QKwRiRJvW1SawoQa9t1TS4xcT8xUU6l9de2FfswV20S23mtv/lbeEdge17qFYAgEQz2dnZ0faYABBzixYtkqVLl8qqVask92tSNm/erG8BAKSqMmXKSIUKFaRq1apSp04dqV8/OT/gALBFZmamVgDCyMnJ0QoAgDzeuTeL+egr7QrRvJHkjHlem8QxX3wn3qnXaFc426+P+P+9VLvi8QbcK+aNT7ULx7ZtIf7r94hUr6Irqcu76oFg2+Yo7L4dxH/jXu0AAIlG0Ask0ezZs2Xu3LlSvXp1adCggdSsWVMqVaoUhAcAgNTmXpSzdu1aWb58uSxcuFBWrFghTZs2lebNm+s9ACQaQS8QDUEvAODvvJ7nB1v3hmEP7Sb+oNu0Sxzv+sfFvPCedoXzX7pd7CHF37rZvP25eJffpV14/nO3iP3nPtqlLu+eQWIeHqxdeP7DV4s9gYleAEgWgl4gCdzk7k8//SSVK1eWVq1aSbVq1fQtAICSauXKlTJ9+nRZs2aN7LnnnsGkL4DEIugFoiHoBQD8XUaLo0SyN2i3c247Yv+G87VLnIzuZwZbKIeyS3XJmfymNsXw2zLJOOBskbXZuhCOPbuP+LfHZpo4nszz74l3w+PahWe7tRP/7fu1AwAkA2f0Agn2xx9/yLhx46RZs2bStWtXQl4ASBPueu6u6+767q7z7noPAAAAACXGvEWhQ17HNm2gVQJlLQ4f8uayXdtpVTzeQ69EDnmlZWPxLz9Vm9Rlhn1RpJDXsQNO1woAkCwEvUACuUne7777Tjp37hxs7wkASD/u+u6u8+567677AAAAAFASmDkLtAopCUGvGf6lVuG482OLywWh5uUPtAvPdyFonZrapSYzbnJwLm9R2EtPFrvfXtoBAJKFoBdIILddc7t27aR+/fq6AgBIR+4676737roPAAAAACXC7GhBr21cT6vEMSPGaxWO7VnMs3n/XCXeNQ9rE549/UixR/fQLkXNzBLv6odEVq/ThfBs+3+I3/807QAAyUTQCyTI7NmzgzN5meQFgNLBXe/ddd9d/wEAAAAg1Zm5C7UKoXJFkYZ1tUkc882PWhXOdm0r0qCOdkXj3f+SyIrV2oXUtIH4l52iTYrK/Zi8qx4UiTrFrYItmytkagcASCaCXiBB5s6dK61atdIOAFAauOu+u/4DAAAAQMqbFz7oTcb5vOaDMVqF1K29FkVjPvlazAtDtQvP7396UkLwKNx2zWbiVO2isZefKvbQbtoBAJKNoBdIgEWLFkn16tWlWrVqugIAKA3cdd9d/93fAwAAAACQykzWYq1CaN5Qi8Qxn43TKhzbo5NWRbBmnXgDH9ImPHvi4WJP6KldavKufUTM8LHaRWNPOUL8gWdrBwBIBQS9QAIsXbpUGjRI/CsdAQDJ567/7u8BAAAAAEhZ2etF5kV4gWrzRlokTqTzeZs3FNulrTbReQ+8LPL7n9qF1KCO+JedrE1qMve/JObFYdpF46Z4/XsHaAcASBUEvUACrFq1SmrWrKkdAKA0cdd/9/cAAAAAAKQqMyfC+by5bON6WiWGmTIr0lm5tms7raIzoyaK+d9b2oXnu3NrmyV+0jks89IHeQF2EdgO/xD/ngG5D2J0BQCQKgh6gQTIzs6WSpUqaQcAKE3c9d/9PQAAAAAAKWvOAi1CalJfi8SIutWw3aeI5/Nu2iTe1UXYsvmYg4JtjVOV+/x5/3lYu4ga1hV7379F6jDEAgCpiKAXSIDNmzdLmTJltAMAlCbu+u/+HgAAAACAlDU7WtBrExz0yohvtAihaiWxh3TVJhrvvpdEFkU8eqd2DbH/Ok2b1GMmThXv6ge1iyizvPj3XiG2dVNdAACkGoJeAAAAAAAAACjFTJTzed1kZ63q2iTA2mwxU2drUzjbdc8g7I3KfD1ZzGNDtAvPbdlsWzbWLsXMXSjeVQ+I/Fm044Tcmbz2gI7aAQBSEUEvAAAAAAAAAJRmWeGDXtu0gVaJYYaO0iqcop7PGwSiEdle+4s962jtUsyadbkf04MiM+frQjT+jReIPe4Q7QAAqYqgFwAAAAAAAABKsUgTvc0bapEY5rMI2zY7B3XSIjzvvhdFonwOnGpVxF5+qjapx4W8Ztxk7aKxF58k9oITtAMApDKCXgAya9YsWbJkiXYAAAAAAAAoNf5YIbJ0uTaFs80SHPR+Pl6rwtkO/xDbKtp5subbn8U8+Ip24QVbNu/ZQrvU4t34hJj3R2sXjT3xcPGvO1c7AECqI+gFINOmTdMKAAAAAAAApYmZs0CrkBrX1yL+gonUHF+7ELq31yI879/3axWePbSb2POO0y61mEdeFfPcu9pFYw/qLP49/bUDAJQEBL0AAAAAAAAAUFpFDXqbJDDoHT5Wq3Bs92jn85qHBovMiniGbcXMlN2y2bw6XLy7X9AuGtu2hfj3XiFStoyuAABKAoJeAAAAAAAAACilzNyFWoVjG9fTKv6ibNssDeuKPaSrNoUzP84Q795B2oUXbNncsbV2qcOdZexd/ZB2EdWvLfa+f4vU20UXAAAlBUEvAABIO++9956cccYZct1118ny5ds/a+rOO+8M7nPLLbfIRx99JOvWrdO3AAAAAEApMm+RFiE0bSBSqYI2cbb4D5GsxdoUznbbU6twzBX3aRWe7dFJ7AV9tUsdZtIv4l31QO4TtLoSQdky4t87IGXPGwYA7BxBLwAASBvZ2dly1VVXyXnnnScff/yxPP3003LIIYfI77//rvfY4rPPPgvu89hjj8mZZ54pLVu23GkwDAAAAABpaV74iV7rgt4EMUNHaRWO7Rp+22bzxOtips3VLqQyGXlbNmek2I/UFywRc+X9Ir//qQvRBCFvj87aAQBKGoJeoITL8X1Zv3mjrN6wTpavWy1/rFkhy9aulNXr18nGzZvEz307AJQG1lrp16+fDBo0SJo0aSJDhgyR0047TRYsWCDXXnut3muLl156SV544QW58sor5bDDDpOcnJwgGO7Zs6fMnDlT7wUAAAAA6c1EmJqV5g21iD8zIsK2zeXLiT1wb212zkyfK95/n9UuPL//6WK7RpsajrsNG4NJ3sihtfKvO1ds38O0AwCURAS9QIrZ7OfIppzN4lsbhBaO+9UFuvlv25CzKQh312zKlmXrV0rWiiUyefEcGTd/qoyeM0m+mPWD/LBwhsxfsVTWblwfPAYApLt33nlHRo4cKQ0bNpQPP/wwmOR94IEHpGvXrsFWzk899ZTeM4+731FHHSUDBw6UwYMHy1dffSUHHHCA/Prrr3LcccdtdwoYAAAAANKKC3lXhz/GJqHn846brFXhgm2bG9TRbufMgCJs2dy9vdiLUm/LZu+qB8WM+V67aOyFfcVefJJ2AICSymRnZxdh434AUbjA4fjjj9du5ybMnRqEubvVrCvVKlQRY0wQ8AYTu9mrZVn2Kvkt+09ZnL1CftuwUpZkr5Q1m9fL6o3Zsip7rWSvz5bNmzZJBa+s1C1fXQ5vtrf032fn73vYsGHSpUsXqVu3rq7s3MqVK+X777+XzZs368q2MjMzpXPnzlKmTJngvk7Hjh2DPiwXskyaNEm7LdxjuMeqVq1a0M+dO1dmzZoV1AXlPwf3q7Nhw4ZgSm/JkiXBpLNbb968udSrVy/4PC9dulQmT97xNxEFH8997O6xFi1aFDxW2bJlpXHjxsHN87a8hmbt2rUyffp0WbFiRRDYV6lSRXbffXepUaNG8D7zLVu2TH755Zfg/m69atWq0qZNG6lcuXLw9ijP7e8fZ8WKFaVZs2ay6667bvU+3fOZP39+cFu/fn3wvOvXrx88vyj/nYBUccopp8iIESOC0NZN6OabMWOGHHnkkcG2zlOmTJHq1asH6+66PGbMmOBrzW337EJf5+abb5bHH388CH3ffvvtYK243OO45wAgvtzfgwDCc7tZAABKNzNqoninb7sD0o74g+9IyDa/5tNx4p19o3aF86/uJ/Zfp2m3Y+bpt8W7ZesXAYfhv3a32AM6apcavNueFvPUm9pFY4/vKf4jA7UDAJRkTPQCKeazWd/Jg+PfkVu+flVuGvty7q+D5bbxr8s9k96Tx6Z/LM/NHS1T//hS1q0dL+vXT5HZ2Qtk5vqlMmf9HzJ//TKZn71M5q79XX5Z/ZtMW7FAfl0Vv4k0F1q6kHR7tzp16khGRobes2hWr14dPIYLoAs+tutdsJrP3a9cuXJBkFnwfgWfgwt4Jk6cKH/88UewpasLdtwPg6dOnRpM7znly5ff6vfn32rVqhUEpBUqVAgCUBee/vjjj7Jw4UKpXbt28Fg1a9aU2bNny7Rp0/7aLnvVqlXy7bffBiGvC1Bbt24dPB8XXrsQNl9+oO1+0OZC1hYtWgRhrfu97jGcsM/NBbYuWP/tt9/+em7uv9PPP/8cBOIFp8Tdx+4CYReY77HHHsHjueDafWz5HwNQkrg/0+5acNBBB+lKHnf2bp8+fYKvK/c1mi8/EHJfH2effbZceOGFwYs4brzxRtlrr72CEPiDDz4I7gMAAAAAaWnOAi3CsbslZqLXDP9Sq5C6t9diJ2YvKFLIa/uflnIhb3DGcFFD3tyPxZ3LCwBID0z0AgkQZaL37Nfvkg/mTRBTsZxklisvZcqWFa9MRu6tjJQvZ6RZhc1ycLkNUtsXWeFnyBzPyC85nsxaa2Xp2g2yPntdEGaY3P/V8ipK3xb7yaO9LtFH376iTvS66VU3KRoPLoj86aefguByZ5PALpRxz8UFNnvuuedWE6sFuUDTBbMdOnT4a5rPhZk//PBD8BjufRQMj/O55+EmAN3HvPfeeweBqgtfv/vuO2nQoEEQzLr36e7nAiQ3edupUyepVKlS0LtA1wVG+e8zP2B1j+fu5wJc9/jLly8PHt/9PseF1+59uP8mLiDenu09t6ysrGC62QW8LrjNv58Led3krrufC37//PPPIFx2/w2bNm361+fN/X4XWLvn7KaOgZLEvYjDTcG7r4uC3J//ww8/XNatW7fVRK/jvhbGjh0bTPG6r5HTTz9dHnzwQfn666+DcHjfffcNtn0uLiZ6gcRgoheIholeAIB3w+Ning/5PU9mecmZ+X7ub4r/7FBG2+Nzv2HLe/F7YWybZuJ/9j/tdsw7+nIx32158W8YtlMb8V/6r0i1vB3XUoF581Px+t+rXTTB5+qFW0UahvsZIAAg9THRC6QYX6yst5tlld0gy222/Jl7WyUbxHobZNeM9dI9d3235ZlSZWENqbuomvRYlyFHlF8nXSpkS6Nym6V8/le1C+6Cm/ZJ4kLUCRMmBDdXh+V+6ORCXvcD251tI+we093PhTs7Cnk3btwYTM26qdqCAY/bqtgFn+78zu2FvI6bcHXhrdvi2QWpjgtOHRfK5r9P96t7ru5t7rm725o1a4ItmF2wms/dzz0PF8bnT+u6wNlNIbpbPvd83PTvpk2bdGVb23tuLvR1tZv0zefep5t2dh+vm2h23MSvu1+jRo22+ry54Pfggw8m5EWJ5P7cuwn6ghPp7kUUZ511VhDoXnPNNVtdAxz3Z713797yySefBNPtr7zyisybN0/22Wef4EUQ48ePD76WAQAAACAtzVukReFsswYJCXllRlbokDfQrZ0WO2YGDY0c8jr28lNTK+R1W21f9aB2EdWpKfa+fxPyAkCaIegFUo3L3Fzwln/zTO6/oY00L79JjslcJ00WVJcxY9vJkNF7ywdftZexY9vKP+0muaXmb3JOtWVSv+zm4P6pbM6cOfLZZ58FIeWO5Ae4Lvx0k6fu3M3PP/88mJItGBi7wDR/EsEFMu5xR48eHUzw5Yc9bttmdz8XurqJ1S+++CK4n5vYc2fj5ge3f+fevwt8XBBUcNrZBaTu3Fv3Ptzkrfv9LmB1wasLdfOnch0XrhYMUgtyv9fZZZddgrN53ftyz9l9fG6y0IW8O5qy3tFzcwp7n+7x3a/uY3C/7ujzBpQ07du3D77W3VR6vieeeCK4brhp2ksvvVRXt+W+Ds8777ygdqGv414I4r5e3NcFAAAAAKQjM3+xViE0a6hFfHnDvtAqHFtY0LtgiXjXPaZNePbik8Qe0lW75DNTZueFvJvCD1L8xZhgu2bbvqUuAADSBUEvkKpcTpd7yzRWjq68Si6u9qd0LV9GsjZ1lEq71ZcmbapL7d2qySq/ksz/o4Z4G8pKr4qr5OYai6V7+bVSxYv/NmwuTHEB4fZu7pzX4nBbrLqAxW237LY3dlsRuzNnXe+C3/xJVzdplx+MuqDG3c9N97rti925my6EdRO97j4zZswI7uemVv/xj38EgaZ7rB0Fzu7sXhcaue1gXXiaz4XPbqtnF/h+8803QQjtJpZdcOqCJjeB7O7vnreb2i04Deiej5uqLbhNntti2Z2R696fC7NHjRolCxYsCNbcOcPbs6Pn5p6TC43d9GJBrnf3d9z7dp8TF3K7/04unHbvywXh7vPmQjHCXpREvXr1Cn512+Xn23///YNf3QtMCvtz7bZ2d/LP7c5/EYXbEQAAAAAA0s76DSJzF2oTQoKCXvn0ay1CcFOq++/8/FzvX/doFZ5t11L8C07QLgX8tkzMlfeLLC7a96dByNuzm3YAgHRC0AukqPLGym5lNsnZVZdL38orpGmOL8sWVZXfFpaRdSusZK/cJJs2WKlZr4pUqlpRypfNkA3Wk0U55WTB5nJBHW8uIHQh5fZuO9v6153re+ihh+4wxHRckOumUl0A6c6oddsduzN4W7VqFYSWbnrWceGlC1RdQOO2MHbn5ropPBfmuvNxXaiaP7HrAlH3NheO7rbbbtK5c+cgGHWTsX/fItk9rguA3Tavf9/q1d3XBaRui9iGDRsGz9EFQu55TZ8+PQiT3Ptyz8G9b3eGsAvFXUjtzt11j1twO2r3PN25ve65uI/Pnfvrtm52j/X3wNbZ2XNzz8d9Ptz5xi6wdZ8n91xdyOXWHfec3M09Txd4u3DcfX7dubzu8+eej5tQBkoatwWzu/Y8//zzwdS7c+CBBwYvzHBfD0OGDAnWdsRtW37TTTfJ2WefHfRuwve6666T7t27Bz0AAAAApBMzZ6FITvgXetvG9bSKI/fzoClbdmkqjO26p0jVLTur/Z155UMx30QfRrCXnSKyy9Y/c0mazTniXfWAmJ9m6kI0/jX/J/aUI7QDAKQbgl4gRXlipbLxZd/MtdKm3HqpkGNk1epysnb5RlmzbIOs/GODZK/eIBXL5kjNKutkQe7v+Cy7sny4rqos2FxWNtr4b9/sgtq2bdtu9+bOfi0OF5wedNBBwdmy+Vzw66Z2XSDqzt10QaULjQ844ICtAk93P/f7XdhaMCh153e6qdt8Lvh093PTw25754LctKtbyz/btiAXnrqQt2AI3a5duyAwdQGsC3Qd95w6der01zbPLrh12zq7+7rzdx0X2roQ2J0N6u7rPm8uiO7WrVvwcf7yyy/B9G1BO3tu7ve4MNt9ntzzdOGWC3VdEF7wDGDH3ffvZ/m6oNf96j4+oKRxX9MupF28eLE89NBDuioycODA4FcX2uZP626Pe4GF297ZvWjEcV8P/fv3D75WAAAAACDtzFmgRUhNG2gRP2Zo1G2b99RqO5YuF2/glu8Nw7LnHie2137aJZ939YNiRk7QLprgY3GhNQAgbRH0AilqszWyPCdDZm9yE7plZWMZX2pWXSsVy68PtiH2czZJWbNWMjctkj/tcvkku5y8urqGjM2uJDniJli3f+5sSeKC3Pxp3HxuEtYFlm6qNn8b1oLbIOdzgY8LU91Un/s9rs6faC3IhZpOwffjHtdt1ZqZmSk1a9bU1TzubS5kdoFtwZDUcb0LhAqGy24b6S5dukjPnj3lkEMOCYJh99/P3dzzcdssu7DXTUG7kCmfq12Q655/wRB6Z88tn3sObgtp9/7czdXu43eBsft9rnaPn7/F9Pb8/fMOlBSXXXZZ8LXx6KOPBtP6jpvUveiii4Jt1M8666y/pn0BAAAAoFSLsm1zLrtb/Cd6zfAvtQrB/UxnJ+fzepffrVV4tlUT8S9MnS2bvTufF/P6J9pFY/v0EP+Wi7QDAKQrgl4gRW0SI0v8MnLz8nrywJ915Jfcr9ZWDRfKHo3nS2aZtVKl0kbZo8VS6dL9B7kvu7q8sqqGzNlYziV0ubfcBwhuJTesc9sNjx07dptJWxdWupAmfzLXnY07ceLEbbZezj/j120v7cJNF2q6UPXvAaa7T37wmc891urVq4Mp2+2Fw2G5Cd5x48ZtM5HrpmVdwOxC4KgKe27uDOIvv/xyq3OBHfd73PNwvy8/9Ha9+/gLcqG5+xwV5+MGksl9Xd16663Bn+8LLrjgrz/jN998cxD4um3NjzrqKPntt9+C9XzuBRz/+c9/5Mwzz5SPPvpIVwEAAAAgfZmsxVqFUKu6SL1dtIkf8/l4rQrntm22rZpqtzXzxidivvxeu/Ds5afmfpy1tUsu8/TbYh57Tbto7L4dxL/3Cu0AAOmMoBdINfkBbe7NBW5+7sJ3GzLl8RW15K61NURaL5DTen8l/3fUaKm9xy/yxLpK8suGsrJ2sxHr5/2+v275j1cCua2HXVDjwpj8cNb96noXdrotl114687jdAGu2844n7uf2z7ZTau6x3FBrws43X0Knj3rwmC31bKbznX3yeeCZPc+3O/Jn/jN5x7TTQu69+nO/y0of0tl9/scFzK791Hwfbq3uy2Vq1atGrzdvW8XqrrnWzCsdrX7WN30ctjn5riQy7294OfD9W67Wjfp67aTdh+D+/y5x3LPpeDnN//z5p4fUFKddNJJwTng7nxsF9467s/1yy+/HEz0Tp48OZh2HzRoUHCd+fbbb4Ot4p999tkg5HVhrzur170NAAAAANJWhIle2ywB2zZ/93NwHm1oO9q2ecUq8Qbcp0149qzeYvscpF1ymXdHinfLU9pFY1s2zgt5K3EMEQCUBgS9QKpxoZvL3fRmfCurNnsyc0M5GZudKZ9JhowolyMfySb5ZPVG+XHxRsn+fYNUXJEju64rJ403VZbdcm9V1ljxct9uN2w9sRlLLiSdMmXKDm8FA86C5syZI5999lnw+3ekdu3aQSjp7jt16tQgkHRTvu48WxdSugDXadiwYRCUuvvMmDEjCCpdaONC0t122y0IPl3A07hx4+D+kyZNCh7DTb66EMhN+7nzON198rkw1m2RXPA834LcNssupP3555+DjzP/LFzXuwDWndnr5J8n7J6bO6PXbSPrnlvB9+meuzuT103cusnkrKysIJR193Nr7n4Fp2sLe27uc+Zus2bNCj4f+Y/l/lsUfKyCn1834eg+bz/88IMsWbLkr88bUJL973//C7ZKd2GuO5vXcS+cuO++++Spp54KXuhw1VVXyV577SVHHnlk8HU8YMAAeeWVV6Rp06byxBNPSJ8+fYJJXwAAAABIR5EmehNxPu/7Ec/n7br9oNe7LPqWzdK8kfjnp8aWzWbsD+Jd9YB2EdWsJva+f4s0jv822wCA1JBx/fXX36w1gDiZOXOmtGnTRrudmzBvqvy28g+x1hd/42bxNlsp53uS6ZeR8lJRNksN2SB1ZEVOHfHtrtKsYgPZo2pDaV9tN2lfo4l02KWJtK3ZWFpUqydNqtSRdrs2ky5Ndv6+XSDYoEGD0OGeO1N28eLFQVDitgje0S0/6HT3dVxA6sJNd4atu7kzaN1E6/a47YXr1Knz12SrC4XdtsLNmjWT3Xff/a9pVrflsgstXQCafz/3Plq1ahWEwPn3c1Ox7n4uPHX3cxOv7rm1a9furwncfO4xVq1aFfz+gtO0+dxzc2Fzwefm3r/7HLr/zvnbQLuJY/c5cNO/LkjNP9vXnZlbcGLWhcbuObjnlP/c3PvdY489gt9fcHK3sOfm7us+Tvfc3Pt05/m659O2bdtgPf+x8j+/7nPq7uMCXjfR68JgF4oXfJ9ASeRe1PDPf/4zmND9/PPPg68dN+Xr/my7r9MzzjgjmLj/+uuvg6/Bl156KZjkbdGihRx77LHBCy/czb399NNPL/bXhHsxSMuWLbUDEC/u714A4eXv7AIAKIWWrRDv3kHaFM4euf9Oz8ONBe/6x0RWrNauEC6YvXnb82eDSdjHX9cuPP/mC0X26aBd8phf5ol3yZ3Bf5+i8B/7j9gDOmoHACgNTHZ2Nt/ZAXH24YcfyvHHH6/dzn046Uv5cuYkmbF8ofy2brn4xkjFcplSo0JlqVOphjSuUVcaVaktNStUkdqVq0vzuo2kasXKklFgItVxP7RZsnK5bNq8SRrtsquubt+wYcOkS5cuQXgZa2561U3OOh07duQHsAASyr3g4Zhjjgkm6t2vblK34JncborevTikUaNGupLHXUNd8Pvxxx/LJ598Ely/iuPtt98OJocBxNf2XgQFYMfci/4AAKWTmThVvGP6a1c4/4lr47ut8fKVkrFn+Ilae1ov8e8ZoJ1at14ydu+tTXj2lCPEvy8FzrN14Xu/G8V8P00XovHv7i/2dL7vBIDShq2bgRRz2J7d5cY+58mLZ90oH1/0oHx64QPy3v/dIYNOuU7uO+ZS+VePE6Vvp0Ok5x5dpUPTVlK9cpVtQl7HTZ/VqVZDGtSKfXhbFO4Hr26KFAASyU3ajxgxQg488EB57733pFevXsFW6vncBPvfQ17HXUPd7gUO004AAAAA0s7cBVqE1CTvmKp4MUNHaxXO9rZt9i67S6sIdqsn/gXhhjPizbvqwaKHvFeeRcgLAKUUQS+QYspmlAkmeKtkVpSqmZX+urm+Uu56hbLlpVyZslK2TBkp42WIyf3fjnjGy70lbwtetz2zm6Jz2yW7bZLZDhhAMrit0d944w258sorg3O69913X7nmmmuCc3m3xwW7t912m4waNSo4w7e407wAAAAAkGoinc+by8Y76B0+VqsQqlUW+7dtpM0HY8R8/JV24fmXniyye2Ptkscb+JCYT77WLhrbr4/YAadrBwAobQh6AcSF7/tByOsm59z5l9ubmAOARHHbMw8cOFDef/99adq0qTz33HPBedm9e/eWV155Rb766qsg2H366afl4IMPlkceeURq1KghzzzzDC9SAQAAAJB+5i7UIoRGu4pUq6JNfJivJ2lVuGCat0Ed7XJtzhHvgtu0Cc8ef0iwBXSyubOSzSsfaheNPeoA8f97qXYAgNKIoBdAXLhQxU3CHXroocH5v5yZByAVdO/eXb744gt56KGHpGXLlvLNN9/IgAEDgvN7TzzxRLnuuutkypQp0qZNGxk+fHiwtTMAAAAApJ154Sd6bfOGWsWHGTVRq3D+vm2zd8kdWkWway2xF/TVJnnMC++JeWiwdtG4z4N/bwqcLQwASCqCXgAAUKqUKVNGTjvttGCKd+TIkUG427dvX+nZs2cw9fvuu+8GYXCLFi30dwAAAABAejHztn+UzXY1jvO2ze9/oVVI3bds2+y2O3bbNkflX3aK2D2aa5cc7nl71z+uXUTNG+WFvFUr6QIAoLQi6AUAAKXWnnvuKf3795cnnnhCXnvtteAc3/3220/fCgAAAABpaP5vIitXa1O4uJ/PO+IbrQpn92oltv0/tBPx/u8mrcKzvQ8MzrVNJjP+J/GuekC7iKpVEf/eASJxnrQGAJQMBL0AAAAAAAAAUEqYOQu0CimeQa+bLF6+UpsQum2Z5vUuu0urCGpWE3thkrdsnv1rXsi7aq0uROPfN2Cb7asBAKUXQS8AAAAAAAAAlBZZEbZtduIY9Jqho7QKx3bLCzjNyAli3vk8qKMItmzusGUiOOFWrhbvqgdFZkcM25V/x2Vie+2vHQAABL0AcrVt21YrAAAAAAAApLNI5/OWLRPXrZvN8LFahdBo178mWb3/uzn4NQr7z33FnnecdsnhXfVQsG1zUdgrzhB71tHaAQCQh6AXgDRt2lTq1q2rHQAAAAAAANJWhKDXNmsoUq6sdrFnpszSqnBByFulkngD7hXZtElXQ8r9ffaCE3LfodGFxPOufVTMh2O0i8ae2Vv8f5+pHQAAWxD0AgAAAAAAAEApEWmit1kDLWLPDPtCq3Dcts3my+/FvPGproTnX3qy2C7J29HOPPCymBff1y4ae8S+4t95uXYAAGyNoBcAAAAAAAAASoMNGyNN9KbM+byZ5YOJXu//btKF8OxBncWef7x2iWde/kC8+1/SLhrbqY34916hHQAA2yLoBQAAAAAAAIBSwMxZKLIx/LbHdrd6WsWeGTFeq8K5aV7vf2+JrFuvKyGVKyv2wr5x3X56Z8zHX4l3zcPaRdS0QV7IW6OqLgAAsC2CXiABypQpI5s3b9YOAFCauOu/+3sAAAAAAJJu7kItQmoan62bg7N5N4X/WZmb5jWvfKhdeP5lp4jdby/tEst8N028qx7ULqLKFcW/d4BIy8a6AADA9hH0AglQoUIFWbt2rXYAgNLEXf/d3wMAAAAAkHRZEbZtzmUbx2ei1wwdrVU43lNvaRWeC3iTtmXzvEVirrxfZPlKXYjGhby2e3vtAADYMYJeIAGqVq0qy5cv1w4AUJq467/7ewAAAAAAks1kLdYqhGpVROK0dbP5aKxWhbN7NBdZuVq7kIzJ27K5ckVdSKC12eJd/aCYGVm6EI1/68Vij+6hHQAAO0fQCyRAnTp1ZOHCiFvjAADSgrv+u78HAAAAACDpImzdbJvFZ9tmWb020vMwU2drFZ69/FSxB3XWLrG8qx4Q89Uk7aKx/zpN7DnHagcAQOEIeoEEqF+/vqxYsUJWrizadi0AgJLJXffd9d/9PQAAAAAAyRZpojde5/O+/4VW8WG7thX/3OSEpd5NT0beljqfPfUI8a/upx0AAOEQ9AIJ0rRpU5k+fbp2AIDSwF333fUfAAAAAJLOnRf762/ahNAkPi9YNUNHaRUf9oK+IjWraZc45tHXxDz7jnbR2EO7iX/vFdoBABAeQS+QIM2bN5c1a9bI3LlzdQUAkM7c9d5d9931HwAAAACSzUTYLtmx8Tqft4jbGodhL+or9vB9tEscM+Rj8e56Xrto7F6tCHkBAEVG0Ask0J577ik//vijLFq0SFcAAOnIXefd9d5d9wEAAAAgJcyLsG2zE4etm83Xk7WKvSAwPfd47RLHfD4+OJe3SBrtKva+f4vUrqELAABEQ9ALJFDVqlVl7733lokTJzLZCwBpyl3f3XXeXe/ddR8AAAAAUoHJijZ4YBvHfqLXvF+082vDsBecILJrLe0Sw0z+RbyrHhTxra5EUCFT/HsHiG3VRBcAAIiOoBdIsF122UW6d+8uc+bMkfHjx8vKlSv1LQCAksxdz9113V3f3XXeXe8BAAAAIGXMixD01q8TlylTM3ysVrFlzzlWbO8DtUuQhUvFuJB3yTJdiMa/p7/Y/TtqBwBA0RD0AkngJrz23XdfqVy5snz55ZcyduzYYALMhQSbN2/WewEAUpm7Xrvrtrt+u+u4u56767q7vjPJCwAAACDlRAh6bZM4nM+7+HeRZSu0iR27R3Pxzz1WuwTZuCnYrtlMna0L0fg3XSj2uEO0AwCg6Ex2dnYR9pUAEEvuLMelS5fKqlWrJPdrkrAXAEqAMmXKSIUKFYJQt06dOlK/fn19C4BkyczM1ApAGDk5OVoBAEqDjHZ9Qwet9tQjxL/3Cu1iwzz5pni3P61d7PiPDBR7fE/tEsP7191i3hqhXTT2kpPFv/Yc7QAAKB6CXgAAAABpgaAXiIagFwBKkV9/k4xuZ2hTOBdEukAylrwjLhHz4wztYsOecZT4d/1Lu8RwYbULrYvCnniY+A9epR0AAMXH1s0AAAAAAAAAkMZM1mKtQmoS+x2LYh3ySsvG4p93nDaJ4QLeIoe8B3eJ+ZQ0AAAEvQAAAAAAAACQzuYu1CKkxrENes3HX2kVO/4FJ4g0b6Rd/Lmtmou69bTdc/e8kLdMhq4AABAbBL0AAAAAAAAAkMYiTfRmeGJjPNFr3v9Cq9iwJx0u9uR/ahd/ZvS34l31gHYR1a8j9r4rRHatpQsAAMQOQS8AAAAAAAAApLN5ESZ6mzYUqVxRm9gww7/UKgaaNhB7/gnaxJ+ZOlu8qx8U2bhJVyIoW0b8e/qLbdtCFwAAiC2CXgAAAAAAAABIZ/MWaVE427ieVrFhZmSJbNqsXfH55x0vtlUT7eJsyTIxVz4gsnCpLkTjtmu2B3XWDgCA2CPoBQAAAAAAAIB0tXFTtK2bY71t89BRWhWfPe4QsWf11i7OfCveVQ+K+XGGLkTjX3+e2L6HagcAQHwQ9AIAAAAAAABAmjJumnfdeu0Kl7Ln87qzbs87Tpv4c2fyms/HaxeNvejE4AYAQLwR9AIAAAAAAABAuoqwbXMglkGvO9d2zgJtise/4Hix7VpqF1/eXc+LGfKxdtHYE3oG07wAACQCQS8AAAAAAAAApKuIQa/dLXZn9Jr3R2tVPPbI/cWem5hpXvPsO2IefU27aOyBewfn8gIAkCgEvQAAAAAAAACQpoKtm8OqUlGkaQNtis+8F4PzeWvXEHv+CdrEl3u+3k1PaheN3aN5XshbrqyuAAAQfwS9AAAAAAAAAJCussIHvcH5vBmx+5GxGTVRq6LzLzhBbKc22sWP+WqSeFc/qF1EdWuJvXeASIM6ugAAQGIQ9AIAAAAAAABAmoo00ds4dufzmm9/1qro7GHdE7Jls5mRJd5VD4iszdaVCDwj/r0DxLb/hy4AAJA4BL0AAAAAAAAAkIaCrZOjBL1uojdGin0+b7UqYs8/XqRsGV2Ik+UrxVx5v0jWYl2Ixm3XbA/pqh0AAIlF0AsAAAAAAAAAaca8/IF4l9yhXTi2cT2tis8MLd75vP75x4vt3l67+PGuelDMd9O0i8b/zzliT/6ndgAAJB5BLwAAAAAAAACkEfPkm+Jd87B2ETRtoEUx/bEi71ZE9qDOedO8ceY+R+bjr7SLxp53nNhLT9YOAIDkIOgFAAAAAAAAgDTh3f+SeLc/rV00sZroLda2zRXK553LWzFTF+LDfZ7c1HNR2GMOEv/mi7QDACB5CHoBAAAAAAAAIA14tzwl5oGXtYuoTk2R+nW0KZ7ibNtsL+wrtkcn7eLDDBpa5M+T3W+v4FxeAABSAUEvAAAAAAAAAJRwwVmzT7+tXXQxPZ/325+1isbu0178c4/VLj7Mh2PEu+4x7aKx/2gi/j0D4j5tDABAWAS9AAAAAAAAAFBS5fjiXXi7mFeH60J0dq9W4j90tXbFY0ZN1CqiMhlizz9BpHpVXYg9M35KEIgXSa3qYu+7QiSGgTgAAMVF0AsAAAAAAAAAJdHKNeKddb2YYV/oQnR2/47iD7pVpEl9XSkeM7Ro5/O6kNce2k27OJi9QLyrHgg+Z0Xh3ztAbMfW2gEAkBoIegEAAAAAAACgpFm0VLxTryn6BG0ue8S+4r96l8guNXSl+IpyPq/tvIf45x2nXRysWpsX8s7+VReicds128P30Q4AgNRB0AsAAAAAAAAAJcmMLMk4ZoCYSb/oQnT2hEPFf/ZmEc/oSgzMXSiycZM24dnzjxepU1O72HMhrxn/k3bR+Ff1E3taL+0AAEgtBL0AAAAAAAAAUEKY76dJxmEXiixcqivR2bOPEf/h2JzJW1BRtm225x0nttf+2sWed/3jYj4Yo1009uw+Yvufph0AAKmHoBcAAAAAAAAASgAz5nvxel8usmmzrkRnLztF/Nsv0S62zPvRgl7b/h/in3e8drFnHnxFzAvvaReN7X1g7ufpUu0AAEhNBL0AAAAAAAAAkOLM8LHinTJQu6Lxr/m/4BYv9piDRCpmalc4N80rDepoF1vmlQ/Fu+9F7aKx3dqJf+8V2gEAkLpMdna21RoAAAAASqzMzPA/VAQgkpOToxUAFMKdubpgqZhFS4Ptgs2CJWKrVBKpUjH3lvtr5Ypid98tboEdRMybn4rX/17tisZN8botmxPBvPaReI++JpK1WFe2Zc86Wvw7LtMutswnX4v3fzdpF1GL3STnhVtEmjXUBQAAUhdBLwAAAIC0QNALREPQC2BnzIQpYr74VmTURDGTZ+jqztmWjUX27SB2n9xb7q9SrbK+BcVhXhgq3vWPaVc07jxee8Kh2iWOeW+UmOffFfPdNF3JY1s3Ff/pG+MSprozjL1+uY+9bIWuRFC9ivgv3Cq2S1tdAAAgtRH0AgAAAEgLBL1ANAS9ALaxcrWYF94X750RIrMX6GIR1ast/rnHinXnr2ZwelxRmYcGi3fvIO2KoHw58R+/VuwR++pCcpgPx4h57WMxoyYGvf/gVWJPPCyoY2r+4iDkNb/M04Vo/GduEttrP+0AAEh9BL0AAAAA0gJBLxANQS+Av+T4Yl54T7wXh4nMKWbA+ze2/T+Cc1jtsQfrCsLyrn88+O9SZLvUEP/Zm8R23kMXks9tqWw++0b8++Jw/u269eKdfaOYsT/oQjT+HZeLPau3dgAAlAwEvQAAAADSAkEvEA1BLwDHbalrrn1EzJRZuhIf9sgDgu2DpUJ5XcHOeOffFkzBFlmT+pLzyh0iTRvoQvrzLr1TzLsjtYvG/vtM8a84QzsAAEoOgl4AAAAAaYGgF4iGoBeA+fBL8c6/Vbv4c+eeBuey1q6hK9ge79gBwRnJRWX3aC7+uw+KVKqgK+nPu/lJMc+8o100borXTfMCAFASEfQCAAAASAsEvUA0BL1A6ebd/oyYJ9/QLrFyvnhepEUj7fCX9Rsk49ALi7V9dhCmu5C3FDGPDRHvzue0i8adx+vO5QUAoKTy9FcAAAAAAAAApUBwjmmSQl4n48D/E/PTTO0SZNFSMY8PEfPpOF1IMX+skIz2JxYv5D2ka+kLeV//pOghb+c9xL83DmcFAwCQQAS9AAAAAAAAQCnh/ffZlAg7vaP/JbJgiXZxsmK1mBeHBVshZ3Q5Xbw7nhPz1mf6xhQyb5FktO8rsmadLkRn+xwk/ku3a1c6mJETxLvqAe0iatZQ/HsHiFSvogsAAJRMbN0MAAAAIC2wdTMQDVs3A6WPeX+0eBf9V7vks3u2EP/dh0QqlNeVGFibLebjr8S8O1LMl9+LbP7bta5aZcmZ+k7uJ8PoQnKZqbPFO+xC7YrGntZL/HsGaFc6uIlwr98NIr8t05UIqlQUf9BtYru10wUAAEougl4AAAAAaYGgF4iGoBcoZRb/IRnHXyGStVgXUoM9+Z/i3/9v7Ypo02Yxn48X894oMZ99E5x1uzP+0IfFdmqjXfKYL74T79RrtCsae1Ff8a8/X7tSYtFS8c6+ScyUWboQjf/U9WJ7H6gdAAAlG1s3AwAAAAAAAGnOe/H9lAt5HTPk42JvJW2+nybeOTeLGfZFoSGvY774VqvkMW9+VuyQ17/h/NIX8m7aJN7VDxU95L3tEkJeAEBaIegFAAAAAAAA0tms+WJeGKpNdLZVU/HvuFxyFn62zc3//Gmxl54s0qCO3js688TrWhWN7bqnSKUK2oWQ5KDXPPmGeP3v0a5o/EcGir2wr3alh/n2ZzGjJmoXje1/mtj/O0Y7AADSA0EvAAAAAAAAkMa8F94XWbNOu/Bsz27iP31jXph7Vm9d3VoQAv/nHMmZMFj8/90gtmVjfUt4ZuLU4oe9B3TUqnBm6hytEs+79X/i3f6MdkXjv3aX2ON7aocwgnOMr+qnHQAA6YOgFwAAAAAAAEhXC5eKGRR9mtcedYD4L94m9sj9daVwwe8pYtjrvf6pVkVje3TWKgS3vfOSZdokjnfpnWL+95Z2ReB54n/+jNgD9tYFhGEP6y7+PQO0AwAgvRD0AgAAAAAAAGnKTctGlR/YFknLxkULe9320pN/0aYI9mqlRTgmwecVeyddLebdkdoVQdVKkvPD62JbNdEFhGE7thb/3iu0AwAg/RD0AgAAAAAAAGnKTPhJq3CKFfLmK2rY+/VkLaKzzRtqFdK8hVrEn3fkpWLG/qBdEdSrLTnT3hPZpbouICx77Tl83gAAaY2gFwAAAAAAAEhTZsR4rcKxJ/9Tq2Jq2VjsSYdrE475dJxWRZBZXqRW+EAvURO9wSTvpGJMKu++m+R8+6o2AAAAWyPoBQAAAAAAANKQmT43OKM3tKYNxB4U4azbQtjTjxSpVlm7wpkJU0Q2btIuOtu4nlYhLFiiRfx4595crEle26Wt5Ix+TjsAAIBtEfQCAAAAAAAA6WjqbC3CsT27aRUjlSuKPeZgbUJaECGY/rtda2kRwsbNWsSHd9fzYj76SrvobK/9xX/3Qe0AAAC2j6AXAAAAAAAASENm3iKtwrF9D9UqdvxLTtIqHLOoGEGvifCjzhxfi9hzAa959DXtorP9+oj/zI3aAQAA7BhBLwAAAAAAAJCO5izQIoSa1cTu0VybGGpQR4uQomw1/Xee0SIEG6egd/EfwTRvUflXniX+fy/VDgAAYOcIegEAAAAAAIB0NDt80GtbNNIquUxxzs71Ivyo07daxJb30Csis+ZrF41/d3+xA07XDgAAoHAEvQAAAAAAAEAaMvMWahXC7rtpkVx21120KgI/wpSujX3Qa36aKeaVD7WLxn/hVrGnH6kdAABAOCY7Ozs+L18DEHN+7jcsOTk5ud+L2L9+dfJ/BQAUnTF527y5XzMyMv761YsyFQAgqTIzM7UCEIb7ngJAGvv9T8nocKI2hfNvvEDsBSdoF1sZDcKf/eu//F+xB3fRLhrv2AFiJkzRbufs0T3Ef/I67WLDG/hQkYJe/8XbxPbsph12xoybLN4JV2pXOP+t+8R2b68dAADph59cAinOhbsbN26U7Ozs4ObqTZs2Besu4CXkBYDYyL+muuuru87+/drr1gEAAICSwkQ5n9eJ10TvshVahFSMiV6zIML5vg1qaxEbRZ3m9W+/JGVCXjP+J/EuvF0y9j0rCOcz9jlTvPNvFTN0lN4DAACkGoJeIEW5QGH9+vVBwJAf7AIAEi8/+HXXY3dd5noMAACAEmFuhG2bc9nm8Tmj18z6Vatw7K61tIrIvRB+8e/aFM42qKtVbJjXP9EqPHvucWLPPka7JNq0WbzL7hLvuCvEDPtCZN6ivPWsxWI+/FK8i++QjC6niXnz09xvkBg4AAAglRD0AinGTZNt2LAhCBTYSg0AUou7Lrvrs7tOs6MCAAAAUpmJEvSWKyvSuJ42MTYjS4sQypcTqVlNm4hcyBvl3+iNYhj0btosZsR4bcKx+3cMtstOBd5p/xHzzufa7cDCpeL1v1cyDjlPzGff6CIAAEg2gl4gheRPjG3evFlXAACpyF2n83dcAAAAAFJShK2bbYv4TPM6kSZ6G+2qRXRmTrQJZmkYu6DXfDpO5NfftAvHXnuOSEbyfzRrHnhZzFeTtAthRpZ4/W4Q75j+Yr6fposAACBZCHqBFOHOf3Q3JsQAoGRw1+v8azcAAACQcpYu1yKEFnE6n9eZGX6i1xZnynbmfC3CsU3qa1V8kad5+/QQ266ldkm0br14T76hTTRm4lTxel8ehL4yO+J50AAAIGYIeoEky9+qmakwACiZ3PWbrZwBAACQctZkaxFCPCd6ZyZoojdK0JtZPu8WC9nrxXw2TptwbN/DtEou8/WkIOwtDreNc8YBZ4t58k1dAQAAiUTQCySRCwXWr1/PVs0AUMK567i7nhP2AgAAIFWYCAGerVxRqxhbmy2yaKk2hbMNamtVBLPDB8q2aQyned0065+rtCucO5vXHtRZuySLOAW9M97tT4t59h3tAABAohD0Aknktvv0fV87AEBJ5q7nbOMMAACAlLFmnRYhxCnojXQ+r1Ocid7Fv2sVQoPYnc8bJWB27PE9tUoBG2O7u5x305MiUf47AACAYiPoBZLEhQFM8gJAenHXdcJeAAAApAQ3TRtW5QpaxNiK1VqEVL+OFkXw+59ahNAwdkGvmRFhKrZipti+h2oT0Zp1Yib9Iua9UWIeHizeAy+LmTpb31hExQjWd8R77l2tAABAIpjs7Gz2GAQSzJ3nSBAAAOmrXLlyUrZsWe0AJEpmZqZWAMLIycnRCkDa2bRZMpocoU3h/JduF3tIV+1ix3zytXj/d5N2hcsZ84JI84baRRD1473+fLEX9dWueLyzbhAz4hvtCrFbPckZ95I2O2dmZIl54nWROQvEzF0ksnylvmULNx3sPzJQuyL4c5VktD1emxhp2kByxg7SJvbMuMninXCldoXz37pPbPf22gEAwvrzzz9lzJgxMm/ePJk/f37wq7tlZWXJihUr9F5IBUz0Agnmzm90QS8AIH256zzn9QIAAMAx/3tLzNNvixk8XMy7I4Pw04z9Qcz308RMnyuStVjkjxUiEc7ULdS6CNO8TrzO6N0Q8UXutappEdHvy7UIqVEMt26O8L5tlI9vc46YNz8T89207Ya8jvlgjMjqCFt0/12NqmJPCR+QhzJ3oRYAgJLojTfekKOPPlpq164txx9/vPz73/+Whx9+WIYOHSqTJ08m5E1BBL1AgrlJXn74DwDpzV3n2bkBAAAAjvfIq+Ld8pR4Vz8o3qV3BhOu3klXi9f7cvEOOV8y9jlTMtr3lYzdewehcEysiRj0VorT1s3rN2gRQoYnUr2KNhFF/XhjuGWxifK+a9fQonC2TTORmoUEwxs2infns9oUjX91P5FdqmsHACiNpk6dKtdcc420aNFCTj31VBk+fLi+BSUBQS+QQL7vcy4vAJQS7nrvrvsAAAAo5TZH2Ca9XIyO/4hyPm8uG7egN8KOZoWFmjthNkbcOa1MhhYxsCbCRG2dmlqEY/v00GrHzIvDgnN7iyz3OeUMe0Skbi1dKKZmRdh6GwCQNF988YUce+yxct999wVbM6PkIegFEojpLgAoXbjuAwAAwJ0fG1qMAkgTdRvoeG3dHGGi19aoqlURRPkcO7F8QebqtVqEEDHo9c/srdXOeZfcIebtEdpF5z31lsiSZdoVjz1wb60AAKnunXfekUMOOUTmzJmjKyiJCHqBBHFTXTk5EV7FCwAo8dx1n6leAACAUi7Kzl6xmuiNejZu5ThN9EZ5HrWKsX1w1KA3J0n/Rp86W4uQWjYWe1BnbXbOu/xu8a59JNIZuebNTyVj/7PFvPi+rhRTZnnxzz1OGwBAKrv77rvlxBNP1G779tlnH7n99tvl2WefDbZz/vHHH2X58uXBLnbcUudG0AskiPuCAwCUPlz/AQAASrkooWLZMloUU9THKVdOixiLsm31uojn7BZkjBYhxTDota2aalU4MyNLq/DsjRdoVTi3jXPGfv3EO/pyMQ8PFjNllr4l18rVIjOzxIyaGATCGXufLF7/e0XmLNA7FJ//yNUiTeprBwBIVUceeaRcd9112m3rhBNOkHfffVfGjBkTnN3br18/Oeyww6RNmzZStWoxduBAXBD0AgnCNC+SYcPiaTJu1AgZNmyoDB2aexs2TEaM+k7mrornq5d9WTlnonw1baX2ubLGBe9/XPTvaYESj+s/AABAKRZ10jRmQW/EyeA1EbYfjiIzQoCcHX6b521UzNQipFj+G711+KA3mLZdsVqbcKyb6u1/mnbhmO+miXfPIPEOv0gyGhyad2tznGT0OFe8068NAmH5LTZbNQcqVRB/yN1ijzxAFwAAqeqiiy6STz75RLutHXHEETJ+/HgZMmSI9O4d7vgAJB9BL5AAbttOtu5EQvkbZO744fLxhBmydHN5adSinbRr305aNqqe+w38Avlx1McyLqsY30Tv1K/y80+LJJshRiDA3wEAAAAILcoE7M6UixgYrynGNO3ORAh6TTGCXhs16I3hv8+jTPQ6Jur2zbn8q/qJ7dRGuyRq2kBsr/1E6u0iUqWi2D13F//qfpLzzcti9++odwIApKrHHntMnnnmGe22duONN8qwYcNk7705a72kIegFEoBpLiTa8p++lB9/2ySVmuwvvQ/dXzq0bipNmzSV1h32l56HdZeGFTfJ0h/HybQ1+hvirXF36dOnj3RvrD1QyvD3AAAAQCkVdUJ30yYtisdGnOg1a9ZpFWOZ5bUIYd16LYqgUsQzhtfGMNiOMtHrzCzaVlf+oNuCoDWZbPuW4j9zk+R8+5rkTB8q/sdPiP3XaSI1q+k9AACpatSoUdK/f3/ttjZ48OAg6EXJRNALJIC1VisgATbNlanz14pUbild29fc9kJfvo7s3aa+lPU2y4plW14x7bZ5/urzYXlbPOfehn3+lUz7reArqrNkXO76iJ+WytKfvpSP87eD/nCkTJynW0+t+FFGDJ0kS3PLtXNG5759hPy4Irf529bNK38akduPk7mr5srE/Pc5bJh8PPZHWfrXu1wpP36Wu/7N378J3s66v1rmfjtaRnyozyn3Nmx4geflBM8h9/nMmyIj3XN321hPcs8UiD/+HgAAACjFykfYvnhDbILe1JnojRD0Zhcj6K1WWYuQ5i3Sovhs9/a5n+/wwbr5+ketIqpRVXIG3ynSaFddSIKoW4IDAFLC0qVLdxjyvvrqq3LSSSdph5KIoBdIACa5kEibshbIcl+kZuMWUkXXttGgs/Q6sqd0b5z3TfeGrHHy+YQZ8kdOTWnaup20a9lQKm36Q2aM/3ybLZ6zf/1Wxi3cJLXddtC596uSsVoWTf5KJv2R+8ZKDaVV+9y13LJsnZbSrn0raVgp+G3b8adMG/ujrKzYWFq3by1Nd6kgG5bNlXET50q0H21skNlfjZQfF68Tr657n+2kdbM6Uknc8/pSJi7UuwXWytyf5ovXqLW0a9FIGtSvo+tAfPH3AAAAQClWPkI4tjFGQW/USeKSPtHrwvQaVbUpnJmz1TeKxWZ7dNKqcObDMUXavjnQuJ7kfPKk2H076EKCrUrUtmAAgFi69dZbZerUqdptcemll8qJJ56oHUoqgl4gAZjkQiKtXrs29//LS7WaIX+Y4C+QH6cslU0Vm8r+PfeVdi2bStPWe8vBPbtLw/KbZOm0aeIy3Hy+rSbtDjpY9nbbQbv7dWsqlWSD/LF4pUjZmtKwyS7iNs0qV7m+NG3SUHb8NDZJuQb7S8/u7aRlk5bSrntP6VA3d3nZbxLptdVrsmTRKpFKTfaVgzu1Draobrlndzm4S+Pcz8ImWbk893kVULZBJ+nRoWXuc+8grcl5kSD8PQAAAFCKRZj2lI2btSimKO/TWeO+j4yDzIjP49fftIjO1q+tVQhzF2gRG1GCXscMHa1VEVSrLP6Qe8S/8YJoQXosxHASGgCQGPPnz5fXXntNuy3OOusseeihh7RDSUbQCwBpZnW2m8AtE/4Kv3ix/LZZpGbT1lKz4O8pU0daNq4ismGRLCi4w3H1+tK04PeS1auJG9pdu9bt0RxFeanTqKbWeapXCh5JVkZ5qMotZf8j+0jPPf92JtAuNcStbNy89Svia9Qi3QUAAACQQFG2bo7RGb3Rg94U2Lo5l1mwRKsiiBD0mrmxDSztgVGD3lHFm6L2jNgLTpCcz54S27ObLhZTxcxC/3uZX+bF9nxjAEDcuZB35cqtB2F69eolzz33nHYo6Qh6gQRgkguJlBeWbhbx8/pCbd6ce9eyUqXqtj8IqFLRzeZukuyC38dlxOqvjghhdBibN8jaZYtk7rxpMmn8lzLyw7yzgjdtiNMr04EI+HsAAACgFAu+rwrHrIrR9y9Rg97V8fm+ye5WT6uQijHRK03qaxHC/MVaxEiU9+0sWFK8qd58zRqK/+Jt4o94Wuy/ThPbtoW+ITx7cBfxH71Gcqa8LbZ7O13dMfPVJK0AACXB9qZ52a45vRD0AkCaqVbVBb0bZOXynbwSfNNs+XLYcBn5w9LQeXDq2iALvh0hQz/8WEaMnSg//jRXFq3KkfIN6uz4jGIAAAAASBBbzX2PFtKfq7Qopshn9MZpSjP3+zIpk6FN4cyvRZ/ota2aahXS7F+1iA176clahRNM9caIbd1U/Kv7if/Jk0Fg6z9xrdhTjhDbrd22twM6ir2or/jP3CQ5094T/+X/ij3ukLzJ871a6SPumHnhPa0AAKnOhbxTpkzRLs/uu+9O0JtmCHqBBDDGaAUkQP1dgy2Yl2fNktW69HcbshbJcn+TSGYF8cqUyf3LYJOsXrVtMLx6nftmv7xUSmZimr1Otn5t+WpZu15LZ+GP8sPCtVKpUWfpeWQf6dO7l/Q6tIfsu0cdifgadiBu+HsAAACgFKteVYsQYhX0Oo121aJwZvHvWsVB4whTvVudGxTRHs21CMd897NWseGf1kurcNxkbLAVcqzVqCq2z0Hi33eF+G/fv+3ttbvFv/58sb32EwleKL6F7dhaqx0zY77P/dxN0w4AkMp2NM1brlyEYyWQ8gh6ASDdlG0qrRuWF1kzQ8ZPXr7txO6q2TJhxvLc+9WRli2qiNSrJ7uWEVk+d5osL3jnzUtlRtbq3PvVll23Pko3QcrkvQh93Rr5s8Dz2jAvS/4o0K9cvjL3YywvdZrUl0oFXrS+Ye4iyf0oAQAAACC5akR45WwMg17bsK5WIcyL7Zm1BdlGEYLeYmzdHEz0euFfYGk++0arGNmtnthTo4W9MmHrKatkswd1Fqle+J9Xc8NjWgEAUtmsWbO02oJp3vRjsrOzOTQOiLPcrzPx/ZK/QS5KEH+5TPvyG5mxYpNIxZrSuGFDqVZhk6xeskAWLF0tm6SSNN23p7TTAHdD1jj5fNJS2VRhF2napL5UyVkuc7MWyOoNZaVOh0Oke+PyuffKknFDJ8nSuh2kT7fGeb8x8Pf1RTLxw4myKKOOtGzVSOo2aCg1F42TobmPX6dDn9zHEln50wgZPUek6YG5z6F63qM4f19fPX20jPxlpZSt3FCaNs99sn/MlbmLfSmXuVbWVtH3t3CiDP92kWwqn/txNsv9OMutl+Vzs2TBmg15D1pb75f7MRZ8DkAieZ4nFSqEP5sNQNFkZmZqBSCMnJwcrQDEk3fLU2Keflu7QuzeWHJGP6tN8XgD7hPzxifaFWK3epIz7iVtYsu79lExL76vXSFqVA22Hi4q77ALxUydrV0hKlWQnBkhn1dIZuwP4p10tXaFc1smu/NxU4l3/WNiXhiq3Y7Z43uK/8hA7RLHjJss3glXalc4/637xHZvrx0AlB4bNmyQqlVz/14t8G/+Bg0aSFZWlnbJs2Lzevkj97bK3yjr/c2SY4kpi4OgF0iAjRs3yqZNOzkvFYgLX1bO+UF+mL1EVq/fJMFrDbyyUmWXptKqQ2up/7fMacPiafLtz7PkjzV5L0rwKteXf3RoJy1ruZDXCRv0iiyf/qVMmLlcNuQ+VJ2OfaS7X7SgN/dZydKfJsj38/Iey3NhbocuUm3exzJJtry/1fMmysSpi2T15tzG86RSjUaye7vmsu67kTJjQ2PZ958dZBeCXiRR2bJl2RYHSACCXiAagl4gMczDg8W7Z5B2hahVXXJ+fFOb4vHuf0nMAy9rV7icXz8Jvp+KNfPUm+Ld9rR2hcv5fohI3VraRePd+ISY597VrnD+q3eJPXBv7WLDO/QCMT/nfmMbRvUqkjP1HW1SxIwsyTjoXG12zh7WXfynrs873zdBCHoBIJyZM2dK69Zbb8nfuXNnGTdunHaJNX398tzbnzJ7w0pZmaMDOogJgl4gAVzI68JeAEDp5EJeF/YCiC+CXiAagl4gMcxLH4j3n4e1K4QxkjN3uOSdY1M8bprXTfWGlTN2kEjTBtrFjvnoK/HOvVm7wrkzZO0BHbWLJur7smf3Ef/2S7WLDe+Gx8U8/552hfM/eFTsXq20Sw3ev+8XM+Rj7XbOdviH+E9cF+0s5mIg6AWAcEaOHCmHHXaYdnmOOeYYeeutt7RLjG/WLpbxa5fIss3ZuoJY44xeIAEyMjK0AgCURvw9AAAAUIrV20WLENzWhQuWaFNMjXbVIhyTtVir2LKtm2oV0rSQ07DbYbu30yoc89FYrWIn6oSwGTlBq9ThX90v9JSumfSLZOxzpphHXt35GdNr1mlRTHOjnSdt69XWCgBKlzlztv37tH79+lrF38wNK+TxpZNl+Mp5hLxxRtALJIA7m9HdAAClD38HAAAAlHIN62oRjln0u1bFYyO+X4lT0CtN6gdbUodlfpmnVRFUryK2fUttCtFoV/HP6K1N7Nie3UQy849ACqEYwXbc1K0l/q0XaxOOd/cLktH2+OCcZO/SO8W7d5B4D7ws3gW35a0/+Ybes3jM3IVahVSfoBdA6bRo0bYvjNlllwgvPiuGEavmy8vLpsmSzTF6kQ92ip86AgnCNBcAlE5c/wEAAEo364LOKBYmaaJ3fpyC3lx2763PCNypH6ZrUTS21/5abUfVSmJP6yX+0Icl55uXxfY/Td8QW1G2njbT5mqVWuzpR4o9vqd24Zmps8W8O1LMQ4PFuHOiPxgTTPqaZ94RWRuDia5ff9MiBPcCg3IcoQMAifTmnzNlzJqIL8pBsRD0AglSpkzxz9cBAJQ8XP8BAABKuQrlRapV1iaEBUu1iIEoYW9WtC1xo4hyBq2ZkSUye4F20dljD9ZKeSYIXv3H/iM5k94Q/54BYju10TfGh907wuPPy/28xyIAjQP/3tzP1R7NtSum3I8xCHuLK8LW5rZ+YibXAAB5Xlk2TX7K/kM7JApBL5AgbttOproAoHRx1322bQYAAECUbZTNwtgFvZHebzwnS9u20CIc83Exzs5tUEdsm2YizRuKP/BsyfluiPiv3Z0XAIc8d7bYokww50rVqV73+fIH3xl8TmPBe/qtYofaJsoZ1q0ing8NACgyN8k7Y8MK7ZBI/OQRSKBy5RL0DQUAICVw3QcAACghFi4VM3SUeDc9KWbEN7oYQ1HOyy3OGbV/17WtFiG4ydKly7WJLdsm2lSoGfO9VkXjv3yH5Ix5Qezlp4rUqamriRNpotf5OQXP6c1Xu4bkvH2/SLOGulAMK9eIeekDbaIzH38l8vuf2hXOdo7w5x8AUGQjV//KJG8SEfQCCeSmutjCEwBKB3e9Z5oXAAAgBW3aLOaH6cE2st4Ft0lGp1Mko8tp4l18h5hn3xHzyTi9Yww1a6BF4YKti2PEdtlTq3DMtz9rFWO71hLbOvx0pfl6kshvy7Qrgtz3l1TlyordM/wUs1n8u1YpqtGukjPsEbH7tNeFovOeekNk/QbtojEvvq9VSBH+GwAAimbOxpUyenXRj1xA8fHTRyDB3HSXMUY7AEA6ctd5pnkBAABSh/l6sni3Py3esQMko8kR4h11mXg3PynmgzEii7eeQDETp2oVO/YfTbQKwW1tG6Ptm22HllqFY76LU9DrdGunRQi+FfPld9qUULUjTBJnFy34TKjqVcR/8z7xb7lIpFoVXSyCP1aIeeVDbcIz746MNuldo6rYPQh6ASDePls5XyskC0EvkGDuh/9ly5bVDgCQjtx1nhf1AAAApA7zzudinnxTzIQpurITM7NElq/UJkaiBL25YjbVW62K2Cjn406eoUXs2R6dtArHjJqoVQlVuaIWIawr3rm1iWTPPU5yJg4W/6YLizw57Q0erlV4ZtBQrcKxe7USyeBH3wAQT9+vWyoLN63RDsnC33ZAErgAgLAXANIT13gAAIDUY7vsoVU4sZ7qta3Cb1scmB7Dc3ojTNKaKTNFfF+72LIH7i1Sv7Z2hTOfjhNZFJvJ5qSoEiXoXa9FCVGpgtjzj5ec74aIP+g2sRf2Fdup8HOJ7cFdxH/5v5Iz6lldCccMHh55W3H7z321AgDEy4S1v2mFZCLoBZLEbenJeb0AkF7cdZ0tmwEAAFKP7dxWq3DMxBCTv1GUKyvSpL42hTPT52hVfLbd7lqFsHpd/M7pLVs22lRv9gYxn3ytTQkUZaK3JGzdvAP20G7i33C++EMflpw5Hwa/+m/dt9UtZ/SzkrPwsyDkdWFvFObz8eJd96h2IdWsJvYIgl4AiKf5G1fLok1rtUMyEfQCSeTCAM/jyxAA0oG7nhPyAgAApKimDYIzO0P78gctYse2bKxV4WIZttr20c7plZ9mahF7kbdvdlO9JVWlClqEUIK2bt6p8uWCyV7bvf1WN9k9/J/9gsy4yeJddpfIps26Ek4Q8tasph0AIB6mr1+uFZKNhAlIInd+Y2ZmJpO9AFDCueu4u55zLi8AAEDqsvu016pwZsoskWUrtIuRKGflzlsUu/ffYjeRZg21KZz5KfdjjxN7wN4iu1TXrnBmzPd5/y1Koj8i/PfLyNAC+cyPM8S79E6RldHPfmTbZgCIv1nrY/zvJBQZQS+QZC4UKF++POc5AkAJ5a7f7jpOyAsAAJDaIm/fHONtg6NO1sZ0qjfC9s3m29ieT7yVKpXyzuqNoMRu3xwl6GX6dCsu3PcuvkPkt2W6Ep49+Z+Rt4cGAESzwc+R3zav0w7JRtALpAi33ae7ERQAQMngrtf5124AAACUAPvtpUU45vMJWsWG7dBKq3BiGvTuFeF9z10oZtREbWLPHr6PVuGYIR+LLF+pXQnyx59ahBBlW/F0Nmu+eDc8Ll6vS4I/h5HVrCb+xSdqAwCIl983p8mRA2mCoBdIIW4qrEKFCmzlDAApzl2n3fWa3RgAAABKDtu6acRtg78TyfG1iwH3vhvX0yaEWE7W7tNBi3DMyNiG3AXZIw8Q26qJdiEs+j0v7C1hzLLw4bStXkWrUmrRUvHufF4yjrxMzPPvFfnrzr+or0jzRtoBAOJlRc56rZAKCHqBFJO/lbMLEDI4owUAUoq7LrvrM1s1AwAAlEz2kK5ahbBuvZivJmkTG1Gmes3300Q2bNSueGybZmL3DH9GcDwneh3b+0CtwvGGfCKSXcJ+qBxp6+ZSOtG7ZJl497+UF/A+9prImqJvA2oP6iz24pO0AwDE0zp/s1ZIBQS9QIryPE8yMzP/mhhzPQAg8dz1N3/HBXdd5noMAABQctkenbQKx3z0pVaxEWkL5c05YsZP0SYGokz1xnv75qN7iJSNsJvZ7F9L1lTvuvUiK1drE0Jp27o5P+DtdYmYB14WWbpc31BEu9UT/9FrtAEAxNtGP0crpAJ+UgmkOBcouPMfXcDgbq7OD37dNBkTZQAQG/nX1Pxg9+/XXgJeAACAks8e2Mn9w0+7wplhY3J/k9UuBjq10SIc89UPWhWf3ae9VuHEc/tmadZQ7NHRpnpLUtBrps3VKqTSEvSuzd464P1tmb6heHJeuYNzjgEApZbJzs6O4b9WAQAAACA53NQ9gPBycnglPkonr/fledsih+S/+6DYLm21KybfSkarPkHgFYZt11L8jx7Xrphy32dG9zNFloXcUrhpA8kZO0ib2DMjvhHvrBu0C8e/6UKx5x+vXeoyr3wo3sCHtCtczriXgqnUdGbG/yTm9mcife2F4b//sNi9o72AAgBKg1tvvTW4FXTjjTcGt+Iau3qhfLp6vnZINkZTAAAAAAAAUGrYQ7tpFY4ZHsPtmz0TabLWTJkZOhQuVKUKYru30yaEeG/f3LOb2PYttQvHe/ptkcW/a5e6Ik30li+X/iHvM++Id9LVMQ95c0Y9S8gLACj1CHoBAAAAAABQatijDtAqHPP+F1rFht1vL61C8K2Y0d9qU3wptX1zLnvW0VqFtPj3vLA31f08W4vC2d0baZWevH/dLd7NT4ps2qwrMVBvlyDklZaNdQEAgNKLoBcAAAAAAAClhzsftm0LbUJYskzMtz9rEwP7d9QinFhOFEcOej8dF7uJ4u2wJx0udt8O2oVjnn5bzHcx/O8RB+aXeVqFsHv6hpVe/3vFvDVCu9iwbZtLzqt3EfICAKAIegEAAAAAAFCq2N4HahWOeXmYVsVn/9FEpE5N7QpnPv46dtOQuzcW27G1NiEsWCJm6Cht4sOefYxW4bmwN2UtXCqyco02hbO776ZVevGue0zMm59qFwMVyou94gzx33uIkBcAgAIIegEAAAAAAFCq2GMP1iqcYPvmVWu1Kz4bZap3/QYxn4/Xpvhsr/21CifWW1f/nT1i3+AWhflgjJiXP9AutZgfZ2oVUhpO9Hp3PS9m0FDtis/26REEvP6/zxSpkKmrAADAIegFAAAAAABA6dKgjth2LbUJYeMmMUM+1qb47GHdtQrHBZuxYo8+UKRyRe0KZ778Xsz4n7SLj6JM9Xp3PCtm0i/apQ4z9getwkm3M3pdAG8efU274nHnWfvP3iz+E9dF224dAIBShKAXAAAAAAAApY49/hCtwvFiOEFqe3YVySyvXeHMZ9/EbvtmF3JH3bp66Git4sOd0+vO641k1Voxtz8Tu89LjEQNetNpotdM/kW8O5/Truhsl7biv3S7+K/fE3naGwCA0oagFwAAAAAAAKWO7XuoViHNWSDm68naFFNmebGHdNFmJ2rXEHt2H/FfvUukbBldLL7IQe/7o0WWLNMuPuw5x4pUq6xdOGbc5GCyN2Us/kNk1nxtCme77qlVGsjx84L3COcT/5096gDxX7xN/HcfzP366KqrAABgZwh6AQAAAAAAUPpUqyL2hJ7ahGOee1er4nOh1nZVrST2xMPFf+1uyfluiPi3Xyp279b6xtiwB+4ttvMe2oXw56r4n9W7R3PxB5yuXXjm6bfFvDVCu+SKPM3bvZ0WJV+wlXYRXwgR/Hl//2Hx/3eD2J7ddBUAAIRB0AsAAAAAAIBSyZ5+lFbhmE+/Flm0VLviCc7pzZ/SdRO+Rx4QnEeaM/lN8R+8UuwBHUUy4vejuyJN9caZPe94sf+MvlWvd8NjYn6aqV3ymK8ins/bNU2C3oVLg7N5I2u0a/BnPfjzvncbXQQAAFEQ9AIAAAAAAKBUCqZamzfULgTfivfce9oUU2b5YILVf3ig5Pz4pvhP35B3Hmm5snqH+AqC3hpVtSuc+X5a3lnBcWavOCPyFs7Beb397xXJ3qALyWHGT9EqHNstPbZuNh9+KbI2W7uQdq0l/gu3BtO8AACg6Ah6AQAAAAAAUGr5/fpoFY4Z/GHMAkX7r9Pyto+uVEFXEqhOTbFHR5zqfWmYVvFT5C2cp88V74LbtEsCdzbv/MXaFM7u1SphoX68meFfahVS2TLiP3CV2NZNdQEAABQVQS8AAAAAAABKLdv3MJEK5bULYfU6MW98qk3JFnn75pET8qY346yoWzibz8eLd+0j2iVW5PN5u6XHts3uXF4zcap24fjXnRucEw0AAIqPoBcAAAAAAAClV5WKYk/6pzbheI8PEdmco13JZbu3F3toN+3CKdJZrEVg/32myC7VtQvPvDhMvPtf0i5xzLgftQonbbZt/mycVuG4AN8F+QAAIDYIegEAAAAAAFCq+ecdJ2KMdiEsXCrmnRHalGz29CO1Csd8+b2Y90ZpFz+2TTPxrz9Pu2jMAy8nPOx1ZxhHYbumx0SvRD2X+PJTtQIAALFA0AsAAAAAAIDSrUl9sT06aROOd99L6THV27Nb9KneF9/XKr7cttr23OO0iyaRYa+Z9IvIot+1K5w7h9hNkpd4cxeKmZz7sYdkD+4itn1L7QAAQCwQ9AIAAAAAAKDUs+ccq1VIpXmqd8IUMW8m5pxiN9Vri3iebcLC3nGTtQjpgPQ4n9b9OYjC9j5AKwAAECsEvQAAAAAAACj1goneJvW1C6d0T/UO0yrOypYR67ZwLuIEbCLCXvPtz1qFE3V6PFWZz8drFY49MD0+bgAAUglBLwAAAAAAAGCM+FHPD3VTva9/ok3JFnmq94fpYgYP1y6+7F6txL+uaOf1OkHYe+7N2sWe+XaqViGUySjyhHLKyf3zH5bdu41I3VraAQCAWCHoBQAAAAAAAHLZ43uKNKyrXTje3S+IrF6nXclVlKle7/EhIovDn01bHPaMo8RecrJ20ZmPvhKv75XaxY75erLIHyu0K5zt0TkIe9OBWZOtVQgHpsd21QAApBqCXgAAAAAAAMApkyF+/9O0CWnZCvEeHqxNyRZ1qleyFud+7K9qE3/+tedEf44FuFDWO+oykXmLdCUGJkY8pzadAs+14V/gYGvX1AoAAMQSQS8AAAAAAACgbN/DIk/1mmffEVmwRLuSq0hn9b78gZgPx2gXf/7d/cX2PlC76NyW024bZzMxwnbLOxH1fF7p0laLNBBlkr12DS0AAEAsEfQCAAAAAAAA+dxUb9SzejdtFu+mJ7Up2ew5x2oVnnlosMjKNdrFn//U9WIP6KhddGbaXPFOGSjmhfd0pYjWrBPzXYSgt3E9sW1baJMGcj/+0MqX1QIAAMQSQS8AAAAAAABQgD2tV/Sp3o+/yjuvtYSz+3eMHPaan+eI90jitnB2/NfuFtu9vXZFkL1BvOsfF+/f94ssX6mL0QTTvBECbrvfXlqliV1raRHCL/O0AAAAsUTQCwAAAAAAAPyN/59ztArPu/L+YLq3pPMvOlFkt3rahWOeelPMqInaJYb/1n1iD+uuXdGYIR/nTfeO+U5Xwos0zZvLdk6jbZtzRTl318yYrxUAAIglgl4AAAAAAADgb+wxB4nt2Fq7kLIWi3n6LW1KsHq7iH9RX23CMw8PFsnxtUsM/4VbxV4Y/bkWZKbMFu+Ua8S76/lo585+P02LcGw6nc/rRJno/XmWFgAAIJYIegEAAAAAAIDtsHderlV43oOviCxZpl3JZc/sLfbgLtqFYyZOFe+h3I8/wfwbzhf/9ku0Kzrz6GviHdtfzNBRurITq9eJGf2tNoULXjTQONqUdMqrGz7odWG6rN+gHQAAiBWCXgAAAAAAAGA7bNsWYo87RLuQ3NmvNz6hTclmLz1Zq/DMAy+LeXekdoljzz5G/HsHaFd0Ztpc8S6+Q7x/3S0yI0tXtxV122ZJt/N5nTrht252gjONAQBATBH0AgAAAAAAADvgX3uuVuGZryaJrFitXcllu+4p1p3XG5ELus2PM7RLHHtqL/EfGahd8Zi3RkjGcVeId9+LIr/+pqtbmC+/1yocm4ZBb+QzhydM0QIAAMQKQS8AAAAAAACwI+682qv7aVM4e+LhkjN2kEj1KrpSsgVn9bZopF1Iy1eKueHxaOfdxog9vqf4z9wk0qCOrhTDn6vEPPiKZPzzYvFue3qrCV/z6TitQmhcT+y+HbRJH7ZTG63CiTwFDQAACkXQCwAAAAAAAOyEveRksS0ba7cDjeuJ/+Z94j94ZdqEvIFa1cW/7FRtwnPb9CZrC2vbaz/JeeUOsQfurSvFtGK1mKfelIxel4h33WNifpopMmeBvrFw6TjNG6iYKbZNM20KR9ALAEDsEfQCAAAAAAAAO1MmQ+yj14hkbOdHaWXLiL38VMkZ/ZzYfdrrYnqxJ/QUe+5x2oVn3vhEzKOvaZdgLRuL/8qdYs85VhdiIHuDmEFDxet1iS6Ek7ZBr9N5Dy1CWL0uOAMZAADEDkEvAAAAAAAAUAjbtkUw2VuQbddScj57SvyBZ4uUK6ur6cm/9hyxXSKeyZrLu+t5McO/1C7BPCP+rReLf8dlQSAfM77VIoQqldI66LV7R9u+WSZyTi8AALFE0AsAAAAAAACE4F9xhkizhiJVKor/30vFH/6YyO6FbOmcLsqXE3vtuSKZ5XUhPLeFczInOe1ZR4s/+E6xbZvrSuLYfduL1KymXfqxnaOF/2zfDABAbBH0AgAAAAAAAGGULSP+0zdKzujnxfbrI2KMvqF0sJ33CCZ7I1v8h5gr7xdZskwXEs/u20H89x/Jm76uUVVX4y+tt212dttVpG4tbQrnzm4GAMTfqlWrtNqievXqWiGdEPQCAAAAAAAAIdnWTUV2DR9spRt35q3te6h24ZlJv4h35QMimzbrShK4qWR3nvLQh8WecZQuxlfaB725bKcI2zfPWySydLk2AIB4mT9/vlZbNG2a+28YpB2CXgAAAAAAAACh+f85R2zL6FtWm5ETxOt/j3ZJ1Lyh+Hf9S/zX7hLbo7Muxl5wpnEp2No76jm9TPUCQPwtWrRIqy2aNWumFdIJQS8AAAAAAACA8OrWEnvdudpEY94blTfZmwLsAXuLP/gO8e+7QmzbFroaQ6VgmjfQeQ8twuGcXgCIv99++02rLZo0aaIV0glBLwAAAAAAAIBIbM9uYq84Q7tozGsfiXf9Y9olnz3lCPE/fEz82y4R2X03XS2+0rBts2M7thbxIpxXPWGKFgCAeFi6dOk2E7116tSRSpUqaYd0QtALAAAAAAAAIDL/32eKPfmf2kVjXhgq3n+f1S4FlMkQ+3/HSM7wx8W//nyRxvX0DUXUopHYrntqk/5s57ZaFc78PCf3D4+vHQAg1t544w3ZuHGjdnmY5k1fBL0AAAAAAAAAisS//99i9++oXTTmidfFu/8l7VJExUyxF/WVHDfhe1U/kV1r6Ruisft00KqU6BRh++b1GzinFwDiyAW9f9e7d2+tkG4IegEAAAAAAAAUmf/S7SLNG2oXjXngZfEu/q92KaRGVbH9T5OcT58S/47LI2/DbLuVnmlex3Zqo1VI307VAgAQS5988ol8/fXX2m1x+umna4V0Q9ALAIiLl19+WY444gipXbu2VKhQIfjV9W4dAAAAAJBGypWVnJfvEClfTheiMUNHi3dMf+1STK3qYs/qLf7r94j/3kNizztOpH4dfeMO5H4e7D/31aZ0iBr0mokEvQAQD9ub5nU/k23UqJF2SDcEvQCAmFq/fr2ccMIJ8tprr8nFF18ss2bNkuzs7OBX17t193Z3PwAAAABAmmhcT/whd2sTnQv+vEMvEMlO3e8Vbec9xL/5IskZ9Yz4D1wp9uAu+pat2X3aFzn0LrFqVos01W2mztYKABArLuR98cUXtdvC/SwW6ctkZ2dbrQEAKDb3D4fmzZvL3Xfv+Bv8gQMHyuzZs+Wtt97SFQAAii8zM1MrAGHk5ORoBQCxY94fLd5FxdiK2QXGT98otm0LXUhxM7LEfD5ezGffiBn/U7Dk3zNA7Gm9gro08a64T8zrn2hXuJwxLxR5y28AwNbmzJkjLVu21G6LJk2ayM8//yzlysXuBUhjVy+UT1fP1w7JxkQvACBm3LbM69at22nI67i3u/uxjTMAAAAApBd7dA/xb7xAuyLIWizeaf8RM2qiLqS4lo3FXnSi+O88EGzvbC/sK/bI/fWNpYvttIdW4RjO6QWAmDnkkEO02tr1118f05AXqYegFwAQM6+++qpcdNFF2u2cu5+7PwAAAAAgvdgLThD/unO1K4I/Voh37i1iPhyjCyWD3W8v8W84X6R6FV0pXSKf00vQCwAx0a1bN/n111+12+Lmm2+Wfv36aYd0RdALAIiZb7/9Vg444ADtds7dz90fAAAAAJB+7MUniX/vFdoVwfoN4p1/m5iHBusCUl7LxiLVKmsTwk+ztAAAFMVHH30kNWrU2O7PWI855phgmhfpjzN6gTRVoUIFrYDYyv17Q6ttuT93O3v73xV2f/4cI16i/DkFUHJwRi8QDWf0AkgEM3yseOfdol3R2D4H5W0HvWstXUGq8s64TszICdoVokyG5Pz4VrRwGAAQeOCBB+Tqq6/WbmtlypQJjs3zvPjMenJGb2oh6AUAxEzt2rVl1qxZUq1aNV3ZsZUrV0qLFi3k999/1xUAAIqHoBeIhqAXQKKYcZPFO+FK7YrGtmoq9qYLxR7QUVeQiszDg8W7Z5B2hfNful3sIV21AwDszIoVK+SNN94IbqNHj9bVbf3yyy/SvHlz7WKPoDe1sHUzACBmOnXqJGPGhDtDyd3P3R8AAAAAkN5s9/bij3hau6Ix0+eKd9p/xDzzjq4gJXVpq0U45tuftQIA/N3mzZtl3rx58tVXXwXTux06dJCLL754hyGvG76ZPn16XENepB4megEAMfPyyy/La6+9JsOHD9eVHevVq5eccsopcsYZZ+gKAADFw0QvEA0TvQASbvEfktHpFG2Kzp7aK28r5yoVdQUpY9NmyWhyhDaFsz06iz/4Du2AkuO3336TrKysIIRzt/nz5we/rl+/Xu8BFN2GDRtk0aJFsnDhwtD/Zj/wwAPl888/1y6+mOhNLQS9AICYOuGEE4JXjd199926sq2BAwfK7Nmz5a233tIVAACKj6AXiIagF0BSrN8gGc2P0qbo7N5txF51ltj92co51XhHXCLmxxnaFaJuLcn5fog2QGpz4ZsbcHC3RAVqQBj9+/eX++67T7v4I+hNLWzdDACIqVdeeSUIcd3E7rBhw4KzeB33q+vdunu7ux8AAAAAoJTJLC85Cz8Tu1crXSga893P4p08ULwbnwgmhZFCOu+hRQhLlomZ/Is2QGqaOXOm3HrrrbLXXnvJueeeS8iLlNGzZ08ZNGhQQkNepB4megEAceG2cX711Vfl22+/lTVr1kjlypWDM3lPPfVUtmsGAMQFE71ANEz0Akg274bHxTz/nnbFsFs98S/qK/bM3rqAZDLvjxbvov9qVzj/lovEnnucdkBque666+Thhx9mS2akjPr16wcvODj66KODM3uTgYne1ELQCwAAACAtEPQC0RD0AkgF5vVPxLsiNpNI9uAuYi89WWzXPXUFSbH4d8nodKo2hbMn9BT/4YHaAanBDS1ccsklMnjwYF0BEq9SpUrSpEkTadasmTRt2lQOOeQQOfLII/WtyUPQm1oIegEAAACkBYJeIBqCXgCpwoycIN4Z12lXfPaiE4MJX6lVXVeQaBldThNZuFS7nbOtm4o/4mntgOSbPn26HH744bJw4UJd2b5atWpJixYtZPfdd5fWrVvLnnvuGQRzQHFVqFAhCHjr1KmjK6mFoDe1EPQCAAAASAsEvUA0BL0AUon5cYaYK+4TM22urhRTi0bin3e82NOTP/lUGnkX3yFm6CjtCpcz/hWRhnW1A5JnyJAhcvrpp2u3rSpVqsgxxxwjffr0CX4FSiOC3tTi6a8AAAAAAAAAkBS2XUvxX7pd7EGddaWYZv0q3sCHxPvnxWJe+VAXkSi2UxutwjHf/qwVkDz/+9//dhjy1qxZUx555BGZMmWKvPDCC4S8AFIGQS8AAAAAAACA5KtfR/wXbhF7/vG6UHzmp5kEvsnQeQ8twnET3UAyjRs3LjiTd3u6dOkio0aNkosvvlgaNGigqwCQGgh6AQAAAAAAAKSGsmXFv+lC8V/+r9i9o02F7gyBb2LZPXcXKVdWuxCmztYCSLw1a9bICSecoN3WTj31VPn6669ljz2ivXgBABKFoBcAAAAAAABASrEHdxH/7fvEDtjxWZlFsU3guzZb34JYsxGmes3Pc0TWb9AOSCwX5i5ZskS7LW688UZ56aWXtAOA1ETQCwAAAAAAACD1uOneK88S/50HxO7fURdjIz/wzTjoXPFueUrMxKn6FsRMlO2bl6/knF4kxa233irDhw/Xbotu3boFQS8ApDqCXgAAAAAAAAApy3bdU/whd4t/7TkiFTN1NUYWLhXz9NviHdNfvL5Xihk0VGTpcn0jisN2irjV7aRftAASY8OGDTJkyBDttmjSpImMHTtWOwBIbQS9AAAAAAAAAFKeveTkvOnew/fRldgyX08W77rH8qZ8r35QzOhv9S0oiqhnLAfbNwMJ9Nprr8mMGTO0y1OuXDl58skntQOA1EfQCwAAAAAAAKBEsHvuLv7zt4j/+LVi92qlqzG2YrWYwcPFO+0/4vW6RLz7XxLzw3R9I0KrWklsy8baFI6gF4nmgt6/u+KKK+TQQw/VDgBSn8nOzrZaAwAAAECJlZkZ460cgTSXk5OjFQCUXObZd8R77j2R+Yt1JY5a7Cb2iH2DieK4hcxpxp2DbF75ULvC+SOeFtu6qXZA/IwcOVIOO+ww7fJkZGTIDz/8IG3aRJtGB0qbsasXyqer52uHZGOiFwAAAAAAAECJZM89TnKGPSL28lNjf37v382aL+bR18Q77Vox0+bqInbGdooYmE1ichqJsb1p3tNOO42QF0CJQ9ALAAAAAIGeG8EAAF1rSURBVAAAoOTapbr4A88W/4NHxZ7aSxfjx+63F1OnIXFOL1LVt99uewb3qaeeqhUAlBxs3QwAAAAgLbB1MxANWzcDSFdm7A9inntXzKfjdCW2/DsuF3tWb+1QmIx2fUWWrdBu52zXPcV/5wHtgPipWbOmrFq1SjuRWrVqyZIlS7SLLzMjS+THmWKyFoksWSayNjv3wkJMg1wVyovsUkPsbruKtGkmtmNrfUNqYevm1ELQCwAAACAtEPQC0RD0Akh35svvxbz5mZi3R+hKDJQtKzmfPy3SvKEuoDDe/90k5pOvtStE1UqS88XzInVq6gIQe4sWLZLddttNuzxt27aVSZMmaRd7ZsIUMe+NFPPZN7lP4HddBQpRqYLYg7uI7XNQcEZ8qiDoTS1s3QwAAAAAAAAg7dj9O4r/yEDJGfWs2LOPCX5gXlz2gI6EvBFFOqd31Voxk37RBoiPBQsWaLVFvXr1tIot88V34p10tXjHDhDz4jBCXkSzNlvMsC/EO/dmyTjoXDFDPtY3AFsQ9AIAAAAAAABIXy0bi3/7JZIz5W3xr+onUq+2viE6e+DeWiG0zm21CGnqbC2A+MjKytJqi/r162sVI2vWiffv+8U79ZpgO3mg2GZk5f2ZOvEqzjPHVgh6AQAAAAAAAKS/cmXF9j9Ncr59VfwnrxPbtoW+ITyC3ugiTfTmMtMIMBBfc+fO1WqLWE70mvE/ScY/L2b6EnFhvpok3mEX8ucLfyHoBQAAAAAAAFCq2KN7iP/S7dqFY/ftINJi63M9EYIxYvdurU3hgkk139cOiL3169drtUW5cuW0Kh7z4RjxjrtCZO5CXQHiwNpgutc8NFgXUJoR9AIAAAAAAAAodcwrH2oVDtO8xRBl++a5C8X8wDm9KHnMB2PEO/827YD48+4dJN4DL2uH0oqgFwAAAAAAAECp4706XKuQenTWAlHZvaNt38w5vShp3HbN3gWEvEg8c/9LYgYN1Q6lEUEvAAAAAAAAgNJlyTKR33JvIbmth+0ezbVDVJzTi7S2ep14V9ynDZB43nWPBS82QOlE0AsAAAAAAACgVIm6bbMc2EkLFEmdmiJN6msTwtRZWgCpz7v5SZF5i7QDksPc+IRWKG0IegEAAAAAAACUKlG3bbZs21xsUaZ6zc9zROYs0A5IXWbMd2KGfKwdkDxmyiwxjw3RDqUJQS8AAAAAAACA0iPqts17NA+2bi4VFizRIvZs57ZahZC9Qcz0udoAqcs8+YZWQPJ5T7wusn6DdigtCHoBAAAAAAAAlBqRt21O12neJcvEvDtSvKselIz9+klGg0PFO+M6fWMcdIkQ9OYKpnqBFGa++1nMmO+1A1LAyjXR/45DiUfQCwAAAAAAAKDUiLxt84F7a1WCrVgtZuQEMQ8NFu/cmyWj6+mS0fFk8S69U4z7fMxdGNzNzMgSmR2fLZNty8Yi1atoF8LU2VoAqcm9UAJINeYd/lyWNgS9AAAAAAAAAEqHiNs2S4vdxO7bQZuSyTz3rmQccl4wrevdO0jMR1/tdItmM/tXrWLPdtpDq8IFE70r12gHpB7z6TitgNRhJv/CGeelDEEvAAAAAAAAgFIh6paW6TDNa/fvGC3cnpmlRezZzm20CmHBEs7pRcoKpt8XLtUOSC1m3I9aoTQg6AUAAAAAAABQKpTKbZvdlskRxPVs3C57ahES2zcjVbmpSSBFmR9naIXSgKAXAAAAAAAAQPrKXi8yb5GY8T9Fm2xtWFfsgZ20KeEihL1mUvwCLNs5/NbNTlxDZ6AYzCy2xkUKcxPnKDUIegEAAAAAAACUbIuWihn7g5gXh4l381PinX6teD3Pl4x2fSWjRW/J2Pcs8Y67Qu8cTjDNWyZDu5LNdo0wSTtvUbRAPApjIoW95p3PJaPHuXnnC1/7qJgn3xQz/EsxP80UWbFa7wUkwcIdn3MNJJtZ/IdWKA0IegEAAAAAAACUKGbqbDHPvC3eOTdLRptjJaPzaeKddLV41z4SrJtRE8VMmyuybIX+jujSYttmFSnozWWmxXGStnNbLULYsDE4M9iMnCDmxffFu/1p8c67Vbx/XiwZexwnGe37infUZeLd/xITbEgsXmiAVPbHn1qgNCDoBQAAAAAAAJDy3NbL3i1PScaB54h32IXB5K75+CuRlWv0HjG0S/X02bY5l92/o1bhmO+naRV7Ubdv3qk/Voj5YbqYB16WjIPODf5cGEJfJIJ7EQKQqjbnaIHSgKAXAAAAAAAAQGqaNV/M40PEO/pfwdbL5um3g7V4C6Z5K1fULg3sUl1kt3rahBDHoNR2iTDRG5Gb9PbyQ1/35+WJ10Vmxv/PCwAAyULQCwAAAAAAACC1zMgS77rH8qZ373hOzHc/6xsSwx7YWav0Yds21yqEeE7EVq8isntjbeInmAD/77OS0SP3z1C/G8R8+b2+BQCA9EHQCwAAAAAAACA1LFwaBLsZR10mZtBQXUywyhXT6nzevzRpoEXhTJy3Prad22iVGOazb8Q7eaB4V9wXTP0CAJAuCHoBAAAAAAAAJJ3bljkIeB8fIrI2W1cTLzib1211nGZs0/BBb6CEbt+8M+b1T8Q78lLxbn9aZNFSXQUAoOQi6AUAAAAAAACQNG5bZu+M68S75SmRpct1NXnScprXaVpfi3DiOdVrO+2hVRJs2izmyTclo/fleS8qyF6vbwAAoOQh6AUAAAAAAACQFObBV8Q7/koxIyfoSpKVyUjboNdG2LrZMb/M0yoO3HRxnZraJMlvy4Jtwj03Rf7eKF0EAKBkIegFAAAAAAAAkFDmp1l5Z6be96LIpk26mnzBts0N62qXZurtIpJZXpsQ4n5ObxKnegsw0+eJd8kdYv73lq4AAFByEPQCAAAAAAAASBjz6nDxThko5svvdSV12P330io92SjbN8c76E3m9s3b4d36P/Fuf0Y7AABKBoJeAAAAAAAAAAnhXfuoeFc9KPLnKl2JD9u6qdgTeoo9pKuuhLRPBy3SlNsyOaR4ntEb6LqnFuHYgzqL7FpLu/gwT74h3tk3iqzfoCsAAKQ2k52dbbUGkOJmzJghX331lUyaNEmmT58uWVlZsmzZMlm7dq1Yy5cyABSVMUYqVaoktWrVksaNG0urVq2kQ4cOsu+++0rLli31XgBSXWZmplYAwsjJydEKABLDu/xuMW+P0C6GGu0qtkenYNtl27GVSF0NAxculYxDzhNZvS6vL4Rt00z8z/6nXXry/vusmCde165wOV+9KNIkwhRwRBlNjhDZtFm7nbPHHCT+PQPE/DxHZOosMVNn5/46J7fP/TXkY4RWs5rkfPCoSON6uoB0cuuttwa3gm688cbgFpbX90oxX0/WDkgxZctIzryPtIm9sasXyqer52uHZGOiF0hxLtx1//DYe++9pXfv3jJu3Dhp27at3HTTTTJy5EhZvHhx8AMaF/Ry48aNG7ei3dx11F1P3XXVXV/dddZdb911111/3XXYXY8BAAAAFI135QOxDXlb7Cb+FWeI/95DkvPNy+Lf9S+xR+y7JeTNZcb/FDrkDXRvr0X6shEmeh2TtVir+LBd2mpVOPPjTJFKFf6/vbuBs7nM/z/+/h5kRNGSULmpjdhUKoXSim7FiikrSopdLbKFTQlFatuiW/RXTfd0O+SXm25Qm6KSKEW0cpMkkZvcxpzv/1zfuTA0zPc7c86Zc/N6Ph5nz/W5ztfMGWe6Zs37fK7LO9vX7dJG4Qf6KDxlpHI+e0nh5+6We2nk9Y+WXzapRJPOcj6YaycAAEhMBL1AgjIBQ6dOndSiRQvt3LlTTz/9tNfB+/zzz+umm25S8+bNdcIJJ6hcuXJeJxoAoPDMOmrWU7OumvXVrLNmvTXrrll/zTps1mOzLpv1GQAAAIB/oa53yXkpOp1F7sWNFR55u3JmPCm3b2cv9DsY59Ov7MgfNw2CXgU5o9eIcdCrAEGvvluV28V7oEoV5F7YSOGsuxR++T9y2zSzDxRd6OrbFBrxvK0AAEg8BL1Aglm1apW6deumLl26qFmzZlq7dq1GjBihc84JeKYMACAqzPpr1mGzHpt12azPZp026zUAAACAQwtd2U/OWx/ZqvDMebumezP8zFC5bZtLJXz8WtN09Pp1RFm5fz7TFqnLrRmwo3flajuKDfesgwf1+fpisR3kz216hsKj71B4wkNy/3qJnS0a58EXCHsBAAmLoBdIIM8884waNGjgdZQtX77c6yijWxcAEoNZj826bNZns06b9dqs2wAAAADyF+p4m5zZRTvD0gvunh+m8CP95Z5Wx84WzPlsoZwlK2xVMLdRfenwNDjvv2olKaO0LXxYHuOgN0hHb4S3fbMP5uOGH+yn8Fuj5bY8z84Wngl7nYdetBUAAImDoBdIEP/85z+VlZWladOmeWdBEvACQGIy67NZp816bdZts34DAAAA2F/oluFy/luE803/UF7hB27J3Yq3RSF2Oftonh344zY61Y5Snxtk++YYB70mXHf/dKItfPhiiR3449Y/SeEn71T4nl7S0UfZ2cIJDX9OztgptgIAIDEQ9ALFbPv27Wrbtq13P2fOHLZoBoAkYdZrs27nXccBAAAASKH7npbz6tu2Cs6cuxsee6/cji3tTHCBz+dtfrYdpYFa/rdvdlausaMYaui/q9f5com0fqOt/HO7tFHO68Nzt/0ugtCtDxXtDQwAAEQZQS9QjEwocMUVV6hevXp6/vnn6eIFgCRj1m2zfpt13KznhL0AAABId87r0+Q89pKtgnM7XKrwi/fKPbW2nSmErdsDBb1unZpS7Rq2SgNBzumN/F3q5w22iA337GDn9DpzF9lRQH+srvDI2xUe0Vc67hg7GZxz95iY/50AAOAXQS9QjDp27KizzjpLI0aMsDMAgGRk1nGznpt1HQAAAEhXzqJlCg17wlbBuX2uzQ3hyh1uZwrH+eBzadsOW/nQ+DQ7SA9ugI5ew1nxox3FhungDsKZu9COCse8mSDnxXvknhJgy+g8ivp9DgBANBH0AsXEnOl49NFHE/ICQIow67lZ1zmzFwAAAOmqKJ2OXsjbt7Otisb54DM78sdtkUbbNhtBzug1Yn1Ob7XKwTps5y+2gyI4qYbCT90l96x6diIYr3P98ddsBQBA8SHoBYrBM888o7lz5+q5556zMwCAVGDWdbO+m3UeAAAASCemw7GwZ5eG778laiGv4Xz0hR35cHhGep3PG+EG2bo5wlkR46A3IkhXr3dObzQcXyU37D33dDsRjPc9/1nRuosBACgqgl4gzlatWqVbb71Vo0aN4kxeAEgxZl0367tZ5816DwAAAKQD58N5he5uDL/6gNxOLW0VBab7dOn3tiiY2+hUO0ojVStJpUrawocNm+0gdgJt37x5q5wF/7NFER19lMJZQwod9jv/71U7AgCgeBD0AnF211136ZZbbtE555xjZwAAqcSs72adN+s9AAAAkA4KHfKOGVTobsqD8c7nDcC9ME1/P1Olkh348MsmO4ihs+vbgU+fR7GT9ojDFX56iNyWTe2Ef87Uj7xtnAEAKC4EvUAczZ49WzNnztSQIUPsDAAgFZl13qz3Zt0HAAAAUpkzdoqc9+fYyr/wv7rIbXW+raIn8Pm8abZt8x5u5aPsyId4dPTWrSWVO9xWBXPmLrKjKClVUuFhPeXWrmEn/PO6erdutxUAAPFF0AvE0ciRI9WvXz+2bAaAFGfWebPem3UfAAAASFm/bFJoTPBuXjfzQrk3d7JVdAU5M9UL9Y6vYqs0k2gdvRHuWQG2bw6wPbdvx1SUe0c3W/jnLFqm0P8rXFc7AABFRdALxMmSJUv0wQcfqFevXnYGAJDKzHpv1n2z/gMAAACpyHl+krR0la18Or6Kwv+6zhZRtuon6ecNtvChRRofq1X5D3ZQMOeX2Hf0Gu7Z/oNeZ9lqO4ou98JGCve51lb+OeOmSD+ttxUAAPFD0AvEycsvv6zOnTvTzQsAacKs92bdN+s/AAAAkHI2b1Xolbds4V+4zzUx66J15i+2I3/cFum5bbPhHlPRjnyIw9bNnrNPsQMfNv0qrd9oi+hy+3aWe1EjW/m0Zr1CL062BQAA8UPQC8TJxIkT1b59e1sBANKBWffN+g8AAACkGueVt6WVa2zlj9v+Eu8WK878b+zIH/e0OnaUho7x39Gr7Tsjtx22iB23WmU78idWXb1GeEA3qUqAMDyCrl4AQHEg6AXiwGzbuWXLFp1zThpvCYSom32343UM5ner2qCFug0er0WxeXNrxGzdYz7X3bNt7c+a90Zo4GvBfhEAJDOz7pv1n+2bAQAAkFJywnKCdvMeUzG3mzeWPg8Q9JrzeQ/PsEUaOibAGb1GPLp6jw0W9Oq7GJzTu0fk+yN8c8DvV7p6AQDFgKAXiIOPPvpIf/7zn20FRFNXjZwxXdP3u2Vr2EUVNOvuTNVrPULz7JXFb7aymvfToti/CRhIKGb9Nz8HAAAAgFTh/N/7chYts5U/7tWXxmzL5j2CbN2c1t28RpCO3oi4nNNbskSgLtpYdvQa7tWXyT25pq38cSa+Z0cAAMQHQS8QB/Pnz1fDhg1tBURTLZ1xQXM13+/WTl3vz9bkp9tJH/bT2Hdjkaw21h2uK3dQY1sDOBiz/pufAwAAAECqcD743I58qnCEwh0utUVseMHzzt9sVTD3tJPsKD0FOqPX+GWTHcRWoO2bl8awo9coWcILewNZukrOh4nzlnsAQOoj6AXi4JtvvtGf/vQnWwHxUeuClmoXuV+2Js/+zbvXaMYD3dSkbu4Wz/Uad9PA1xbpwCh4zXuj1KtlPbsNdCeNeC/y58xW0e3HKXfj5Xy2bl4zQyNuaKEzjjcfu6rOaN7N+3OeVeOU6TTRwMhwfOeqkcczNW5V5I+8kBkZ36MpH47Q5eY51Y1c4wXTO7TotYHq1vwMVTWfx3uumer3Qt7nmvscMp+ZoXF/N9dFPmf7LC0yDx3quey1UYte6KfLG5jnY77Oy9XrsRn26wOix6z/5ucAAAAAkBJ27JTzwWe28McLy2Lczat5Af8/9+kn20GaOupIqVRJW/gQj62bjSDbNy/7wQ5ix/vePeE4W/kT+I0QAAAUAUEvEAcrVqxQzZrBtnoBimrHt4s0PnJftZw9c2jHbI24uIFaPL1BzQdM1vQZkzXwog0a376emt89e2+AuuPDe9SueS/NKNdOY6dM16gbymhK53Ya+I69ID+Rj31P6xYavq6uej5qto8epa41F6pf8wbqZ4LbSo01cMZIdY1c2nxQduTxgWq89zigyPzfZqjJvdM1eUAvXd4gQ4sez1S99uO14bx+yjLbUY9/Ss2PnqURnZur34T9Dx6eNbiTRmb0jFw3Sj2vbqK6BT0XzxqNv6GJ6g2Yp6o3jIpcY77Oqlp0fws16DxOwTYgAw7NrP/m5wAAAACQCrwQa816W/lweIbCZtvmGHO+W2VH/qT91s1GlQDn9Mapo1fH+Q96ne9iH/SqbBmFO1xiC5/+O8cOAACIPYJeIA7Wr1+vypUDvCMRKJIdWjN/nPoNHRH5B1Jftbuogje77IVh6vdtJ02ena1h17ZU8wtaquPQbH3+Tl8tGzxMY/9nrpqnUbcM1LJrx2ryq8PU8bLmanfTU5r80uXSh96Hyd9nMzTws3Ya9uhIdW2bu310z6ezNPKiozTrs3nakVFLDS44Q7Uil1Y4qUnk8QaqZfNnE7pmPpitOyJ/ruW1HdW40jzNmPCjGg/N0tihHdXSbEfdtqtGvjpWfY9bo1FfeT27e62pO1BZj3aNXNcu8rnrFvxcIn9mx7vD1fOZWho5dbqeuqld5Jrcr3P6uyN1xgt9NSom210jXZn13/wcAAAAAFKB89+5duSP1xF54vG2iqF1+78p+FDc+idJIcdW6cutfJQdFSwuZ/RGBNq6ecdOadMWW8SOa7YdD/C8nK+WygnaYQ4AQCER9AJxsHXrVpUtW9ZWQDQNVBO7tfG+Wxlvu+UZR/RV9nvD1bycuW6ZZkydIjWO/CNu3gzNeG/fbdbGDNXTFE2ZvUaaP0NjP5M6XdvOC2X3yDivo7q2tUV+qlRRS41X1oNZmr18T0haVz3fWahZtzfW3kw3X+3UpH7eKxpE/tznmjXogD+XUU9nmCOBN2zPs31zRNMzIp8pDx/PZdbMEVpzSi1l/Lz/38WMH6WqWqMRH3OeDqLHrP/m5wAAAACQEmbNtwMfCnPGaWGt22AHPgQ9nzZVHRHgd1Vbt9tBjAXZutkIEPAXWsUKcoN29X78pR0AABBbBL0AkNS6aqTZ2ti7ZWvk35qrihqr56vf6fMpw9Xuj/YyrdGaCZG71wbq8uYt1CLvrf09mhF5aNaqZdKGDZqndqp70oHRbC3Va2CH+fljJw17tJ02PtZNTWqV8c7azewxSuPnF+XE2x3auGaRZr83ReMeG6hef2mpvq9Fplet0SH/GVfgc4n8XZg31n41St0O/Lto3ktZ5pJvl0WuAgAAAADsZ+kqOUv8H0tiQl63bt63EcdQkMCvgveOaJQpbQc+/BqnN68e7b/L2HDWxyHojXCbnGZH/jhzvrYjAABii6AXiAO6uRA7tXSG2drYu7VTzycma/xQaVT7Jur6Qj4nzQ6dJdd18739eHtj7dhd2C2LM9Tgpmwt3P6jPh//lPo2LqNlb/ZSZoOqapLn/F+/lk3opxbHl9FRVeupSY9hynpzjTIu6qROF9kLDsnnc7lqrH7M5+/Buz3fUVXsZUBRsasDAAAAUoUzf7Ed+eM2OtWOYs9ZH+AM2SMJej0ZAYLeLfHp6HWDdBkb8ejojXAbnyYd7/83Bc70T3K3lgYAIMYIeoE4qFixotauXWsrIJYy1HjQWI29VhrXuZPu+XBPrFlBFUxIOvNz7X/C7f4yjq6qBhqvRd8eGM2u0bIFdngoGVXUoG1XDX96uj5ftkHTBzXQ7MFjNSXIv7vWjdc97UZow1WT9eN2V+6iWZr+zlMaflPL/baTLtBBn0sFVTku8vhrn2thYXNtIACz/pufAwAAAECycz4Jth2te3odO4qDIFs3lyfo9ZQ59EFL+4lXR2/goDfA615EXtjr1+4cOR/7+UUKAABFQ9ALxEGNGjW0fPlyWwGxVksdh45Qx+Nma+DtIzTbCzPrquVVLaV3szT2vf3TzR3vDdQZx5+hge9G5k9vrk5nSWNfGK/9+oG/ydZYs23yQSx7qZua1O2m8evshFGygqoG3HLJ880ib/vklq1bqkref3N+NUNT3rXjQyj4uWSoyWV9VUUjNOqlA7qel2cp06mny585VBwOBGPWf/NzAAAAAEh2zofz7MiHkyL/H7hmNVvE2Oat0m+7bFEwl47eXBmH2YEPW7bZQYwdmZgdvYbb7Ew78sf5KMB51gAAFBJBLxAHJ598sr7+mrM5EEc1O2rY0HbShwPV96Hc7YprXT1Qw86bp3uan6HMB8Zrhjn79t/ddHnne/TjBf3U9SKTqjZQz3v76qgXOuny9gM1buoMTXmyn1pcNEyfmy7Yg6jVtLlqbclSz/bddM8LU/Z+7K69Z6jxvZ3UsoK5KkMZZ0njX8rS+PfmadnBumlPrquekc91T49MjZgwI/djDe6kMy4bpWUn22sOwc9zybiop0ZcW0Xjb2iiFn2yNOW9GRof+TozL+um8ed10sCr6tqPBhSdWf/NzwEAAAAgqW3YLK340RYFc0/9ox3FQdBzWunozRWkozdeQe/hkedUsoQtChZoy+4ici9ubEc+fbfKDgAAiB2CXiAOTj/9dM2ZM8dWQHzUun64nrpKmj2gr0aZN5GWa6w7pi5U9qAm+vHpTLVofrn6vrpMtXpP17ynO+7dFjnjouGaMWO4mnw/Xp1atlDX0T+q5fNTNOxQ/545rqPGvjdZXWsuU/aAy+3H/lFNnl+oKbc3Vu4/HRuoXeS5tFw2UJnNW2rcwd7YWqmdhk8dq74nLdPwdi3UovNAZa06Q8Pem6Wxf28Q+YIK2HLZ13OppY7Pz9P0RzOV8d5AXd68hTIfnCW1HquFb96hxvybH1Fk1n/zcwAAAABIZs53P9iRP+6Z9ewo9gKHfQS9HjdAR68TpzN6PUG2bw4a8hdFmQy5559hi4I5S7+3IwAAYsfZvn27a8cAYmTJkiVq3bq1VqxYYWeAZLNMWe1OULdTpssd2tzOAfDDbNv85ptvqnbt2nYGQKxkZAToSgGgnJwcOwKAgjmvvq3QLcNtVbDwjCfl1qlpq9hy5nyt0BU326pg4deHBztvNUU5j7+q0LAnbVWACkco5+vxtoitEk06++4eN6+jeT3jxXlkrEL3P2urApQIKWfl27ZAIhk6dKh3y2vw4MHeza/QVf3kzPrCVkCCKVVSOcun2iL6Pvz1B73z60pbobjR0QvEgfnlfrly5fTJJ5/YGSBBbRyvXnWbqNdra+yEtXyGpkyQ2p0Uv3dkA6nArPtm/SfkBQAAQLIL1NFb4Yi4hbye0qXsAIGUKW0HPmyNX0evG6SjN96vfeR727ecsLR8tS0AAIgNgl4gTtq0aaNXX33VVkCCqtBczS9YplF9OqnbY+Yc3xma8sJAe3btMPVrW8VeCMAPs+6b9R8AAABIegHOG3X/dKIdxclhBL2FEuSM3l27pR07bRFjgYJe/9tPR0WQoDfCWfWTHQEAEBsEvUCcdOjQQc8//7xcl93SkcgqqN2j8zS9dy0te7qnWjRvocvvnaGjrsrm7FogILPem3XfrP8AAABA0luzzg58iHP45pYi6C2UAGf0en7dZgcJJN4hf4Uj7cCnRPw7AwCkFIJeIE7Mtp3nn3++Ro4caWeABFWyipr/6ylNn/ejF1S5i2bpqaHtVLeCfRyAL2a9N+s+2zYDAAAgJWzdYQc+BNkSOBrYurlwgnT0GlsSMLQMGlYXVYWA74BPxL8zAEBKIegF4qhXr14aPnw4Xb0AkOLMOm/We7PuAwAAAKnACXJGa7y302Xr5sIJGJIG+h6Ilzi/9m75YFs3aytBLwAgtgh6gThq3LixmjZtqjvvvNPOAABSkVnnzXpv1n0AAAAgJQTpTMygozcplCppBz79utUOEkjcz+gN2NHL1s0AgBgj6AXi7K677tJDDz2kTz75xM4AAFKJWd/NOm/WewAAACBlBAl64x28HhbnsC9dlQwYDMdDvL/Xgp7RCwBAjBH0AnF23HHH6f7771fPnj3ZwhkAUoxZ1836btZ5s94DAAAAKePwAOe5xrujl62b46NkCTtIIPHu6A165u4Rh9sBAACxQdALFIPrr79eZ555pq677jo7AwBIBWZdN+u7WecBAACAVOIef4wd+RDw7NciKxEKFqj9vMEOEEgCBr1umQBvQIiGoOcUlyXoBQDEFkEvUEweeeQR/fzzz+rbt6+dAQAkM7Oem3XdrO8AAABAyqle1Q58WLXWDuKoSiU78GHVT3aAQBJx6+Z4d8xuCRj0liPoBQDEFkEvUIzGjRunzz77jLAXAJKcWcfNem7WdQAAACAlHV/FDnz4ZpkdxI9b1X/Q6xRHEJ0CXNM5HQ+/brUDH44oawfx4WwLGPSydTMAIMYIeoFiVKZMGb3xxhtauHChOnfuzJm9AJBkzLpt1m+zjpv13KzrAAAAQCoKsnWzs+wHO4ojOnpjL04dvc4PAYL4I+Mb9AY9o9c9LsCW5wAAFAJBL1DMTCgwYcIE775hw4b65JNP7CMAgERm1muzbuddxwEAAICUFWTrZhOGfRfnsLfa0XbgA0Fv4ZSMw6+St+2QNmy2hQ9x7ujV/MV24IPpgK5ZzRYAAMQGQS+QIMyZjl27dtWFF16owYMH090LAAnKrM9mnTbrtVm3OZMXAAAA6cANsnVzhLN4uR3Fhxugo9dZ/bMdIZCSJewghoJ08xrx3rr5iyV25MMJx9kBAACxQ9ALJJDrr79e8+bN03fffaeaNWvqscceI/AFgARh1mOzLpv12azTZr026zYAAACQFgJs3exZ+r0dxEmAM3q9M2A3/WoL+BaHrZsDbdsc4ZaL785KQd7A4J54vB0BABA7BL1AgjnuuOP01FNP6dlnn9X777+vypUrq2/fvmzpDADFxKy/Zh0267FZl836bNZps14DAAAAaaNMhnT0UbYomPPdKjuKk6oBtm6OcFYF7BxFYnb0HlnODuLg5w3SkhW28IGOXgBAHBD0AgmqcePGGjt2rKZPn67SpUvrhhtuUI0aNdS5c2evo2zGjBleR9mWLVvo+gWAIjLrqFlPzbpq1lezzpr11qy7Zv0167BZj826bNZnAAAAIB0F2r457ls3V7Qjn+IdRKeCeHT0rg4Y9JY73A5iz1nwrR35455W244AAIgdgl4gwdWuXds7C3Lu3Ll68803vYDhq6++0pAhQ9S8eXNVrVpVJUqUkOM43Lhx48atkDezjpr11KyrZn0166xZb826a9Zfsw6b9RgAAABIa+efYQcFc+YvlvPJAlvFQcUKUpnStiiY880yO4JvidbRa7q44/GcLOftWXbkj3vKH+0IAIDYcbZv304rIAAAAICkl5GRYUcA/MjJybEjAPDHdDSGLu1hq4K5/7hK4YF/t1XshS75h5yv/merQ3MvaaLw00NslZ6c2V8odGU/WxUsZ9kU6bBStooN83zM8/LDPfd0hV99wFYxtulXlfhz19ztm/2oerRyPhtnCySaoUOHere8zBu8zc2v0FWR79VZ/r5XgbgrVVI5y6faIvo+/PUHvfPrSluhuNHRCwAAAAAAAKBAbv2TpGqVbVUw592P7ShOatewg4LR0Rvx6zY78CkeWzcv/M6OfIjjGbjO27P9h7wR7unsCAUAiA+CXgAAAAAAAAC+uJc2sSMf/vd9XMNe98Tj7ciHFT9K23bYIk39+LMd+GDOwg05togRcz7vpl9tUTC31rF2FHvOWx/ZkU91T7ADAABii6AXAAAAAAAAgC9us7PsyB/nnWDnmhbJSQGC3oh07+p1VgcIeqtUsoPYcRYFfD3i1NFrnlfg83lbnW9HAADEFkEvAAAAAAAAAF/Muag6sqytCuZ19G7eaqsY+2N1O/ApaLCYan5cZwcFc6tUtKMY+nqpHfjjnhCfjl4n+1078se99Fy5dWraCgCA2CLoBQAAAAAAAOBPRmm5Lc6xhQ8/b5DzerCgrLDcgEFv2p/TG6Sjt2oCdvTGY+tm7/t3mi38cVueZ0cAAMQeQS8AAAAAAAAA37yu3gBCo17OPRM31kqEgm3nm+YdvU6QM3oTbetmE/KGYv+rbS/k/XmDrXyoXlXu5U1tAQBA7BH0AgAAAAAAAPAtaNCrNetzw944cE/0H/Q6s7+Qdu2yVRoK0NEb862bzevw7QpbFMytXcOOYivwts1XXOB1vQMAEC8EvQAAAAAAAAD8M12LXdrYwh9n7BQ5b8+yVQwF3b75g8/tKM2s3yj9FiDkPia2Hb1Bt212z6lvR7HjPPRisOdVqpTC7ZrbAgCA+CDoBQAAAAAAABBI+LrWUtkytvLHGfmytDvHVrHhNgoWADr/nWtH6cVZvc6OfIr1Gb0fzrMDn2Ic9DpzFyr0yDhb+eNeeaF0Unw6jQEA2IOgFwAAAAAAAEAwtWsE7+r9fFFu2BtDbuPT7MinTxbYQZoJcj5vhHtMbLdudt7/zI58KJMh99STbBEbzsNjA2/r7Wa2sCMAAOKHoBcAAAAAAABAYF5Xb+U/2Mofc1av89X/bBUDZcsE2tbXey6r19oqjQQMemPa0btrt5xPv7JFwdxzTol8I8Xu19rOE9lyZnxqK3/cixsHf5MBAABRQNALAAAAAAAAILhjKyvcubUtfNq2Q86Ax6RfNtmJ6HPPP9OO/HE+mm9H6cNZHSDojfG2zc57c7yw1y/3zHp2FH3O7C8UuudJW/nn3tjejgAAiC+CXgAAAAAAAACF4l7fRqp1rK388c4/vfUhW8WA6fgMwPlsoR2lkR/9n9Eb822bgwbtp9exgyiL/J2EbhwW+Bxp9++ZuV3GAAAUA4JeAAAAAAAAAIVT4YjgXb0RztSPFLr9EVtFl3tWPemIw23lw5yv7SCNJFBHb6BzkkMhuafVtkV0lejQX1q30VY+HV9F4e5X2QIAgPgj6AUAAAAAAABQaKar1613gq38c56fJGfE87aKolKl5J7XwBYFcxYvl/P5IlulB2f5D3bkwzExDHqXrpKz4FtbFMxtUEeqWMFW0RP6S2/pfytt5V/4xiulKrHteAYA4FAIegEAAAAAAAAUXqmScv9RuDNKQw++4AW+0eae+Sc78seZ/okdpYEdO4Nt3VwtdkGvM+crO/LpXP8Bvl8lzr1OztzgQb/b+s9yu7SxFQAAxYOgFwAAAAAAAECRuO1aKNzvOlsFY7Zwdl57x1ZR0jBY0KtpH9tB6nOWrbYjn2pWs4Pocz6cZ0f+uE3PsKOic75eqhIN/iotD/j3YRxbWeH+19sCAIDiQ9ALAAAAAAAAoMjcW66R2/5iWwUTuvkBhfo/HPyM1IPwzuk98XhbFcz5aqmcj7+0VYpbFmDbZqN6jILeyGsdqJO6ZjW5TU6zRdE4b89SKLOvtPYXOxNM+LYbpFrH2goAgOJD0AsAAAAAAAAgKsIP/UvuOfVtFYzz4mSF2v9Lzlsf2ZmicS9ubEf+ONPSZPvmIOfzRrg1qtpRdHkh7+attipYkHOXD8VsFR762xDpV/+fOy/vTOp2LWwFAEDxIugFAAAAAAAAEDXhZ4ZIVY+2VTDO4uUKdb1LoWFPSr/tsrOFEzToVZqc0+sE6eg96kjpyLK2iK6gwXqRg96t271tws1NOWE7GYx7USOFh/SwFQAAxY+gFwAAAAAAAED0lD8iN+wtAufxVxW6qp+cj+bbmeDcs0+Re2ZdWxXMWbJCzn/n2iqFBTijN1bdvFq9Vs6MT23hw5Fli3Q+r/PZQoU63uZ18xaWe3IthR+5VSrBr9QBAImDn0oAAAAAAAAAosqtf5LCYwbZqnC8cK79vxQa8bydCc69uIkd+RMofExSTpCtm2O1bbPp5t2x01YF87p5KxxhqwA2b5Xz8NjckDfy/VRoJUIKPz/MexMDAACJhKAXAAAAAAAAQNS5rc5XeEBXWxWe8+ALCl3490J12wY+p3fyTGnDZlulIBOu/rjOFj7UPNYOoitooF6YbZudx15SibOuVuiBZ71tm4sinP2gdGxlWwEAkDgIegEAAAAAAABEjTP7C4UGj1aJ87oodG+WnS0aZ9EyOZ99basAateQ2+IcW/jw489yXnvXFqnHCbBts+FWr2JHUbTsBznTAwS9ZUrLvaChLfwL3fd0kQPePUJX3KxQq5vkPPSit8U3AACJgqAXAAAAAAAAQJE4781RaNCo3HD3yn5ysiZ4gV4iCNzV+3rqBr2BX5Oa1ewgepxJH0jhsK0K5l52nlQ9RmcFB+DM+0ah4c8pdEG33NB3xPNyvlxiHwUAoHgQ9AIAAAAAAAAoFGfaxwp1GaTQNQPkPP1GwoS7eXlB75FlbVUw5+ulqRv2BjmfNyLqHb05YTnjp9vCH7dlUztKHF7oa7YUv6ynQjfdJ+eDz+0jAADEF0EvAAAAAAAAgED2BrzXDZLz7sd2NkFV/oPcy8+3hT9O9jQ7Si1OkCC+VEmpWnTPpXXGTwu09bF7yolyLzvXVonJBNehq/vnvtnhzf/aWQAA4oOgFwAAAAAAAIAvSRXw5uG2v9iO/DEdmuZrTTlBzuiteawdRE/gbt6Lm9hR4vO2L79xmEKte8t55W07CwBAbBH0AgAAAAAAADgkcxap2aI22QLePdyzT5F7abDOUOeN9+wodTgBtm6O9rbNzgdzg21xXKa0ZM7nTTLO54sU6jNcoR73ylm83M4CABAbBL0AAAAAAAAA8rdmvULDnsztUgzYjZlo3KsusiN/nAkzvLNYU8aOndKP62zhQ81qdhAdzvgZduSPOVvZrXeCrZKPM/E9hdr1lTPmdTsDAED0EfQCAAAAAAAA+B3nyfEq8Zfech5/VdqdY2eTl+noNZ29frhXXqjwxEfkNjjZziQ/J8i2zRFR7ehdssI7nzcI95Lk2bb5oDZuVmjoGIU63ibnkwV2EgCA6CHoBQAAAAAAALCPCaduuFOhux6XflhrJ1OD2+FSO8qf2/I8hV/+j8KP9Jd7Vj07myKW+d+22RPFjt6Q6QbPCdvKhyoV5fzve+mn9XYiuTn/natQuz6c3QsAiDpn+/btrh0DAAAAQNLKyMiwIwB+5OQkf3cegBhYvlqh3v+RM3ehnYiRkiWk8kdIFcrJPbLc3nHufeRWIv/+lHDfznZUeKELuslZssJWudxmZ8nt0kbuRY3sTOpxRr+i0D1P2apgOe9Frq1dw1ZF8P0alWjdW/p5g50IoEpFuR1bKnzN5dIxFe2kP6ERz9vRAXbukrZul7btyL03tw2b5XyzLPLYb/ai2AkP7i63+5W2QnEYOnSod8tr8ODB3s2v0FX95Mz6wlZAgilVUjnLp9oi+j789Qe98+tKW6G4EfQCAAAASAkEvUAwBL0ADuR8sVihlr1sFWXly8ltfJrcRvWlJqfL/dOJ9oH4M2emmu10DfecU3ID3r808+pUFvrXg3LG+f/Ff86yKdJhpWxVeObvusjn1BYh8A3EbDG9eLl306JlcmZ/IW3aYh+MHvfvmQrfeaOtEG8EvUh5BL1pha2bAQAAAAAAgDTnTPog6iGv6ZIN39pF4ewRyvlqvMJZd8n9W2axhryG2b7ZrX+Swg/1U3j8Q2kR8nqCnNFbtVJUQl7n66Vynn7DVkWwZr2cB19QiZY9czt1Y7Wlc+0aclv/WeF+13nfrzkfPKPwiL5yLzvXC06ixXkiW6G//NNWAAAUHkEvAAAAAAAAkMach8cq1P1uWxWde+WFCr9yv8Jj/y33n53kNjpVCjn20QRQvpzCb42W2/4SO5EenOX+z+h1q1e1o6Jxnpog7dptqyjYE/hm9pUz7WM7GUOVKnhvDAg/ZULfpxW+u6fc0+vYB4vGbI9e4tiLbAUAQOEQ9AIAAAAAAABpynlqvEIPPGurIjiyrNyubRV+63GFH+kv97wG9gEkBBO2/rjOFj7UKHrQa7Y9dl5921ZRtuwHha4bJOfxV+1EHFSvKveGKxSePFLhR2+T2+Q0+0DRlDgl044AAAiOoBcAAAAAAABIQ87Lbyl05+O2Kjy3z7XKeef/KTy0h9z6f7SzSCi/bLIDf9wa1eyo8Lxu3hgLDXtSoRuHSZu32pn4cDNbKPzacK/T172wkZ0tpA2bVaLp9bYAACAYgl4AAAAAAAAgzXhn8vYdYavCceudoPAL9yjct7N0fBU7i0TkbPzVjnyKQkevCf7D9/aW26yhnYkN583/qkTdK+R8vsjOxI85uzf83N0K9y9iUPvdKoVa97YFACQ2x0mg4xhA0AsAAAAAAACkE+ezhQr1f9hWheN2aumdw+s2P9vOIKEF7OiNSnB/bGW517VWeOy9yln0hsJPDJJ7bauohMj5MUFp6N4sW8WX27ujwuPuk3vKiXYmOBNUh669w1ZIeGXL2AGQgEofZgexcZhTwo6QCAh6AQAAAAAAgHTxyyY5tz8iBe3w3OMP5RW+/xbvZsZIEhs224E/bqUKdhQl5gzny89X+L5/KmfW8wq/eK933q1qHWsviA5n1MsKXTPAVvHl/vlMhV95wHsTRGE5Mz5VaPBoWyGhHf0HOwASUNVKdhAb5UqUsiMkAoJeAAAAAAAAIE2E7ntazsLvbBWMW7tGbhdvEYIsFJP1ATt6jz7KDmLDvaChwnf3VM6Hz0Y99HXem6PQP/9jqzircETuGyGKsJWzkzVBzuQPbIVE5R5/jB0BicetHpudE/Y4qkSGHSEREPQCAAAAAAAAacAZO8W7FYYX8mYN8c7lRRIKsnXzYaXiui3tfqHvvTd532tF5bw+TaGhY2wVf95WzkP+YavgQg88L639xVZISHVZC5HA6tayg9ioXIqtyxMJQS8AAAAAAACQ4kwXr+nmLQwv5H37cemE6G6zi/hxgmzVXbn4tqR1r/uLwlNGKjzo70U+y9cZ87qcx1+1Vfy53dop/OoDtgro2xUKjXjeFkhE7hkn2xGQeNwz69lRbITkqPphR9gKxY2gFwAAAAAAAEhxzr+zgnV1Wl7I+95TuV2eSF4BXvuon88bVJkMuTdepZzJIxXud12RvvdCw56UM/E9W8Wfe+7pylk80VbBOC9O9jqTkaAqVpB7Zl1bAAnEceQ2PcMWsXNiac7pTxQEvQAAAAAAAEAKM52BzoxPbeWfe1a93JAXye+XzXbgQzF29O7nqCPl3nKNws8NK1J3b+j2R+XM+dpWxaDc4cop5H9HoeHPST9vsBWiZe3atXa0zzHHBD9z123Z1I6AxOFeHvm+LFPaVrFTr0xFO0JxI+gFAAAAAAAAUtX2nXImzLBFAGXLKDzxEVsg6QXp5k6UoNdyzz9DOVNGyT37FDsT0KYtcgaNlH7bZSeKgemMf7CfLQL4fo2cbLp6o23VqlV2tE/NmjXtyD/3qovsCEgcbvuL7Si2jil5OF29CYKgFwAAAAAAAEhRXki07Adb+Rd+81E7QipwNgTo6D36KDtIIBWOUHjCQ3LbtbATwTgL/ifniWxbFQ/3r5fIvbaVrfxzxk+3I0TL6tWr7WifGjVq2FEAZvvmbu1sARQ/t+Gf5LY4x1ax16hs0c5SR3QQ9AIAAAAAAAApqjAhUfihf8mtE7y7DQksQNDrJmLQa4Ufu827FUbo0XHS8t8HfPEU7n+93Hon2Mof5+ulhevKx0GtWbPGjnKVKFGiUB29RrhXB28HBCARuL072lF81Mk4yruheBH0AgAAAAAAACnIefdjOZ8ssJU/bpc2cdv2EXGya7e0eastfKiU2L+0N1294cfvsFUAW7crNOY1WxQTc+7wzZ1s4R/bN0fPggULftfRa0LejIwMWwV09FEKD/ybLYDi43ZqKbf52baKn4uOLEQ3PKKKoBcAAAAAAABIQYHDoSoVFe59tS2QMoKcz2sk2Bm9+XH/0kzhf3WxlX/O85PkzP7CVsXDvfx8L5AJwnlvjpxZxfu8U8W4cePsaJ86derYUeG4nVvLzSzctuJANLh1ayk8rJet4qtyyTJqXT7YTgWILoJeAAAAAAAAIMU4Xy6R8+Z/beWP27GldExFWyFVOBt/tSN/Ennr5rxMZ6x75YW28s+572k7Kj7hHn+VjjvGVv7Q1Vt069at09ixY221z9VXF/0NLuGH+8s9p76tgDgqW0buo7dJh5WyE/HXsOwxOq9cNVsh3gh6AQAAAAAAgFTzcbAtm71u3msutwVSStCO3iQJeo3wI/3lnlHXVv44ny30OnuLVc1qCvfsYAt/nI/m2xEKy3TzHrht8ymnnBKVoFchR+Gn7pR7etG6g4FAypZR+IV7Ap/9HQsXH1lD55StYivEk7N9+3bXjgEAAAAgaRX6XC0gTeXk5NgRgFQU6n63nEkf2Kpgbp9rFe7b2VZIJc6UmQr9baitCma+F2LB/BLayR3uNz4YP9cY5rrQMxOlDZtzJ/wwHXDdr7RFMVr0nZypH9miYOHpT8g9uZatEMTGjRvVokULffHF/ltg33PPPerfv7+tomDzVoX+MUzO+5/ZCSBGqldVePQAuQ1OthOJ4d3NKzVzyw+2QjwQ9AIAAABICQS9QDAEvUBqK3FWR+nHn21VgCoVlTNlFNs2pyjnhUkK3faIrZDMwg/1k9v+ElshiL59++qRR/b/76B8+fKaN2+eqlevbmeiJ3TX/5PzZLatgOhyL2qk8P23JOyZ6p9vW6tJm5Zptxu2M4gltm4GAAAAAAAAUsmmLf5D3gj3grMJeVNZ0K2bkbCc+YvtCEFMnDjxdyGvYbZsjkXIa4TvulHhZ4bSgY3oKl9O4bt7Kvzs3Qkb8hpnHF5ZPY8+VfUyEvc5phKCXgAAAAAAACCFOLP335q0IO6Zwc44RXJxNv5qR0h6s7+0A/hltmzOzMy01T5nnXWWhgwZYqvYcC9u7G23Hf5374Q4QxVJrPIfvG31cz5+Ue4NV9jJxFaxZBl1+EMdXVexnmqXTp6z35MRWzcDAAAASAls3QwEw9bNQOoKumVo+K3H5db/o62QakL//I+c16fZCsku56vIf9tHHWkrHMrkyZPVpk0bW+1v5syZaty4sa3iw/lkgZxpn0izv5Cz4FtpN/9fDIdQu4bcc+rLvaCh3Eua2MnktX73di3a/ou++22zfti1RdvDu+0jKCqCXgAAAAApgaAXCIagF0hdoXuekpatkr77Qc6yH6TfdtlHfs+tXUPh6U9G/pBjZ5BqQtfeIWfGp7ZCsgu/cI/c5mfbCgfTvXt3ZWVl2Wp/Zv66666zVTGKrM/Ouo3Slm2RxZiYJu05kZ/DZUrL/UN5qXqVyD9wS9sHUtOvOb9pc/g37QjnKIezfIuEoBcAAABASiDoBYIh6AXSxLYdcr5dKS1eJmdJ5D4ydpb/IC1d5QULbuaFCj/a316MVBS6sl/g7byRuMKD/i73xqtshQPNnTtXt956q/773//amf1dcsklXqcvAKQKgl4AAAAAKYGgFwiGoBfAnhDYPa22nUAqIuhNLe7Vlyk8vI+tsMebb76psWPH6vXXX7czv1e+fHmtX7/eVgCQGgh6AQAAAKQEgl4gGIJeAEgPBL2pxW34J4XfeNhW6Wfnzp1atWrVfjfToTtr1ix7Rf5atmyp//u//7MVAKQOgl4AAAAAKYGgFwiGoBeFsXLlSs2ZM0fLli3TihUr9rvfsWOHvQoAgMRQqlQp3XXXXerfny3qAaQmgl4AAAAAKYGgFwiGoBdBfPTRR3rppZe826ZNm+wsAACJq1mzZhoyZIjOPfdcOwMAqYegFwAAAEBKIOgFgiHohR97wt0pU6bYGQAAEpvZpvnqq6/2bgCQ6gh6AQAAAKQEgl4gGIJeHMqSJUt0yy236O2337YzAAAkrvLly+8Nd+ngBZBOCHoBAAAApASCXiAYgl4czKRJk9ShQwfO3AUAJJwyZcqoVq1aOvHEE73b8ccfr+rVq+vMM8/07gEg3RD0AgAAAEgJBL1AMAS9yM8dd9yh//znP7bKX5MmTbxtMatWrer9gn3PL9lLly5trwAAAAAQDwS9AAAAAFICQS8QDEEvDnTcccdpzZo1tvq9K6+8Up06dVLr1q3tDAAAAIDiRNALAAAAICUQ9ALBEPQir9NPP11fffWVrfbXpk0bDRgwwNsWEwAAAEDiCNl7AAAAAAAApKFevXodNOQdMWKEsrOzCXkBAACABERHLwAAAICUQEcvEAwdvTBeeuklXXvttbba39y5c3XaaafZCgAAAECiIegFAAAAkBIIeoFgCHqxcuVKXXTRRVq6dKmd2ef7779X1apVbQUAAAAgEbF1MwAAAAAAQBq6//778w15Bw8eTMgLAAAAJAE6egEAAACkBDp6gWDo6E1vppu3QYMG2rRpk53J1bZtW7322mu2AgAAAJDI6OgFAAAAAABIM+Zs3gND3vr16+vRRx+1FQAAAIBER9ALAAAAAACQZkzQe6Drr7+eLZsBAACAJELQCwAAAAAAkEZMyPvVV1/ZKle1atXUsWNHWwEAAABIBgS9AAAAAAAAaSS/bt5OnTqpUqVKtgIAAACQDJzt27e7dgwAAAAASSsjI8OOAPiRk5NjR0g39erV05IlS2yVa968ed4ZvcVl/e7t+mn3tsj9Dm0N79bOyI1fWAFAeivhhJThlNCRJQ7T0SXL6NjDyql0pE52GyI/6340P/N2bdcWd5d+c8NyXX7qASgcgl4AAAAAKYGgFwiGoDc97dy5U0ceeeR+r/+xxx6rFStW2Cp+/rdzoxZu/0XfRu435ey0swAAHFzNw45UvTJ/0GlljlaZUEk7m/h+3LVVX25fp8U7N2jdru12FgCKjqAXAAAAQEog6AWCIehNT99++63q1q1rq1wNGzbU7NmzbRV787at1eyta7Rm11Y7AwBAMCUcR43LVVPTstUSOvBd8duv+vDXH7yAFwBigTN6AQAAAAAA0sT3339vR/uYjt54WLVri7LWfaUJG5cS8gIAiiTHdb0A9eG18zR32092NnGY5zd50zLv5x4hL4BYIugFAAAAAABIE999950d7VOtWjU7ip3ZW37UEz8v8DqbAACIlu3h3Zq48Tu9sXGpnSl+P+zaov+37kt9snWNnQGA2CHoBQAAAAAASBOrV6+2o30qVapkR7Hx1ublmhq5AQAQK59vW6tn1n3tBb/FafGODXpq3Vf6adc2OwMAsUXQCwAAAAAAgJgw21bO2vKjrQAAiJ1lv23WC+sXaWc4x87E1zc7NmjsL9942zYDQLwQ9AIAAAAAACDqZvz6PdtWAgDiypwH/8qGxbaKH7Nd88u/xP/zAgBBLwAAAAAAAKJqwfZ1ev/XVbYCACB+/rdzk6Zuit+RAbvdsMZv+J/CopMXQPwR9AIAAAAAACBqzPmIUzevsBUAAPE3e+uP3lbK8WBC5Z93b7cVAMQXQS8AAAAAAACixmzZvCXnN1sBAFA8psXhTUfLf9usOdt+shUAxB9BLwAAAAAAAKJi3e7tnMsLAEgIayM/k+ZsjW0IO/PXH+wIAIoHQS8AAAAAAACi4rNta+0IAIDi92kM33z0w66t+nbnRlsBQPEg6AUAAAAAAEBUzCfoBQAkkJ92b9OK3361VXR9ue1nOwKA4kPQCwAAAAAAgCJbunOTtoV32woAgMSweOcGO4qub2L0cQEgCIJeAAAAAAAAFNmy3zbZEQAAieO7HdHfXvnnXdu0YfcOWwFA8SHoBQAAAAAAQJGt+m2LHQEAkDhW79qq3W7YVtGxevdWOwKA4kXQCwAAAAAAgCL7efd2OwIAILGsz4lu9+3PdPMCSBAEvQAAAAAAACiSHLn6Nec3WwEAkFg27t5pR9GxkaAXQIIg6AUAAAAAAECRbMvZZUcAACSe7eHddhQd0f54AFBYBL0AAAAAAAAokmiffQgAQDTtcnPsKDp2i597ABIDQS8AAAAAAAAAAAAAJBmCXgAAAAAAAAAAAABIMgS9AAAAAAAAAAAAAJBkCHoBAAAAAAAAAAAAIMkQ9AIAAAAAAAAAAABAkiHoBQAAAAAAAAAAAIAkQ9ALAAAAAAAAAAAAAEmGoBcAAAAAAAAAAAAAkgxBLwAAAAAAAAAAAAAkGYJeAAAAAAAAAAAAAEgyBL0AAAAAAAAAAAAAkGQIegEAAAAAAAAAAAAgyRD0AgAAAAAAAAAAAECSIegFAAAAAAAAAAAAgCRD0AsAAAAAAAAAAAAASYagFwAAAAAAAAAAAACSDEEvAAAAAAAAAAAAACQZgl4AAAAAAAAAAAAASDIEvQAAAAAAAAAAAACQZAh6AQAAAAAAAAAAACDJEPQCAAAAAAAAAAAAQJIh6AUAAAAAAAAAAACAJEPQCwAAAAAAAAAAAABJhqAXAAAAAAAAAAAAAJIMQS8AAAAAAAAAAAAAJBmCXgAAAAAAAAAAAABIMgS9AAAAAAAAAAAAAJBkCHoBAAAAAAAAAAAAIMk4kZubOwQAAACA5OW6/NMGCCInJ8eOkE6GDh3q3fIaPHiwdyuKDbt36KG182wFAEBiaV2+lhqWrWKrontm/ddatnOzrQCg+Djr1q3jtyEAAAAAkl7FihXtCIAfBL3piaAXAJCOCHoBpCq2bgYAAAAAAAAAAACAJEPQCwAAAAAAAAAAAABJhqAXAAAAAAAAAAAAAJIMQS8AAAAAAAAAAAAAJBmCXgAAAAAAAAAAAABIMgS9AAAAAAAAAAAAAJBkCHoBAAAAAAAAAAAAIMkQ9AIAAAAAAAAAAABAkiHoBQAAAAAAAAAAAIAkQ9ALAAAAAAAAAAAAAEmGoBcAAAAAAAAAAAAAkgxBLwAAAAAAAAAAAAAkGYJeAAAAAAAAAAAAAEgyBL0AAAAAAAAAAAAAkGQIegEAAAAAAAAAAAAgyRD0AgAAAAAAAAAAAECSIegFAAAAAAAAAAAAgCRD0AsAAAAAAAAAAAAASYagFwAAAAAAAAAAAACSDEEvAAAAAAAAAAAAACQZgl4AAAAAAAAAAAAASDIEvQAAAAAAAAAAAACQZAh6AQAAAAAAAAAAACDJEPQCAAAAAAAAAAAAQJIh6AUAAAAAAAAAAACAJEPQCwBAlHz88cfKysrS0qVL7cz+zPwTTzyhadOmae3atXYWAAAAAAAAAIDgCHoBACiinTt36u9//7u6dOmiBx54QFdccYXeeecd++g+48eP14MPPqhevXrp/PPPV4cOHfK9DgAAAAAAAACAghD0AgBQRH369NEHH3ygOnXq6KmnnlKVKlXUr18/LVmyxF6Rq0ePHl5H7y233KJLL71UCxcuVO/evfXPf/5Tu3btslcBAAAAAAAAAFAwgl4gr48fVKVKlQ64dVH2avt4ilj7ahc9+LEtABTJG2+8oenTp6tJkyZ66aWXdN555+mxxx5TOBz2gt0tW7bYK6WyZct6nbzdu3fXww8/rLfeeksNGjTQ22+/7V2bk5Njrwxg91rNHHmzLmucu2Y1ufRmjf7wINtCb1qi7Lu65Lm2iwa/ukSb7MP726Qlrw5Wh2b1vGvrNesQpWvzsTpbXbz19lC3BzXHXu5Zu0Av5vlaKjW+TF3uytaS/T7pHD34u49z4K2Qa/z6Sep/aqUC19JNk/ur3oHPPa/VMzW692Vq4j2XJrqs92jNPNjzCfJaAwAAAAAAAEh5BL2ANWd4JVVqda+t8pqk7qdWUpdXU+GX6WuV3bWS6vWYZGsARfXcc88pFArpvvvu0+GHH+7NnXzyyV6X76pVq/TCCy94c8akSZO8xy644AK99tprXufvs88+64XDM2fO1L///W97pV8rlN27mdo+sUJ1bnhWE954Vl1rL9bgK5qp+6sr7DXW1jl6sFMTdR+/ad+1dTfp9R5N1GH4HO20l+XaGVkTO6hJj2nKuPRuvfzGy7r7QkXh2oMoW10XDhygAfndrm2ae02j8iqfO5JWZqv7hRfo5r1fywQ9e0MdbRrf3Qs/J+0NSivr1Pw+prn1aqXa5pJqx6h8We/iACJ/74NuVVZBAXHked56e1Zk5T0I83Vc2lYjV9ZR1+cmaMJzXVXnu8Fqe2l3Za+01+wV4LUGAAAAAAAAkBacdevWuXYMpC/TyZtvyJtXK4358lllVrNlEjKdvHtC3gGT1qlPI28IoJB2796t+vXrq27dut75u3n9/PPPatq0qS666CKvw9cwHb9DhgzxxoYJeEePHu118rZt21YrVqzQ//3f/+mkk06yVxxa7n/TK9Tnjbc04LzSdnanZt53qdoOP03PLn5YrSrmzi54/AJdMEgHuVYa+v576nGKnY2siZdG1sQaj87Vsx1r5E5GrBjXRWf2XqGh0yLXnp47F+Ta4JYoq1MT9V+QqTGTxiizupnbpGm3N1aHJ8/Ww58/q2u8OevbLHVo3F9f9pqgeXc11Z6v8vciX/egBmr7eI3IWvhGZC08+JW/s3uFJg26UV2ezO3RPehaumyS+t/URVlex+8ATV3XRw29B/Ywb7ypp+4r+mjCxAFquids3jpT97ZpqwfrPaulj7baG24Hea2BdFaxIv8hAEEUajcRJL2hQ4d6t7wGDx7s3Ypiw+4demjtPFsBAJBYWpevpYZlq9iq6J5Z/7WW7dxsKwAoPnT0AhFzPtwX8rYavVDr1q3be5t6m33AdPaOO+jmmwDS0NatW+W6rreN7oHuuOMO7/7UU0/17o2rr75a8+fP19NPP6169erpww8/1J133qkyZcro5ptv9j7WK6+8Yq8uyAq9M3GS1OwaXbk3+DNKq2nmNWqqF/XilD2dnmu1ZMGCyH1rXXTgtc1aR+4X6NOFe/pOd+rTt56KzPRQ18x9wa1RI7NrZHaBRr4xM3KVEeTa4JY8M1j9366szLvutiGvsVIr5lWQ2rTWxXlDXuOk1rqqTeSrHTlHX9qp/Ox8/x51f3ytGg4cqp4BQt5Ni7I1+MrL1OVJKbO97TT+ndxtrNu26aIsZSqzmZ0+0LJ39NpEqWmnK/eFvEbZprqyU+Rjj3tRby6zc4FeawAAAAAAAADpgqAX2M8A9Wxf2Y5zNew4Rq3sWItW5rMFZ+52yPuf+ZjPeYx5z6AcHnn0wPOAzdzB5HN2cH5bSXvbT3uPd1H2x3nPvLxb9x+wZfO9rXIf2+98yd99ntQ7nxiIpiOPPFIlSpTQhg0b7EyuMWPG6IMPPtDZZ5+t66+/3s7mysjI2Hueb9WqVTVhwgStXLlSLVq0ULly5bzw15dNC7Tg7cj9WbVztyDO66RTZWLIaV8usOfkVlb1E8za9qVWHvDf9KafcvcIrl55T+/oEi0w575eXlvVD8xAS9fRaSZI/XBB5CojyLUBrZ+krIemSZf0Vd92edfl+ur61iyty8qMfFWFsUBZw0drbbUeGvC3hofo+j3QHGU17a7R352qoW+9rAHN9m4kvb+Ps9Skx2gtrj9UU8cO0MUHuWzTwgWKfHVqeNLvXj3Vruu9elqw0B44HOi1BgAAAAAAAJAuCHqBiBrV90S59+qyA0Paapl6dk+H74HBghfe1lP3ibbey3ycA0LUvO677PdbRZu5rtm/C5IPdnbwpB718r0+1yR1b9U98r/WbefoRDs8GLMt6O8/T+75xAf9OoA05ziO6tSpo8WLF2vLli12Vt75u8YDDzygkiVLeuMDlS5dWt26dfPG77//vkqVKuV9LLN9s69tFNf+5AWoraof2NZqVFblyyN381Zqz1GvDS/tq6bVJmnQsCwtWJ87t2nRi7rzvhelRgPUurGNPHdu1Jr5kfu6NbR/j64R+bhmV+n5K7TCpIpBrg1kp+Y8M0JZq+trwE3X/D7cPJj1n2qmWY/b5Pd8cq19dYQGR9a0VgN77d9J60P5f4zRrJkvq8dZ5VXGzv1OyfLqMXqWZo/toYblD3qVflrrvXrK9+WrVtl7g9GnK+2rF/C1BgAAAAAAAJAeCHqBiMrte2qAHe8Jafd0tebXOZtrrbIH7QlTzfm9e7Z7nrr3Y93bKp/O3j1um2qvX6gxbezcxO66Ne/n+/hBXXafHe+9fp0WjrbB9IHX59VmjBba69f1u1iZWXn+XIQ5V9I85p0tuTpbt9pu331bV+97Xof8OoA0Zzpxf/vtN02atK9j3py3a0yc+Lt3geynUaPcw103btzo3desWdO737Ztm3d/SOs3aaa5L5lfmFhGZUy+PH+HduROSKd01YRJY3Txgv66oE7u+nZi05v1aaOHNeuVPmq4p7V1/drcwLBkhlceKMPLrX/Szq2RuyDXBrH+XY29b0FkHeula3xvrbxTM58coRdVWV3bXRj53/ws0OtPRF6n0weoZ5ug/cAN1fXuTNU+SIfuXmd11dD2tfeerXswm9Z7r17u63Qg+5ou2GpfvaCvNQAAAAAAAIC0QNALeBqqz5d5tmjOw+ucNaHvgd2zH7+4t5O31ej7lVktd+x9rEl7o16Nyi+INSFsv4a2qKzMu/d97klvz7SfZ62yn9zTYTtAU/deb4Lp+/eGsJN6vJhvCDvgb/63NZ0zbk9gnXfr6rzP617NpKsXyFfHjh29blxz7q45Y9fo0qWLypcv780duK1zXieeeKLGjx+vv/3tb17dv39/Lxw+4ogjvDqqVmbr5r9214u7W6nP6Jc14Y2XNaZf5L/wF25Wl9uzlUgnvK6Y8qIX2Pa4tpXvdWzFuN7qPnyBKl9/vwZcnn/MuvP91zRyvnThdZn7gm0AAAAAAAAASFIEvcAee7doztNhm9fE7qqXJ+yd8+GeELaVWp93QBTRqOnert59wW0edavvH15Ua6rWe7t6V+QGLqtn6s09zYC3NdW+mNeorKaX7ImG8wthW6lGfjt85mutVi6ywwO6mSudum/75y9X5hNYA9BRRx2lDh06eOfsvvjii95c2bJl1bdvX69Tt0ePHtq1a5c3n5969eqpTJncTk1z5m/t2r43Kg5ggUb36K4Xt2ZqzCvPakD7C9X0vAuVeduzmvpGH5Ue1103Pr7AXlvcFmjyc9Mi62I3tW7mJ43dqSXPdNdlvbOl9mM09YFWB+mm3aR3J4+OrHitdFWLg23sDAAAAAAAAADJg6AX+J3K3jbHe7ZJXpe303fim5q52o7TzKSVidTvByQWE+ZmZGR4Z/IuX77cm2vfvr23hfO8efPUr1+/Q4a9hVKxvJqa+93bvXJ/27V9d+SuWfnc0POrmXrtY6n+P3op84A3gZQ/70pd00ya8/i7ubsDVKws75Ld+W8EvMN83MgVlStG7oJcG/noD+Z9I4m9/e4McPNc50dW4s4HvsElP5s08+EOuuJf2arQcYymPpp50LN5tWmmZj4TuW/TWk337sCQl8/nFyXlK3qvXu7rdCD7mjaNvMaeIK81AAAAAAAAgLRB0AuszlaXPb/UH57PJsjVMnX/3rNtJ2mFdyBlqhqgqXsC7gNvebaOBrA/09V75513emf13nbbbdq9Oze9GzJkiHcO79tvv+1t5/zLL79488aMGTOUmZmps846SwMGDNjvMV8qHyPT+ztpdX7d9mu1dnLkrtYxOsaUW3bI9OvWqOhVB6itU72zunMrla6gKqdH7r+NfIzcmTwic99G7k6vogqm2TbItT6t+PLTyHOtrG7nFbTmrNCk2zuo7bCZqtFrgt4wIW9+593useBLZUXuWl3S1Pd20LF0TGXv1dPa/N48FHlNzW4KtSOvsSfIaw0AAAAAAAAgbRD0AtWq61Q71H2XqcuBZ+quztatPfZsYLxPw/P2bs6sNz884M98PFN7N3bOL1S4b+b+5+rm3aa5TY3cjrS82zkfeL3Waubbe57TADU1IU2hVVb1unaoL7UyTTuWgaIy3bvt2rXT/PnzvbDXnNd72GGHKSsrywt5586dq2bNmun+++/XPffc43UBf//996pRo4Z3Tu/ll1/uXeNb+fqqf0nk/uMvtSR3Zp9vv9TMyN2Fp9bP7fK0HaEr1v5kqgOs0GKTAu/tcq2t+mY7+olfaPFOO7XHzsX6IrJWVT6vvhc8Bru2ofrk8yaSPvutX5u0YJ5Z21qr9t51KT8rlN37anV5coWaDpygl+8qOLxdsODdyP/W19n1Dnaln+cXPeXr1deFkfuZi3736mnJIu/VU/16tkc3yGsNAAAAAAAAIG0Q9AJqqGv2duxKk3rU23/rzjzn1O4XquY9h7fHrcreG5DO0YOt9sS8A9SzfX6hwr26LE/38Jxx+z7HgL9l2sBi/3N4816/9tVb1d0Gw61GX+Nje9NDyxtadx+U5xzi4Xv+Hrrk+foAHIzp4D377LM1adIk9e7dW9u2bVOJEiW84PeJJ57QCSecoKefflovvPCCTjrpJGVnZ3s3E/yaa7t166ZPP/3UfrSC1NDFbSJrxPsv6vUP86asOzXz+RGaqWt0TUu7kfFJFyrzEmnBEyOVfcCuBDs/ztbYyZF14B8X2bWktM6+tJvqa7Sysvffsn3JuFGR2frqdUXTyFVGkGv9WKIlb0fumtVW7UOklkue6a/u45ao4W3P6eWbm/oIONdqyQKTZjdV/ZNyZ4pdrYt1VRtp5tjXNXOrnTO2ztSLD82UOl6j1rXsXJDXGgAAAAAAAEDaIOgFIiq3v19j9nTPHlQrjfmyT55QtaH67D2/d5K6n7onFL1sbzfvgEl5rz/AfZfZ6yvpsvvsXJsxuiZP91jl9s9q6m22yHN9vT0dxpHr7883SM5f5ep7e5d1b6vcj+WdP9moz77PM7G76h34vG7rqcx8z7QEkFepUqU0atQonXzyyXr33XfVqVMnbdy40Xvs/PPP1xtvvKHRo0fruuuu0yuvvKLjjz/ee8xs4WyCYMdxNGjQIG/Oj8rth2hM+5/04BVX6OYnJ2nmh5OU1fsKtX088jFH36JW3tm4Rg1d8+8xylS2uv+1g/p7105T9n1ddEGre7XivAEa2rm+vVYq3ain7r+toSb1vkwdhmVrmrl2mDkLd5oa3na/uprtmq0g1xZo00/6ybyppG7tQ5y1O01ZD02LDOqr+o6ZGvXwg3rwd7dp2j92jnxc0wrbrIaOCbCNdGxVVuadkddk7YNq+9eblTV5pmZOztLNf22r0ZFXaky/VvsF2P5fawAAAAAAAADpgqAX8FRWZtY6rZu0p7P1ALdN1bp1z/4+7KyWqWfXrdsXku7RZowWHmrLT/Px9obElpnL2tPNu0/DfpHndeC1EQMmRebzuf6QGvXRwjzdy8aXK3P7d73Pk8/X730ezucFfDviiCP0zDPP6NRTT9WiRYt01VVX6f3337ePSs2bN9ftt9+uww8/3M7kOuecc7wu3xUrVmj79u12tiA1lPnoVL3cr44WP91Fba/ooqwldTT0jfc1pv0BUWn1TI15a4L+c16GvvSu7aBBb+1Q039P0Puv91HDsvY6T+nImvCypj7UWpo2SB3MtdOkK0fPinyuhgd06Aa5tgBbd8rbXLp8xsH/3KIvleXtMLBA2Q/fq3uH5Xf7cu/OBLl2aMf8yF35CqqQO5EYzGsy8WX1OWGxsq5rq7bXZWnxCUM14a0xyqxur9krwGsNAAAAAAAAIC0469atc+0YQCytzlaXPdtAm1CX8BRIab/99pv+/e9/66WXXvLqli1batiwYb8LePeYMGGCFwA3btzYC4oBAMFVrEh7OxBETk6OHSGdDB061LvlNXjwYO9WFBt279BDa+fZCgCAxNK6fC01LFvFVkX3zPqvtWznZlsBQPGhoxcAgBg47LDDdOedd3rn8daoUUNTpkzxtm82WzNPnDhR33zzjXbu3Ondm1+03XHHHV4IbP4MAAAAAAAAAAAFIegFACCGGjZsqDfffFM333yzQqGQXnvtNfXv319XXHGFTjvtNO9+3LhxKlu2rMaMGaOaNWvaPwkAAAAAAAAAwMER9AIAEGOmu/fGG2/UzJkzNWrUKPXp00ft2rVTo0aNdO655+qmm27SO++844XCAAAAAAAAAAD4wRm9AAAAAFICZ/QCwXBGb3rijF4AQDrijF4AqYqOXgAAAAAAAAAAAABIMgS9AAAAAAAAAAAAAJBkCHoBAAAAAAAAAAAAIMkQ9AIAAAAAAAAAAABAkiHoBQAAAAAAAAAAAIAkQ9ALAAAAAAAAAAAAAEmGoBcAAAAAAAAAAAAAkgxBLwAAAAAAAAAAAAAkGYJeAAAAAAAAAAAAAEgyBL0AAAAAAAAAAAAAkGQIegEAAAAAAAAAAAAgyRD0AgAAAAAAAAAAAECSIegFAAAAAAAAAAAAgCRD0AsAAAAAAAAAAAAASYagFwAAAAAAAAAAAACSDEEvAAAAAAAAAAAAACQZgl4AAAAAAAAAAAAASDIEvQAAAAAAAAAAAACQZAh6AQAAAAAAAAAAACDJEPQCAAAAAAAAAAAAQJIh6AUAAAAAAAAAAACAJEPQCwAAAAAAAAAAAABJhqAXAAAAAAAAAAAAAJIMQS8AAAAAAAAAAAAAJBmCXgAAAAAAAAAAAABIMgS9AAAAAAAAAAAAAJBkCHoBAAAAAAAAAAAAIMkQ9AIAAAAAAAAAAABAkiHoBQAAAAAAAAAAAIAkQ9ALAAAAAAAAAAAAAEmGoBcAAAAAAAAAAAAAkgxBLwAAAAAAAAAAAAAkGYJeAAAAAAAAAAAAAEgyBL0AAAAAAAAAAAAAkGQIegEAAAAAAAAAAAAgyRD0AgAAAAAAAAAAAECScdatW+faMQAAAAAkrYoVK9oRAD9cl18HpKMhQ4Z4t7zuvPNO71YUG3bv0H+3/GArAAASS7WSh+vsclVtVXRvbFxqRwBQvAh6AQAAAKQEgl4AKNhLL72kjh072irXqFGj1KNHD1sBAAAASBZOhQoVCHoBpJQTTzzRjtLH0qW8ixAAAAAAAAAAgHTCGb0AAAAAAAAAAAAAkFSk/w8AnWEqpdzowQAAAABJRU5ErkJggg==;" parent="1" vertex="1">
          <mxGeometry x="60" y="635" width="450" height="234.88" as="geometry" />
        </mxCell>
        <mxCell id="lZjgi-s0DHtiW6chuKvV-5" value="El login debe ser único, hecho por correo, y debe garantizar que usuários KOF hagan su login por Microsoft (correo+contraseña) y usuarios con otros domínios hagan su login por correo+contraseña" style="rounded=1;whiteSpace=wrap;html=1;align=left;" parent="1" vertex="1">
          <mxGeometry x="860" y="696.1600000000001" width="240" height="112.56" as="geometry" />
        </mxCell>
        <mxCell id="lZjgi-s0DHtiW6chuKvV-7" value="&lt;h1 style=&quot;margin-top: 0px;&quot;&gt;¿Qué necesitaríamos cambiar funcionalmente en &lt;em data-end=&quot;89&quot; data-start=&quot;83&quot;&gt;JaaS&lt;/em&gt; para que se convierta en &lt;em data-end=&quot;124&quot; data-start=&quot;115&quot;&gt;Cockpit&lt;/em&gt;?&lt;/h1&gt;&lt;p&gt;Este es un mapeo funcional de las necesidades para trasladar &lt;em data-end=&quot;104&quot; data-start=&quot;98&quot;&gt;JaaS&lt;/em&gt; a &lt;em data-end=&quot;116&quot; data-start=&quot;107&quot;&gt;Cockpit&lt;/em&gt;. Las necesidades técnicas aún requieren un proceso de descubrimiento.&lt;/p&gt;" style="text;html=1;whiteSpace=wrap;overflow=hidden;rounded=0;" parent="1" vertex="1">
          <mxGeometry x="30" y="30" width="400" height="150" as="geometry" />
        </mxCell>
        <mxCell id="lZjgi-s0DHtiW6chuKvV-9" value="&lt;font style=&quot;font-size: 36px;&quot;&gt;1&lt;/font&gt;" style="ellipse;whiteSpace=wrap;html=1;aspect=fixed;fontColor=#FFFFFF;strokeColor=#FF0000;fillColor=#FF0000;" parent="1" vertex="1">
          <mxGeometry x="-20" y="432.5" width="55" height="55" as="geometry" />
        </mxCell>
        <mxCell id="lZjgi-s0DHtiW6chuKvV-10" value="&lt;font style=&quot;font-size: 36px;&quot;&gt;2&lt;/font&gt;" style="ellipse;whiteSpace=wrap;html=1;aspect=fixed;fontColor=#FFFFFF;strokeColor=#FF0000;fillColor=#FF0000;" parent="1" vertex="1">
          <mxGeometry x="-20" y="727.44" width="55" height="55" as="geometry" />
        </mxCell>
        <mxCell id="lZjgi-s0DHtiW6chuKvV-15" style="edgeStyle=orthogonalEdgeStyle;rounded=0;orthogonalLoop=1;jettySize=auto;html=1;exitX=1;exitY=0.5;exitDx=0;exitDy=0;entryX=0;entryY=0.5;entryDx=0;entryDy=0;" parent="1" source="lZjgi-s0DHtiW6chuKvV-11" target="lZjgi-s0DHtiW6chuKvV-13" edge="1">
          <mxGeometry relative="1" as="geometry" />
        </mxCell>
        <UserObject label="https://sw-jmtbg01-dev-f8gxerbub9dpf7h9.z01.azurefd.net/country/selection" link="https://sw-jaas-prd-fkhwf8h5epfze3bu.a02.azurefd.net/orders" id="lZjgi-s0DHtiW6chuKvV-11">
          <mxCell style="text;whiteSpace=wrap;fontSize=13;fontStyle=1" parent="1" vertex="1">
            <mxGeometry x="60" y="475" width="470" height="30" as="geometry" />
          </mxCell>
        </UserObject>
        <mxCell id="lZjgi-s0DHtiW6chuKvV-17" style="edgeStyle=orthogonalEdgeStyle;rounded=0;orthogonalLoop=1;jettySize=auto;html=1;exitX=1;exitY=0.5;exitDx=0;exitDy=0;entryX=0;entryY=0.5;entryDx=0;entryDy=0;" parent="1" source="lZjgi-s0DHtiW6chuKvV-12" target="lZjgi-s0DHtiW6chuKvV-3" edge="1">
          <mxGeometry relative="1" as="geometry" />
        </mxCell>
        <mxCell id="lZjgi-s0DHtiW6chuKvV-12" value="JaaS Single Tenant (BR)" style="rounded=1;whiteSpace=wrap;html=1;fillColor=#dae8fc;strokeColor=#6c8ebf;" parent="1" vertex="1">
          <mxGeometry x="570" y="430" width="170" height="30" as="geometry" />
        </mxCell>
        <mxCell id="lZjgi-s0DHtiW6chuKvV-16" style="edgeStyle=orthogonalEdgeStyle;rounded=0;orthogonalLoop=1;jettySize=auto;html=1;exitX=1;exitY=0.5;exitDx=0;exitDy=0;entryX=0;entryY=0.5;entryDx=0;entryDy=0;" parent="1" source="lZjgi-s0DHtiW6chuKvV-13" target="lZjgi-s0DHtiW6chuKvV-3" edge="1">
          <mxGeometry relative="1" as="geometry" />
        </mxCell>
        <mxCell id="lZjgi-s0DHtiW6chuKvV-13" value="JaaS Multi Tenant (VE)" style="rounded=1;whiteSpace=wrap;html=1;fillColor=#dae8fc;strokeColor=#6c8ebf;" parent="1" vertex="1">
          <mxGeometry x="570" y="475" width="170" height="30" as="geometry" />
        </mxCell>
        <mxCell id="hI6CrV23GFSyIoWoNn_m-1" value="&lt;h1 style=&quot;margin-top: 0px;&quot;&gt;Requisitos Cockpit&lt;/h1&gt;" style="text;html=1;whiteSpace=wrap;overflow=hidden;rounded=0;" vertex="1" parent="1">
          <mxGeometry x="855" y="350" width="250" height="40" as="geometry" />
        </mxCell>
        <mxCell id="hI6CrV23GFSyIoWoNn_m-2" value="&lt;h1 style=&quot;margin-top: 0px;&quot;&gt;Escenario actual&lt;/h1&gt;" style="text;html=1;whiteSpace=wrap;overflow=hidden;rounded=0;" vertex="1" parent="1">
          <mxGeometry x="10" y="360" width="250" height="40" as="geometry" />
        </mxCell>
      </root>
    </mxGraphModel>
  </diagram>
</mxfile>
